<mxfile host="app.diagrams.net" modified="2024-06-19T05:23:32.136Z" agent="Mozilla/5.0 (Windows NT 10.0; Win64; x64) AppleWebKit/537.36 (KHTML, like Gecko) Chrome/126.0.0.0 Safari/537.36 Edg/126.0.0.0" etag="xlRQGv6bM5LdzU_JrEDH" version="24.5.5" type="github">
  <diagram name="第 1 页" id="Xf4Bsc39fs1FAQNReC4f">
    <mxGraphModel dx="2702" dy="2228" grid="1" gridSize="10" guides="1" tooltips="1" connect="1" arrows="1" fold="1" page="1" pageScale="1" pageWidth="827" pageHeight="1169" math="0" shadow="0">
      <root>
        <mxCell id="0" />
        <mxCell id="1" parent="0" />
        <mxCell id="_ww6I5lQIW8gpJn7JbcI-40" value="" style="shape=image;verticalLabelPosition=bottom;labelBackgroundColor=default;verticalAlign=top;aspect=fixed;imageAspect=0;image=data:image/png,iVBORw0KGgoAAAANSUhEUgAAACcAAAAfCAIAAADr6EOiAAAASklEQVRIDe3SsQ0AQAjDQPZfml/ApV80pkyRSCdmL24uRrfV3+wJJ+wJ9E2eJTclzC5emrBnyU0Js4uXJuxZclPC7OKlCXuW3PQA9ModqCmsy0oAAAAASUVORK5CYII=;" parent="1" vertex="1">
          <mxGeometry x="-396.26" y="-430" width="1182.52" height="940" as="geometry" />
        </mxCell>
        <mxCell id="_ww6I5lQIW8gpJn7JbcI-3" value="" style="shape=image;verticalLabelPosition=bottom;labelBackgroundColor=default;verticalAlign=top;aspect=fixed;imageAspect=0;image=data:image/png,iVBORw0KGgoAAAANSUhEUgAAAoEAAAD1CAIAAACgHbgRAAAgAElEQVR4Ae29e3Rb1Zk3vLkVtZ0Glxlad9p36nY6XZ71LWYpBWa5bqfL7fTlyzDL4DddbbzIH5hSPCpfW0xIB4/rRBk6RC8QsAsNLklTE25uAq1o3FqFxFGcWJKvkQkJjuMEJTFEcRoiG2PLGDvni/TobG2dm/aRjo5uj1ZWvLXP3s/lt4/O7zz7SgT8IAKIQJEh8MGS8MOhuX/seo/+++HQ3AdLRYYCuosI5AACJAdsQBMQAUTAbATe//DikenFbSc+2HbigyPTi+9/eNFsC1AfIoAICAJyMN4FiAAigAggAohAdhBADs4O7qgVEUAEEAFEABFADsZ7ABFABBABRAARyA4CJnFwMBis4vv4/X4JEvx1g8GggXX9fj+fyVVyvblfVwKUIAj8NsvrulwuTqzyrm5tbW3KNivWbW9v58EqH+s2NDTIseL0V7Guw+HgwSpbdR0Oh9xfTpsNr9vQ0MCDlaJeE+q2t7fLseLUq1i3traWx1/D64ZCIbkj6eQYzMEul6uuri4dHk2nrpwL0+Fvfk6S6839uvKbht9meV3kYMXHQT7yaDo2K3IhcrDivaHIhenwNyefKeo1oa4iF3LqVaybLQ4uj37sdnsgEJA/CVPIMYyD3W631Wol0U9LS0sKpmAVRAARQAQQAUQgZxEIh8M2m620tBSYzmazyQMwvcYbwMGBQGDFihWEEIvF0tDQYNTbgV5PsDwigAggAogAImACAtDzB6xnt9vT0ZguB7vd7pKSEkJIbW0tsm86LYF1EQFEABFABPIIAafTWV5eTgipqqpKeZw4LQ5ua2uzRD8dHR15BByaigggAogAIoAIpI9AOByura0lhJSXl4+OjqYgMHUObmtrI4SUlZXJZ1GlYAdWEQTh1KlT3d3dHR0dzc3Nk5OTiAkigAggAohA7iPQ0tJCCCktLU2hMzhFDvb5fBaLpaysLOUAnBPWsbEx4CQ6Bt7R0TE2NiYIgs/ns9lsnHJyvxg4SN3kNHhsbGzTpk1Qq7q6moIzMjJSSOBwooHFEAFEABHICgJOp5MQYrVaw+GwLgNS4eBAIFBaWmqxWDIaAQOLbNmyBRgXvBobG2tubqZ0tWvXLl3e5n7h7u5uQginXx0dHdXV1T6fD/w6depUYYOT+82HFiICiEDRItDY2EgIcblcuhBIhYM7OjoIIZkbA56amtq0aVN1dfWpU6cUnbHZbEDDLD0rlsy7zC1bthBCePwaGRkhhFACpp5SGuYRQmthAhFABBABRCBNBFKIS1PhYEEQ0l8Upebq5ORkdfSjMSAK9ENIisarqdbIn5qaqq6u1ihg1CVCCKci4Fq53rGxMXhBkV/CHEQAEUAEEIGcQsA8GuN0OykBC4IwNTVFCNmyZQunzPSLbYl+0pejLQHeLTj90iBak8HRdgqvIgKIACKACKghkFscDNOL5P2rcusVu2HlxQzJAWocGRkxRJqGEOjk51QEHNzd3S0XaCY4cu2YgwggAogAIsCJQA5xMFAd52xeQsjU1BSnk+kU27Vrl0bEmY5ked3q6mr+DnYYOSaEyDvtTQNH7gLmIAKIACKACPAjkEMcDDOtOKNADQ9HRkboch3JQtvJycmxsbHu7u5NmzY1NzdTIXS6dXNzM6V2yr7AwSwTs3I2bdoEcsbGxmw2GyuWyh8ZGYHh2+rqapjzPDY2Jpn8DOO4itWpHDYxNTUFFlZXV8tpmC1J05zIyD2ampoaGRnZtWtXc3OzpJeC2qDYcBoaBUHQCyN1BBOIACKACOQyAqFQiHPLDh0cnNGlwIbMJJqcnLTZbFu2bAFOApk0sIZRZDqnms7rhh5gSrSS3l3gTjZTIgc4iU4TkwSyk5OTzc3NmzZtApOmpqaam5shhJVwMJCZhOGS3mSgV2MOOUjQhYzcIwoOIUTylkCnYcsd12gLOqhPm0OuNKnvWAARQAQQgRxEIBwOl5SUVFRU8Nimg4Pb29tLSkrcbjePXL1lgAhpBKa3OgRVNMqk1dnglWbCcx+W7nR0dNhsNkgDnUjiOZCgGGiCnKmpqbGxMZ/PJw9kR0ZG2PW7YAB925DIBGmSTGqzRoLSv8RyWgWmmksoXwMZNY9o7zeVDAlY08xO5+bXKAhCUhgl6vArIoAIIAI5jgCcY8RjpA4OdjgchJAMcbA83OSxnpaBtUM0tIV8ICfJNGOIYiFog55SKoSSAc0BCTSSpvlsGAd9wpBTXV1NV+WeOnVKcW4U5LOMBS8QhBBFRaxStTSlYaqdltSLjM1mU/NocnISmFu+bru5uZmCz6+RB0bqCCYQAUQAEcgXBOrq6gghPIt4dXBwQ0MDISSF/TB5UIOHu1okl1QC7OkhKaa4zMnn88HSHeglplWAYCQdrRD5UXahhWGnTNjQShJfQhngIcWwHgyQyISOaEVRrFKNNHQkVFdX0/FsKKwXmV3Rj5oimDXG9sxDSVYvv8akMKqZgfmIACKACOQyAna7nRDCs2WHDg6G0yH0bobJCZNagMVTHSJLlsDGxsYUCVgQBLr8SRIfKw7HAuXIg0sqp6OjQ7H3GMhbQofgC1ySyIRuAHl8yeM+LQNxPMvuKSCj5hFoAfRYFYIgdHR0UFbWpTEpjNQ1TCACiAAikEcIwJlGPN3GOji4qqpKMu/GQESAgyXMxCkfQsBT0Y/P52tubobTCxSrgyI50wDdsqxJB27V5FRXV1PuYctASC0hKihAu3PZ8tA9LumdZguwaSjM5tA0RNisHL3IqHlEVcDQLxvfA+C0gC6NgiDAvmCKMFKZmEAEEAFEIL8QaG9v5xy6zRUOhgArtWcxxH+EkE2bNu3atUujQ5uOm0oUyadTCYIAkbEkXIb7AOSwbMfeH5SH2ExIQ7wrkanYOy2vCzlQWO0qvGHQq3qRUfOICgTtlINPnTrF9kLTCVY8bSEIgjaMVCkmEAFEABHILwTyj4PhcSwZjuUEXUI8GrWAHeVaIF+yLggITJIJwqE82/vNKoWKbA6tBdG2RCa8f2i8OrCioCubzWHTkoldepFR84iqgK5mmDsGk58lXfH8GqETm/+QKGoDJhABRAARyHEE8o+DaQiVtDt6cnJSQhXw3Ge7kaF5JN2kgiAABcqHXeUS6PRpuVgqR/ES9K/KO+1h0FTe482Wn5qakoTI8vsMTJW7QCdXs+DI/dJGRs0jagZwMGzOVV1dLX9v4NeYFEaqFBOIACKACOQXAnnJwfTEJEWCgQbw+XzycVYIDekyX0EQ4GR7yQZSbAzHNicNwU+dOkV7WaHTFSJmCZeDHHkwTWUC0VI74SDkjo4OWvHUqVOUa0E76O3o6NB+BaFD1Irat2zZIulM1oWMokzqFCToeLYiAQuCwKlREASKhkQFfkUEEAFEIN8RyEsOhkgOOnIlbDQ5OQlEKOnFhXYC8oYIjP7P7joJxdTW/0DHckf0QxseMru7u0+dOiUhJ5AjGVGmFWkXK7WEEAKFYULTli1b6LZZtPCWLVt8Pp88rGTF0iFqkNzc3EwJGwJoyTsH3beEtQQ2upLEu0k9Ys0AaWqmcrYF9UUDRlYpphEBRAARyCME8pWDAeKRkREI6eBxX11dvWnTJkX2pU0CTAnlN23apMgQwO6S8UtKBjRsBZkQcco33qJ95nI51BjKrHQhMitTsoU1EDMbxLNyJGmbzQaujY2NwQ5f4HJzc7MamaWDjEQ7fCWEKMJLC/No5ISRysQEIoAIIAJ5hEB+c3AeAY2mIgKIACKACCACEgSQgyWA4FdEABFABBABRCDnENCxPtjv9/Ps+pFzLqJBiAAigAggAohATiKgg4Nz0n40ChFABBABRAARyFcEkIPzteXQbkQAEUAEEIF8RwA5ON9bEO1HBBABRAARyFcEkIPzteXQbkQAEUAEEIF8RwA5ON9bEO1HBBABRAARyC0EgsGg2+0OhUJJzUIOTgoRFkAEEAFEIH8R6KqPbOVT2Tqevy7kn+W4Pjj/2gwtRgQQgRxBYHy8q76yshJ2oSOksrK+tSt/GQw5OAu3FXJwFkBHlYgAIpD/CIy3Uu4VOTj2t7K+K2PuxbRmRANycMaaTV0wcrA6NngFEUAEEAFlBOIEXFkfj3yjYXFm+3ORg5UbJG9zkYPztunQcEQAEcgSApSBFcPR8dbKzI2pIgdnqc0zpRY5OFPIolxEABEoUASgz5YQRQZW8Hm8q7U+3m9dyUbOUBoERsVFBpjFru3KenZ6FCV+8TL8pXQfFxKXQS8KgjAeNYMKj45ex0P4iCHYF63QeJnOQg7ONMIoHxFABAoLgRgFs/ym4SDl1Mr6yEecwJVQO0afreIIMzPNK070MP2Lcmhl7EO7wqVCohQtviawBB6tKBI5awdysEY7ZuoScnCmkEW5iAAiUJAIiHQm0puWk/GyzGzpWCbDfjFWj/BiPHc8lhvPiWiKVVZQniAEAtzxcVFtpH9cEn/HbRM9QA4WkTDxL3KwiWCjKkQAEch/BBSpUdmtWFEZYUrJLlaO0JgWxMnJmouDZeqUjZP3PUvNUquH+QYigBxsIJgoChFABAofATVilXuuGrNKL6iRn0K+tGpcq0Lh+EXFlFSWfgmKYjFTDwLIwXrQwrKIACJQ9AgAUzGdxqqIiCWjA8EJ/8GoMO1lViM/hXwpb8aVKxSOXxRT4+NdXa3UFBhcpnEzlwRREv41BgHkYGNwRCmIACJQJAgAU3FwcIwuxdlP8r9JyU+BFFPm4PhkaakhSc0okobNjpvIwdnBHbUiAgYiMD8/Pz09HYx+pqen5+fnDRSOoiQIiNRKo1jJ9fhXBQqNX2RTagUV8lPkYJAUmfLFLEeSylJQx1qJ6UwggBycCVRRJiJgEgJnzk76+g/29A507hnc3NG/uaO/c89gT+9A36Cf5yQWk6wsMDXcJBwjPhpnquKgRn4K+VLejMtUKEwvKl+TylIuRYVgIrsI6Dg3ye/3u93u7JqL2hGBwkZgYWFhyH/42VcGbrf33rxG+u+On3ucrw4eOnJscXGxsHHIindAVuxCItaMyDog4N1YuaQkrEZ+Cvkx3lQIwhUKi1apVEIOFgHKi786ODgv/EEjEYH8RSAUCvV4h+95xCNnXzanabP3gHd4eno6fz3NVctj7EpIwklJdL9ocWeNGMsldgFHVvlGds5qpSc7qNGnUn5Ms5zXlQqL8NFK4nphusiJMNt9aUkQJeHfrCGAHJw16FExIsAiMDMzs7tncGVTEgIGMl7Z5Nmzf2h2dpaVgGkDEBhn959MnObEnpsksnCkBOxsRcvGaVSN/BTzY3wK8phYXLGw6Cg1ozK6XVdsXjbOixbxyYe/yMH50EpoY6EjsLS05O33K/Y/sxEwm77j5x5vv39paanQsTHfP8nxwWrnB0s2ao7sWMVOjZJvliF6okKr7BTneDStUliUJUT3uhRfAGDTLKhC3wWSSaCiMJENBJCDs4E66kQEEhF48+jx9W1elmJ50i3P9Y+fOJkoCb8hAohAPiGAHJxPrYW2FiQCs7Ozu3sGeUhXUuaWtb3d+4fm5uYKEhZ0ChHIXwSCwaDb7eZZxYAcnL+tjJYXCALHTwTsv9IdBAMfP9LuO3nqdIEAgW4gAoWCAK4PLpSWRD+KAAFf/0FdI8FsNHzHzz19g/4iAAldRATyCQHk4HxqLbS1yBHw9fXfsla6FJglWo3099b1evuGihxAdB8RyDUEkINzrUXQHkRAGYGlpSVfX78Gyya91NfXpywacxEBRCBLCCAHZwl4VIsI6Eegr68vKdGqFbi0ntjbN6hfJ9ZABBCBDCKAHJxBcFE0ImAsAt6+oUtdymosq51/u73X13/QWHtQGiKACKSJAHJwmgBidUTAPAQOv3nsgSe4tseS83HTZs/RYyfMsxU1IQKIAAcCyMEcIGERRCA3ELhw4cJLXamsD755TW/nnkHcODo3mhGtQATiCCAHx7HAFCKQ+wj4Bvz1Dt2h8ANP+PyHRnPfO7QQESg2BJCDi63F0d88RsDlcv3TP/3TTuefb2vUQcMrmzw93uGFhYU89hxNRwQKFAHk4AJtWHSrsBAIh8MNDQ2EkJKSkpd/73xh14B8xFctZ/vLPe6e/YWFB3qDCBQIAsjBBdKQ6EYBI+Dz+crLywkhVVVVwWBQEIRjxwOde5IfX3i7vbfzNd/dtv+PEFJTUxMIBAoYJXQNEchHBJCD87HV0OZiQSAcDjc2NhJCLBaLw+Fg3Z6enu7e5/1pa49a+Pvfbe49+zwzMzOBQKCmpgaE2O32cDjMysE0IoAIZBEB5OAsgo+qEQEtBGj4W1FRMTqqMKOqsrLy4Udb93v6n3EOOLZ5730s8s+xzfuMc8Dj7b9vzX/eeOONVIHL5YJgurS0tKOjg+ZjgkEADvqFk+2jJ+1Gj9kdZ0pgEhHIFgI6zk3y+/1utztbhqJeRKAAELDb7YrhL3XN6XQSQlpaWhYWFs6dOzcxMeE/NOo/NDoxMXHu3LnFxUUYP3Y6nbSKIAgtLS0lJSXQre334xEOcWzGW+sZ7hWPuo/9raTH3Mcr5GdqvDXqZcH4k5+tkJrVOjg4NQVYCxFABARBGB0draioIISohb+AktVqLS0t1ehYDgaDFovFarVKUA2FQjabDcjFZrPxHFwqkVB4X7so/1bWt3bF497xaGAcxapAWAs5OH/vXuTg/G07tDxvEHA4HBaLhRDS2Niowa80CNZ2TDEUhip+v7+qqgomWre0tGjLKfCrXfXwRlLZGmffBJcjMTJycAIk+MV8BJCDzcccNRYRAjT8LS8v9/l82p4nDYKhulooTIV3dHSUlpYSQsrLy4t1/EhkYN0kG4+RIxQeHTmmwEYTIDkqdzweaZPKehWu1yEwLo99cYCwnelSZ42KRcDwuhH/n60vCAKMiNPLlYn9AuBf3C9lMxJRwG9GIYAcbBSSKAcRkCLQ0tLCE/5CNc4gGAprhMJQ4FK0bbfbQXsxrl+KUbCEiqQNJPtOObWyPvKpjBFfgpgYV7XCEGyEpuP0KGP8VARGqVKUxHJsZeQjEmnMpghfsrnRMixJCwK1IWprXAKpZ/rnI8UiouupXwlmyJDCDKMQQA42CkmUgwjEEQgGgytWrIBINGn4C9U4g2AonDQUhmLs+iXtbvC46QWRSomCRbpLoKZYJsPCMdkRiornjitpTEUg0OL4uNh/Pt5amcioghAXS9sqliUSN82PF65kvaKBbtwBkYOjzFsZGz2Pm8FIxCQPAsFg0O1280zLQA7mwRPLIAI6EGhvb4dZynV1dTw/QkEQdAXBYErSUJha7Ha7rVYrIaR41i/FGFGBkygqsoRaHciPs1WsnCSKFJkxXi4WWBKZEWoC5SVlNsYypBJE5TJVog2MVTERciIX/eI3Q808zBcEXB+MdwEikAUEaPhbWlrqcrn4LdAVBINYzlCY2kDXL1VUVBT6+iU5wURgoCQTjfXgvzhrqYaS0gsyAoxBLM2X1qMtIb0grUgLqiakElQ5OOZy3Mu4yJiMODvrNyMuDFNSBJCDpYjgd0Qg0wikEP6CSSkEwVCRPxSG8qFQCKoQQmw2G2yQmWlYsiE/xi+SiC7arRsbLxVHRePsFKMrGAiOjgaL/0FZSlZqXCXNT1tgAnLj411draJFsTVXceNlpAx1ZTzLiozZR4VI7WfLYlovAsjBehHD8ohA6giEQqG6ujro7NUV/oLKFIJgqKg3FIZaxbB+SeQ/lanKkZnCkl0tRNpmYuTEZFKuknBY+gJjNyQdvE20JzJ/qitWROaNWBWcpK8PYvHoXykCEvsTyuIXvQggB+tFDMsjAiki4HK5YCHQihUrOEd/WU0pB8EgRG8oTFU7nU66fimF9wYqJzcTIgEqs0/EZikDxXqq1StQR9W4Spov/U4FSBOaBeFiZPoXM4lZZrwsA3TEspWdikmmRK5phtRm/J4EAeTgJADhZUQgfQRo+FtSUtLe3p6awJSDYFCXWigMdQt6/ZLIXZRiJM0jYy0pJUnKx7+qcZU0P22BEZVSoWCGzHhZRsxcDRtk/KysKu43pvQggBysBy0siwjoR4ANf1MeWE0zCAarUw6FoXowGKytrYVdrAtp/VKMY9gFRGwry1lLg6/Yiiq0qECX6QqMR+vSQFZmvIxQRYtVbZDXQA4WQTPiL3KwESiiDERACYFwOAy0l074C4LTDIJBSDqhMPWvENcvxWgmMowa3RdKXHIrjI/TMVY2TBbLJ3T7iptMtdKxVzWukuenKTDSOJRDqfFiL3rCeHC8HG3RWCImQNKXLeay7svtl8rC7/wIIAfzY4UlEQEdCLAnD6Yc/oI+CIIbGxt1qFcpmmYoTKW2tbXByuZCWb9EuVY2nwkyKuPUGgFBJM0obUdnUNN6cbZS4yql/LQERpuFSqiMztiOzdGG3bLiNlGyjm6vWZkQ/FMJcI1utMXsMBLVpGQ/vTMwoRMB5GCdgGFxRCAZAuFwuLGxUfvkwWQyEq5brVaLxZImkYNEQ0JhEFWA65dk+y1HtpeMHKQUjy2ZhpFtrSzdW1mNq9TyUxYoGhV5kaDMCZtmgS6WgyN7QtNjoiJRr1g78jca91MRirtgiywu7fZmxWCaHwHkYH6ssCQikBwBNvwdHR1NXiFZCQiCGxoakhXkvW5UKAz6RkdHYa/NkpKSYj9/ibcFsBwiEEcAOTiOBaYQgTQRcDgcBoa/YIyBQTAINDAUpnA5nc6ysjLY9brw1i9RNzGBCBiOAHKw4ZCiwGJEgJ48aLVaDQl/AUTDg2AQa2woDDLD4TA9/LgYz18qxrsefTYAAeRgA0BEEYWEwOzs7DTz4XGNco/hK3YMD4LBHQiFq6qqeLzTVYZ//dLc3BwD8/TS0pIuRVgYESg2BHScm+T3+4v1PPBiuysKx9+lpaUTgVPevqHdPYOde+L/fH0Dh988trCwoOgqDX/Ly8s5Tx5UlKOYmaEgGHRBKJyhIxl8Pp/G+Utvv3PG139w74E4yJ17Br19A6+/cXRubk4RCsxEBBABHRyMYCEC+YXAzMyMt9//2Pa+763rvXlNwr/bGj0PPOHZ7xk6c3ZS4lRbW5vFYiGEGB7+gqIMBcEgHELhmpoaiVMGfm1ra4NNLun6pbm5uf7BkbYdA7fbE0C+eU3vLWt772/1dO8fCpycMNAGFIUIFAwCyMEF05ToSByBpaWlY8cDrr2DclZgyfi2Rs+zrwwM+Q8vLi4KgkBPHsxE+AvGZTQIBhUZDYVBRSgUgmVahJDNbVu69w/d9ZCHBVaSvmVt75Mv9vcPjszPz8cbCVOIACIgCMjBeBcUIAJvHj3+i+f7JEyg9vXex7wDw4dSPnlQF3wZDYLBEhNCYVA0OjravG790x3uW9ZKw19FqO96yOPpG8YRYl03DBYueASQgwu+iYvOwenp6UsjkYo0oJb5y+d6Vn7nu6WlpRldgWNCEAyNbUIoLAjC/Pz8vt4hTgIG5Ne3ed88erzo7kh0GBFQRwA5WB0bvJKHCCwtLXn6huUDwGrsC/m3rO3teq3n3LlzGfXYhCAY7DcnFB4YPlTv0OqCVsS8c8/g9PR0RnFG4YhA1hEIBoNut5vnMFPk4Kw3FhpgJALHxt/6+Raf4tNfO/OeRzxD/sNGmpIoy7QgGNRmOhR++50zbTsGtCFVvLqyyePxDWGPdOLdgd8KDQFcH1xoLYr+cCLg7Rtc2aQ7OAO26OkdyNykIdOCYAAq06Fw/+CI9jwsRQKGTOergzzxAWeLYzFEIAcRQA7OwUZBkzKOwMzMjGuvvpFgliq2vNR/9uzZTFhpchAMLmQuFF5YWDjgSSUIBrSbNnuOHjuRCZxRJiKQIwggB+dIQ6AZpiJw/vz5F3alzg2Obd6JiYwsYzU5CAbQMxcKp/muk+luf1PvOVSGCCghgByshArmFToC586de8aZOgc/8ITn8JvHDAcpK0EweJGhUDiFmedsf0O9wzMwfMhwnFEgIpA7CCAH505boCXmIZAmB9t/5T1+ImC4uVkJgsGLDIXCyMGG3yQosMAQQA4usAZFd7gQSJMbHn/W984773Bp4i6UxSAYbMxEKDw/P9/Tm3P9DdxtggURgYwjgByccYhRQQ4isLi42Osd0LVrBNtH6to7ODMzY6xfWQyCwZEMhcLpzD/P3Nw3Y9sOpSECKSOAHJwydFgxvxHwHxq99zEvy6yc6Uvbenj7hox1PutBMLiTiVD42Phb//10KjjfsrZ3v2dQ7cQqY/FHaYhAthBADs4W8qg3ywjMzc1179e3gSKQ9DM7dt92220dHR0GOpD1IBh8MTwUDgQCd911187f/ymFpdgtz/WPnzhpIMgoChHIQQSQg3OwUdAkkxAInJx48sV+zvAXijVt9jr/0FVSUkIIsVqthpyTnSNBMIBuVCgcCoUaGhrgbMf77rvvdy59ON/1kKd/cMSk+wDVIALZQwA5OHvYo+YcQEDXLk7fW9d7wDu8uLgIR/IBwaxYscLv96fjSo4EweBC+qFwOBxuaWmB15SqqiqfzycIwqEjx5o28/ZI37K2t3v/0NzcXDqoYl1EIC8QQA7Oi2ZCIzOFwPz8vLff/3B78uMLmzZ7D3iHZ2dnqSnBYLCuro5EP7W1tYFAKquVcioIBtdqa2sJIam9WHR0dJSVlRFCysrKnE4nxWpxcbF/cOTJF/uTzoO76yFP9/6hv5y/QOtiAhEoYASQgwu4cdE1LgSWlpaOHQ+49g7eblc+3XZlk+eZHbtf3b1vcXFRLtHv969YsYIQYrFYGhoa9O5vnFNBMHjn9/sJITU1NXJnNXLcbrfVaiWElJaWtrS0KJYcPxH43a49attH37K298kX+/sHRzACVkQPM4scAR3nJvn9fkPGyYoccXTfTARmZmZ8/Qd39ww+/qzv51u89Q5P02aPY5u3c8+gx9v/jW98w2q1athDGaikpMThcITDYY3C9FIOBsFgW01NDX8ozL6FNDY2aoKH96oAACAASURBVLyFtLS0fP7zn+/s2r33wODmjn7HtgjODzwRwfmlrkFv30DgZEZ2AKWAYwIRyF8EdHBw/jqJlhc5ArOzs++8807g5KmB4UNHj52YmJiAI2ztdjshpL29XRsf2hNbWlqatLAgCDkYBIODnKFwMBi02WzQG19XVxcMBjXwCYfDpdFPOByem5sLBoMTExMDw4cOv3lsYmLiwoULeEyhBnp4CRFADsZ7oHgRYPlDGwV2RpLVanW5XGrlczYIBoO1Q+FLwa7dbtc1K62lpYUQotZNrYYS5iMCiAAggByMd0JRI6CLQtiJ01VVVYrzm3I2CIZm1giFW1paSktLYXWWxksGe7sEg8GSkpLS0lLOXnq2LqYRAURAEATkYLwNihqBcDhcVlZWWlqq3ePKYsROnK6pqWEnTud4EAxeyENhp9MJ0545O9spGrDsGINgCggmEAG9CCAH60UMyxcaAqkR5+joKJAZIaShoQEoPMeDYGg5NhT2+XxVVVWEEF2TzkAOrDnWntRWaPcK+oMI8CEQDAbdbrfGTEYqRgcH47xoihomCgyBlLnT7XZXVFQAh61atQr4OPfBgbeHb37zmzDxir5D6LIcgmB2ubCu6lgYEShgBHB9cAE3LrpmPAIQCttsttRE077cyy677OGHH05NiGm1gsHg6tWrgX0lfen8NgQCAYvFgkEwP2JYsqgQQA4uquZGZw1AQD5KqksosPjHP/5xQkh5eXluRoeXZk7Z7XbYb/Laa6/lXysshwLgyk035dZiDiJgMgLIwSYDjuryHgF2lDQFZyoqKiwWy9jYGF3bQzdVTkFaJqq0t7fDtGfYbzIdf6FuVVVVJuxEmYhAASCAHFwAjYgumI1AyqEwcFJDQwNYzO5xUVNTMzo6arYnifpcLpfifpMp+5tyxUS7Cv9bKBS6tLegPfqx2WyK69mCwWAV30e+Fs6cuvIlA/x65XX9fj+fu1XG1jX5bkMONhlwVFcICKQ8xllTU2OxWCSPDHbitM1mk1w1By943sGu1/L9JlMLhVOrZY6/OaIlGAy2t7fDmwqMu9P/d3Q+dzo0xv7zvr6XXtVOZKuu9/W9rMGnQ2P8Nsvr7uh8TttNejX9uudmJs7NTLw7e3YqfH7fgb3l5eWNjY3yV5lM3DaFxsGTk5N79+51Op2v4CcRAafT2dnZ+Ze//CUTt1ERykxhrq8kCJaARidOWywWu93Os1aBSpienp5gPrC/Jr2qnQgGg3BQEiFEY7/JFCJaCKnNeZBp+5iDV9kRd0JI1b/+y8bHN+zofG5H53PjZw9JmAy/monAY5sdy65ZBgSf/smkSe+9guLg7du3f/7zn7/yyivp+xEmJAh84QtfePjhhxcWFpLeGVhAG4EU1rwqBsESLXTitMbpQ2yVwMkJX99A555BxzYv/de5Z9DbN5j0/AN2M6+kzxq9QS1MPautrWWtxTQg0NbWBiPun/u7zz622XH45KCZHIO6eBDY0fncrSv/HZ6fdXV1ut6Jdd3nhcPBv/nNbyR8g1/VEPjpT3+qeAyfrlsHC8NBDm1tbTxQaAfBEgl0M0jJKbxssbm5OTiR97ZGz81rpKcurmzywDmA8/PzbC1I829qzdbVFQqnvJCa1ViQadj09LpPX2ff2MRDBlgmiwi49r/y1a//M5yHnaEenQLh4MnJyb/5m79RoxzMlyBw9dVXHzt2rCAfcGY6xX+QgyAIPEEwazx7KEJFRYXkMNCTp9/p3j+kdhAvpeS7HvK4e4fPTiYMQOg93IlaxR8Kp7ahGFVUwImLFy8GL5y+64d3YOybRWbVq3rj4xuutlxtsVg6OjoMvzkLhIOff/55Cc3gV20Enn76acNvpiIUyHmQg64gmIVRMnEa3sRDoZDz1cFb1kpjX0q9bOK2Rk/nnkEYIWYPObbb7Skcn8ATCofD4fLycvnUM9av4kwvXVyanDmtlwCwfC4g8MruHdd9+jpCiOE0XCAc/NRTT1HKueyyy372s5+99NJLv8WPiMDOnTsfffTRj33sYxSl5ubm4nwOGus150EOeoNgiZHsxOn/+I//6OkdXNmk0P/MUi+b/t663p7e/u985zvQ+qntNwkm8YTC8F5C119JfCnmr+fefzsX6ARtSA0B7+t7/9fffdZisRi7hrBAOPjpp5+m7HLFFVf09/cX809d0fdTp0598pOfpCitX79esRhm6kUgab9rykGwxBI4NcHxSOuax3pYiuVJ/9cT+3+27r9T3m+StUQ7FNbVP8+KLfh0aO5cao9+rJU7CLyye8fVlqvLy8sNvF0Lk4O7u7sNxKgwRB0+fBi2HgQaRg42sFm15x+lGQSzdoZCoZ1/9PKQrryMq7tvdnaWlZZaWjsU5uycT011ntYKBAKh987nDpGgJekgsPX5zft8u7NyK+b0uUmSOBg5WH6LIAfLMTEqB0Lhuro6uUCjgmCQfPjNYw88oaMXmmXijb/2HX/rpNzCFHLUQuFQKFQa/aQw0pyCGflSxWq1/q+/+1w6z32sm2sIfLCosNwg0zekDg7OtCly+alx8IULF86dO1cki2WRg+W3jYE5arRkYBAsCIKv/+Dtdq6pWCz7QvqOn3v6Bv2GuKwWCsO+JS0tLYZoKQwhHR0dhJC7fnhHrrEI2pMOApMzp82/PwuKg3t7e2+99dbPfvaz11xzzde//vUdO3aYD6jJGpGDMwq4Ii1BpmJ8nJoxfX19cnLlzLk0jcvbN5iaXnkt+TsHbFpSXl6OQTALV1lZ2ac+fd3wmCedJz7WzUEE5hZm2IY2IV04HPz73//+ox/9KJ2dBIl169ZdvHjRBByzpQI5ONPIAy35fD6qSE5U9FJqiXQ4+OY1vX19fanpldeSv3OksHmnXGyB5QBK9zTU5yCFaJm0cxUh5IaNr2mVSdzLOsWSBzOvwhA7lYScnz1j8u1aIBx8/vx52CVOwsGEkAMHDpiMqZnqkIMzjbbkIAc5S6VvQDocbGwcDLuO0HOFU9i5M300cl8C7KQmP0EhRcZSYgIFUQe3bqhbfkPsAbf8hrqt+zkr0mKmcPD+jcsjNt7UpNs8amdWE29PjZscthUIB7/88sty9oWcH/zgB7n/q07ZQuTglKHjr8jGgoYHwbkzHgyAsC8ZcOqD0+nkx6oYSpaXl1/36esUaDJz5HGwKca+N61aXbdq9U3RZ5tenjOYg1/bEDFj1fZEr/dHtZC6rabik2hDOqq3Pr/506WfTn+tcDAYdLvdPPtR6+Bgv98v2Vov0783/jlZ69atU+Pgb33rW5m2M4vykYNNAJ+Ggyw/Gag3R+ZFU4/gPeO3v/0tIaSiooLmY0IQhHA4TAi5deW/p/Og11t3e13k8ZbQjXyw6Yac5GC9ruVa+Wdf/jUhhHO7eI1fRNGtD9Y42uH222/XQCrfLyEHm9OC0P14/fXX035aA/XCLpWck7AkxXb3DBqyPph1B141PvOZz2TCWVZRPqYDgYDpM6Ih4ly+4WDCwcO62cuUOFi3VcaFsIaodu1/hRBit9vTvDmLjoPHx8fZ7aLYmNjwjUDTbBtjqyMHG4unmrRwOPzXf/3XhJDq6mq1Munk+w+N/ucTurfpWPeU982jx9PRq1b3m9/8JiHkm9/8plqBos13u92EkEb7/YY88fmEAAeT1TuTcPD+natugG7qyIjsqg07E+dGKXFwkioRgnxt+8ZV4jg0uSEqFuJy9jEb75RW0nI6NJagiMjGs6O1Ig4e3BrraSfkhrosDCoPj3ngyO007/Ci42BBEB5//PHEeyLybeXKlYW9UBg5OM2fCn91CILXrl3LX4W/ZF9f3yudr+rdL/qVzlczdPLajTfeiBys2HywMvixzQ4++kzCmpxCYhOdyHIprTJBZKy/OsKRWyOsGSXjBNqWsWPyKqEY/ZOblkfGoeui863Iqg07m1bXATEvvyGSv2r1RnGOmEzL6dDY9ljFWGE6th0fS4ZadZGZ26Ar9jKht7+dAYQTW3kxQsiKFSsUW58/sxg5eGlpqbW19Ytf/OJVV131kY985DOf+czatWvn5ub4UcvHksjB5rQadM9+7GMfKykpCQaDxipta2uzWCzf+MY3dnR6+M9N+t2feisqKiwWS3t7u7H2wAZh2BetiCo8W82eFB16LR56ygPc0NjpKIclzoTaujpCaMycKQk7clchCXOwX9seo1vlOVlgScLQNShKYNOYO/FiUCZhzNugHnj9rEwIqaqqUmx9/sxi5GBA5/z58/v27evp6Xn77bf58crfksjB5rQdTFOCvhYDzw4Kh8Mw97isrMzv9+s9P9jn88GSPJvNZuAeGrBR9p49ewghNTU15iCcL1qyxMGReDrSnUv7+m5atZ0ZHo4ytHTAWJqZyMHSq1GukmRKviaGjLwcHBUi60iHmd6UmBVeCMYg+k8I5fUTaqLNXN0SyMHxHyP/vOh4nSJLIQeb0ODsdGjtgxx0GTM6Omq1WoHn6BqGubm5/sGRJ1/sv61RYQfplU2eJ1/s7x8cmZ+PbWwbDAarqqpgArMhATp7YFQmFmLpgigHC7tcrq/9S6Vr/yspPNwNqcIMrNIYVwwZd27dzvzbEO0BjnNYAgfzVJFF0gkUyMnBKsVivdyiCwm2xZgSODgeKydo52LT1ABHDo7/7pCD41iopJCDVYAxMpulIqCo2traNBU4nU448EpxBmbg5ISvb6Bzz6Bjm5f+69wz6O0bDJyckKuGFcwlJSXprx5kXzLYlw+50qLNeXf2bGoPd+NqAbHR1UpAljRGTkiocDBPFUM4WE2I+BIA0TxyMM/PCV63eUoaVUbCwR6PxyjJBSPnxIkT7IRwPLvQ8JaV8xBLyampg5VOJSUlLpdLQ8L09PQE85mentYoTEk9ncMV4IxCtrM9fWc1bM7TSznAwZIBYLVYMzFYTOA5nipq9AliVSQkaBk7HVITklhdWiuiAuNg6Q/EfA5ua2ujb3RXXHFFe3v7KH4SEdi1a9eyZcsoSs3NzdJmw+/pISAnITkr82sIhULwO7JarYFAgL8iT8nR0dHy8nJJ5zZPRSgTDofhjEK2TzsdZ/lV51fJ3OPgMc2BW5GJE3mOowrQpHSYWYzmE0mUdhQnajkd63OWCVEaD5Z0OyMHS38X5nPws88+S9kFEzwIbNy4Udps+D0NBNQYCIhZb8ev3+8vKysjhBg7hYr1LxQKwSSv8vJyvfvtQRAsD6PlbyGsxiJMm83BkS2xEmZgicTGTHSKMp9sl2Y6hzlKwxJ25KgCLKg5L1pGrhItYjibaJvyvGjk4CS/JvM5+MiRI2yQx0NCRV6mt7c3SSviZT0IqNGP5CAHHpGwAMlisaS/DV5SdcCmFouFf4MaGgTL51ervYgkNaNQC2SBg+G5Ji7Sjc2OTtiTGaJSQiLbX6jsKS1lR44qKuuDYV1vjKGjVkXeEiAUlmqJ7PIR3Vk6bpu4PpjZgkOhFvZFy35A5nPwxYsXN2zYUOS0yu/+97//fZNP/JDdIwWVoc097EEO2m6Hw2GbzUYIKSsrY89A1K6V5lW6bIkd3NWQ2djYSAiRB8FQRe1dRENgAV8ym4NDY6cPvrY9fmhSdBcLyR5YEf6LbmhF98mCvaiY9UsKK3eTVgGxjGrYJyveHR3bfIM5KEmJTSWbbUV24ZDYr1QrW33R9zfem/6a+wJZHywIwsLCwtq1az/xiU/wU1ERlvzIRz5y5513vv/++wX84DPfNW3ioQc5yANH1tRAIFBRUQGrHegCJLZA5tLBYBBUV1RUsEO8co3gS1lZmZov8DqS/mxwueq8y/H7/f/ZtNb7+l6Rh8TRVjogiok8R+DM9Ftm3pY5fW4SBWJ4ePjxxx9vamr6GX4YBJqamtavX//LX/7SwFPcKeZFntAOggEcmN6sFjsKguB2uzUWIJmAcDgchni9tLRUIwTnielramosFos2l5vgUdZVZHGPDmR9cxDIXQ7O+t2PBiACpiGgHQSDGRpjqJcK0AVIWT9/t6OjwxL9KL4u0IBeG1t4KeHs2dYWlddXkYPNIcIsakEOzutfKBpfCAjwBMHgp+Jc4lAoBBRutVr1Tk7OEHx02VJtba2kwxnGqnleFDAUFgQBOTiL7GiOauTgDD2FUCwiwIsATxAMssLhcFlZGdtJ6/f7YZGunO141WemnOKbAbxtWK1WHp0YCiMHm8OC2dWCHMzzNMAyiECmEOAPgsECdoNl2utrwgKk1Px3OByEkJKSEgh8+d82QB2GwhgHZ5cgTdCOHJzaswVrIQLGIKCXlgRBgD2W7777bkKI9uwnY0xMTwqdKXbnnXfqPRkJQ2HkYBNYMLsqDDmz4dLB3na7nWcvvPyYF53eMwdrIwK8COgNgkEuPJfhp5sXM4fpsiVCyP79+3nRiZarqqpi+9511S2AwsjB2SVIE7QbwsFwn/BspaeDg83fo6MAfrHoQn4hkEIQ7Ha74RBfQsill9988Xfnzp2wkl7vziFs33u+OGugncjBJrBgdlUgBxv4e0FRiIAOBFIIgmFedElJyeOPP663X1eHZRkoCv3nGzduhGVLugaw2fMNM2BaTotEDs4uQZqgHTlY4Rc4NTU1PDzcgx8lBAYGBqamphRQwyydCOgKguWnI0B17eMIdVqUqeJsLJvCSRJs9UyZmKtykYNNYMHsqkAOlv74du7cef31119xxRVFuAklp8vXX3/91q1bpcDhdz0I6AqC2eW2dAfKFA5y0GOgkWUlgSy7bIlnFgmdhpYXg99GAofrg/N8H0oedkcOTvjJPPPMM5dddhknFRV5sdbW1gTs8IseBPiDYKfTCTtQyred4tn0UY9RGSkLkZx8xyu6sRdPKF+0oTDGwTw0ltdlkIPjz53p6enPfOYzRc6s/O5/9KMfPXjwYBw+THEjwB8E0+2XFWc8wr6P5eXlkr2ouA3JeEHYX7OkpEQxhHW5XPwbXEuC6YybnhsKXC7X1/6l0rX/lWzSzMGtG+JnGS2/oW7r/iIIT00DHDk4/lPr7OzkZyAsSQh5+OGH4/BhihsBniA4FArB0gDtY4iSHuTAbVRGCipurslqCgQCVqsV5pfRbna2AE0XbSichbMLWYo92CSev6tyTnDsvF7xQF+2boppOADYQIE5fdgUcjD9jQubN2+mzHr55Zf/+Mc/fuqpp57Aj4jAU0891dTU9LGPfYyi1NzcHIcPU3wI8ATB7HG82jGu9kEOfBZlqhSnbeFwuK6uDg481l5tVZyhcHY5eHukZcgNG1+Lx4UHm264qYkJhQ2nTMMFIgfHf+M5vT746aefpuxyxRVXaBy+FneoyFKBQOCTn/wkRWn9+vVFBoAB7iYNgtva2mABT0dHB48+iDUdDgdPYTPLwEaV8mFsRRt4vC7OUDirHAx0uHzDQQ0aM5wyDReoYXz2L2EcHH8gSDi4u7s7fg1TUQQOHz4MA3hAw8jBeu8L7SA4HA7X1tYSQsrLy7UjQlav/CAH9mq20jBWXVpaqh3Hs+b5fL6ysjJCiM1mU6tVhKFwDnAwWb1TmasgSqYv5dGE2Ie8cxUhkYr7d66C3uwbNm6NBdMHX9seH2AmN9TFo2otgdGe7Yi0m0SFN63asJMJ0ENjpw9uXX3TcvEy/Rt5h1AI6CMCt66OlBJtTrHzXBmceM+Bpljk4PhDADk4joVKCjlYBRjebI0gmH9kVK4sBwPE1OZsJx0Fz0FP5c1hbE5WOXhs/0agtOVStosxYtPqOqDY5TfURQeMN4oztoCD6yJMfMNNq1bXLY9xsDjADOVjhCp2bu/fqS4wJPJohHq3bt8YI2Pm/QAIdfnqjVu372xaHaXqqOqm7aGx01F7iKgoRpCQWSe+HGiSJSen6i2GHBz/vaTGwe+999709HRcSkGnkIPTaV6NIJguQEq5SzmnAkQIgjnPKJRD2tjYCMdRKM4GzylP5cYbnpNdDj4dei0em8rjzghpqXQdA71JxpJDEVJPnFkt7+7WFJjAlwlRLLwuSCk5TrpyRTFSZ6qkFdHqZV8of3/jve3t7WneNrCGTfH3IpGcT+PBSfuijxw5cuedd/5j9FNVVbV9+3aJt4X3FTmYp03n5+fPnj07MTEx5D/8+htHJyYmzp8/v7i4qBYE05WyPD8hNQMgQKypqVErYGZ+akEwayF9KZEPJ9NQeHFx8dy5cxMTE6+/cdR/aHRiYuLs2bMLCwusnHxP+/3+/2xa6319b2rPd6Nq0f7kSMftTau2JwwPa1JmnAJV6U3GncoCo68C0pFpJlNeS5oDipj5ZQkUbhRWeuXk7tmFfr8/nUdSCr89XXHwvn37rr32WjrgAIkHH3wwBb15VAU5WLuxFhYWhvyHe3oHtrzU79jmvecRz/2tHsc27wu7Bnq9/T++d813vvMdVkIoFFqxYgUhpKKignPHKLa6JK3G8ZJimf7q9/stFkvKQTA1b3R0VG3Z0o033tjYZPd4+59xDji2ee9v9dz7mNexzbvlpf4DnoFDR44tLi5SOXmdyKk9OpixWHYAVUp1MRKKxsEM4Uk4+LX9B7du3xn5t6Eu0t3NBKOKAiFzeaQXmvnH1JXXkuVANzh9LciBjujTobHc5WDzfzn8HHzu3Ll/+Id/kBAwIeSqq67at2+f+ZabphE5WAPqUCjU4x2+5xHPzWt6Ff/9d5t734H+2dlZEJLCzska2gVB0Ojr1q5o7FV4FTBkWQE7SW10dBTsnJmZ2bPPs+6XbkWQb17T27TZe8A7rL3a2FiXMyctpzg4Sq5AbOxqJRnVwaiqKgdHJmTJH57JOBhiVnm9SA7UlcXT0SqUcePd5rFgGvrYGb2StwSTviIHx38+/By8bds25XuBkO9///txiQWXQg5Wa9I33hx3vjq4skmVgIEwbrf3vrpvaOLts3QpTvpDQaxJwH9Op5PNNDOdifeAlpYWi8VSUlLS0dFx8vQ7XXuHbrcrv+VQVl7Z5HG+Onj8rdNm+p4JXR0dHYSQxzY79PZwZrC8NHzUx8HAfOyQsIw7FQUqZibSZGy2V8KcLAnFMt3RcoZOlGbW/Kzge4FM3DlqMnWMB6uJyFw+Pwdv2LBBjYO//e1vZ87CrEtGDlZsgsDJibYdA5QAtBO3rO3duavnK1/5SllZGf8CJEW98sysH+SQof5w2LTkK1/5ys7O/besTULAFP8Xdg2cOTspRymPctxuNyGk0X5/BjlVL9mkxcEKQ7B8HAzzp6TjwQwsMZJeTYNs5RlkIvWqhulmM/G5mQkzb8gC4eAnn3xSjYOrq6vNBNRkXcjBcsBnZ2df3TfETww3r+n93rreV/64+91335VLSz8n/flQKdsAhJGheWFnzpz5o6s7aU8DJeCb1/TesrZ3X+/Q/Px8yh5lvWIgECCE3PXDOxiyMZEkIltiKc7Akg/fythRmeTkHAzcyStQurgo9Nr22GqoqGRmqbEaYjCNK7omSmaz3tcRI8q/O3vWzNusQDj4jTfeuOaaaxRpeNu2bWYCarIu5GAJ4EtLS95+f9KuUZYYIN202XvoyDGJNEO+wrqgsrIytW0uDNGiKARWDRke3IMu/6HRB57wyZHUzrnrIU//4IiitXmRGQqFCCG3rvx3NUbJbL64lpfctHx1ZPnv8tje0QkLhMQ1xNEyEc4GZlLmYFpYXOMrPkbZTmOIjEFpXGBsERQhRFyLDJt1iCO+CZO3I2KX33BTpF+a2VYz+voCcXxkgnd8b5DMwqhO1c++/GtCSPoDUpd+dHa7nWdepw4OzvF50Y888oh488T/3nrrrXNzc3nx207NSORgCW5vv3OGvxdawha7ewbp/CyJ2DS/6tokMk1dtDpdMkRzDExMT0937hmUAMj59RnnwLlz5ww0xmRRZWVl1336umyRxOnEPa0ivCjZmipCMK/B/OTIo5ASmwoHRxYcb4ztnBVl0637oyVZDlYWGFVEt+aIPnajS41jC6Vi8XR0U47obiEqbwzi3ljstDITuxYS+fiehnpCSPorgIp0ffAvfvGLL3zhC8DAFovlzjvvfO+990z+fZqsDjlYAvjA8KF6R5J5WGpU8Ui77+SpjEwa4jwsQeJLml8zunXG0WMnmjaniPM9j3iG/IfT9C6L1WHHkld278gaDSfSRo6aAdFtYoCusn8IsHVOdER/6ctfLC0tTf/uKlIOFgQhGAz+8Y9/dLlcJ06cSB/H3JeAHCxpo76+PjWKTZpf7/AMDB+SCDTqKxzkYLfbjRKoLSejQbAgCL7+gyl0+EMT3LK219fXr21/Ll+FUfZ7GupzlPxyhKGVw2758PPYackq4ezZ7x5wEULq6urSv/2Kl4PTxy6/JCAHs+01Pz/f08s7HVpOyd9b1+vtG2IFGpgOh8Pl5eUWiyUYDBooVlEUhN0Z1eXtS77uS44wzfH19S8tLSkanxeZpaWl1336uvGzh5CG1REAul1+Q10T7OOxQWFD6Uifc44sCz4dGrvrh3cQQlwuV/o3IXJw+hjmhwTkYLad5ubm9h5IcZASZkdnjoMFQch0bEqhgJhbvqkkLZB+Ip3+hpvX9Pb0DuT17GhAOLdWKGUvfFSl4YORLbdis8YiY4TLo5O6Ew9WyoGDksD+4THP1Zar099ODn5chcnBvb296T87CkzC8ePH8fxg2qYLCwsHPKnHwbfbe339B6m0TCRgjJZntmTK2s0Ze/b2DV3qNqBxrd5EX19fyg7mQsVwOGy1Wq+2XI2hsCoB5+A7gaZJ/++/f9uoIFgQhALh4La2NphgRQi54oorfvOb3xw9evQwfkQERkdH//CHPyxbtoyi9LOf/SwXnlBZtMHX169rZTBLHibMFXK5IgNOGVqwC7CbEAQLgtA36L/j5ynOybqt0ePrG8jiTWKIap/PN/z6QMEwUJE7svX5zcb+MAuEg5955hnKLpdddtknPvGJa6+9tgQ/IgLXXnvtsmXLLr/8corSQw89ZMjzJX+F+A+NdiNrcAAAFfNJREFU3vuYl2VW/vTmjn4TBmsztHEVNFkwGCwpKSktLc30WuSTp04/0q57cTC0xQNPeA6/mZGl2ObftxfmJoucvQrAffeAa9k1y0pKSgzsoCoQDj569OhVV11FCQYT2ghcdtllBw4cMP8xlFMaL1y48FJXKkPCt6zt7d7nNeGgPdjAecWKFZnADfbk6ujoyIRwVubc3Jxrjze1LofOPYMFc8L3xYsXz81MFAAPFa0Lh08OfunLXzSwFxp+JgXCwZfu73vuuUebePAqRaC6uvrDDz9kH5TFmR4eefP+Vt0h2sNb3XXf/4HVajVkVqQ28hk6yAE25DJqUomGC26322q1/scPf/w/v9rL380AJTO3H5mGwRm9tHRx6ex7J4uWw/La8eExDxCw4RMYC4SDBUF4//3377rrLra7lVIOJlgEVqxYYUI/akafZUYJX1hY6PEO69rHuN7h8Q34GxoaLBYLIaSqqipD+zuCjxkiSxM2ph4dHYXzlQkhDQ0NHt/wXQ/pGBX+3rpeT99wXq9KUrxLL168eH72zGObHThFK78o+cz0W7fedqvhBFw4c7Lo7d7d3f3ggw/eix8lBP7rv/5r586dFy9epHBhIhQK7Xpt4LZGLnq43d7r7h2GpTKBQKC2thZebmpraw0cH5I0iuF8mekDmoLBoM1mA2RqamoAmciCbA/vBOnbGj1/dg/OzMxIoCiMrxD3/D/X/+OzL/86v3ioaK099/7bSxcztUi9cOLgwvh9ohfmI3B28i/7PUNJ962MHC/v80u2ifb7/VVVVYQQi8XS0NCQicPnIRQ2cPIU9G9noiP90vQuu90OPQQVFRWSrXRnZmZ6fQebNieZB3fPI579nqGCGQaW38/hcLixsRFQ+urX/xmZOJep/ex7J+c/nJU3ooE5yMEGgomi8hWBhYWFgeFDT77Yr7iS9Y6fR06VP3Tk2OLioqKHLpfLarUSQkpKShwOh+EzjQ08yAHmeWViyVNbW1tpaSkhpKyszOl0KgK1uLh46Mix37mGFFcr3W7vffaVgSH/YRPmuymaZ2ZmMBisq6uD3oJPffq6796+cuvzm3Fn6ezysff1vTs6n7vvgR/9/T988dHW//v+B1Nm3hJJdek4NympLCyACOQgAoGTE96+ob0HBjv3DD7+rG/LS/2dewYPeAb6Bv08AW57e3tZWRkhpLS0NP0TzVh8DNxMIxPrnZxOZ3l5OTjOM2B27i/v9g36e3oHOvcMbnmpf3NHBOe9BwZ9/QfPnJ1kHS/49KWOervdDuhZLFez8zbU0l/9+j/Lieq+B36kVp7NV6z73dtXsmXU0vlY97u3r5RjxeMvvEzn2u2HHJxrLYL2ZASBubm56enpd9555+zZs9PT07pisnA43NLSUlJSQggxduJ0bMvDxsZ0fDY8CGa74hsbG3neVKj98/Pz09PTZ8+eDQaD09PThX1yKPVaLREIBC6tE7Pb7bW1tVWan4aGBrmQ9vZ2zUqxi4p1HQ5HodZ1OBxyrDT8vXRQit1uV+vFkYsyOQc52GTAUV2+IhAKheiAn1ETpw05yAE6zA2ZyM1OSaurq8OZ9vl6s6Ld+YMAcnD+tBVamgMIsAN+dHpwOnaleZBDmtWp5aFQiC7NWrFihSGMToVjAhFABNQQQA5WQwbzEQFVBPx+P7tMNs14EQ5yGB0dVdWnfgHqpmOApKddMu1ZXTNeQQQQAQMQQA42AEQUUZwIwHZRMHHabrenPHE65YMc0g+COzo6MjTjrDhvCfQaEQAELvUk2e12ng0GdHCw3+/P1jvyhx9+eGmDnr6+vp6engP4YRDYt2/f4cOHcYtKuO+z8j9LY21tbanZkMLE5jTHktkXiEysvEoNB6yFCBQGAgW1Pnj37t3f+ta3/uqv/urqq6++8sorr8IPg8CVV1758Y9//Gtf+9qzzz5bGPdunnrR0tIC62jLy8tTmIGZwkEOMKdacY6oNoajo6NA+ZnbgUTbALyKCBQ8AoXDwZ2dnXh0ktraPkn+1q1bC/7OzmUHL63hoftJVVVV+Xw+XdYCL3Lyd2prixX3m9RlJBZGBBABHgQKhIPPnj0Lg1USssGvighcc801J06c4Lk/sEzmEEiZ53Qd5ABBMM/WGeApu99kCu8HmYMLJSMCBYlAgXDwzp07FckGM9UQ2Lx5c0He0HnnFO3vhfOFOOctc57+GwqFSqMfzllgdL/J1PrJ8w58NBgRyDoCBcLBv/rVryjZXH755Xfffff/xU8iAvfdd99HP/pRilJzc3PWbz40gCLgdrsrKir4J05zHuQAVM0z/0vvfpPUckwgAohAOggUCAc//fTTlF2uuOKK4eHhdEApyLpnzpz55Cc/SVFav359QbqZ1045nU66/icpcdKDHObm5k6eOj0wfIj+e/2No+fPnz9z5ozFYrFardqYsPtN2u12XftNakvGq4gAIpAUgcLk4O7u7qSeF1uBw4cPwz7GQMPIwTl7A3B2CIfD4b//+79/+NHWvfsHH2n31Ts89N/9rZ4Xdg3s7t5fUVGhMXWL3W/SZrNxdoPnLG5ZMey9hXf7J3c9f2z9oyOrm/r/lf779eiaP5166vTMm1mxCpXmEQLIwXnUWGmZihycFnzmVoaJUfDOpDYxamZm5s+79/+0tefmNb2K/1Y2eZ57ee/o2FtLS9Ljx9kdrVesWJHaxlvmQpJz2t5bePfltx6hpKuWeHRk9ZELvTlnPRqUMwggB+dMU2TYEOTgDANsvPhgMAgDuoQQyY7TJ0+/49o7qHjasYSPN27r8/b76cnHuN+kIe3UG3x5/eC/qfGuPL/tyI/eW3jXENUopMAQQA4usAZVdQc5WBWa3L4QCARgQTAhBHqMZ2ZmXHsHJVyr8fWeRzxD/sOCINCNusrKyi6dlJfbfueodR8uffBKoFXOsklzHAe/e2b2eI56hWZlDwHk4Oxhb65m5GBz8TZYm8/nq6qqIoQsW7bs1T09PBEwy8pbdvrW3P9TmHfd0tLCuVTJYB8KQtzzx9YnpVu1Ag8O3YY0XBB3gZFOIAcbiWYuy0IOzuXW4bTN6XQ+/ovNGmPALO+y6VvW9r78h93r1q3Dac+cUCsW2/fOi2r8ypn/6Mhq7JRWxLZoM10uF+cp4zrObIAXdjMxlaxNwnnRcvCRg+WY5F3O/Px8T+8AS6786Qee8Bx+81jeuZw7Bp+ZPc5JtNrFnj+GywJzp1XzyRIdHGy+W8jBSTFHDk4KUe4XOD3x9i+e7+PnXbbkbY0ej29APkc6973OEQufOdqoTa7Rq9blsPjv/1g1CuOapRxp0/wyAzk4v9pLai1ysBSRPPz++htH72/1sMyqK733wODc3Fwe+p19k8emBjQ4lV6y3VcS2wZHk4PbjvwoiUvjrfWVMUmV9a1d44LQ1do6nrSSWIfUdyUpm9blrvqYbZI/lZUxY9OSnmrl8fGu+kqKQMS0rJqTqhvq9ZCD1bHJhyvIwfnQSklsHBg+VO9InYM79wxOT08n0YGXlRDgWQrc1B8Jgj9335cjobAmBzf1/+uF+aCSnmgeUFx9hHkFQRiP8XFlUg4WhPHWGAcZwcHjrfVaKrvoWwIoG+8SlRMeUxO9T6IrsbDSN2pNfet4HDd4R6g0Ag0lpSbnIQebDLjB6pCDDQY0G+KQg7OBekSn4+B3abCrllj1fwi5/su2KBMn5eD+yV0qvgCPSmisq56P2MQINX3WiZghMSLRYMr3TNCtlJdYS/FbUl2KteKZotcyg6k9mp7EBeV2Cjk4t9snmXXIwckQyoPr/kOj9z7m1dX/zBbe3TM4OzubB37mmInn5k6p8W48/3df/hwhy1v/FaLhpBz82+P/o+JljFAkLMoZKIpsJKmtoko1OxZVajIX5TeGgwVBNIAk5KoqEiI1orG7pi6t+toqqT2py9dUbuZF5GAz0TZeF3Kw8ZiaLvH4iYD9V6lzsMc3QDfMMt32PFb41vRInGuZTaHZTDEI5uXgX4+uUUGEcluSsdXI6GdsPLZS7LemfCTlYMXCkb7ruIzK6LAz058tDvaqsBe1M4Ft47lsNjtSW1nZSgermdKxbmPa+61WRYYaZVlZFBwpGtdQmThWXN8VrxgZOm4dp+CBw/HLla1dIk5KWChgG9caERwroFRXEAS/32+32wOBgMwzaYYODvb7/W63Wyogk99xXnRSdJGDk0KU+wWmp6c79+jYIYsNgusdnoHhQ7nvYw5aOHzuzyzdKqRbP0tIyf/+HZzZEJ0anWw8+NGR1aqexp/+EWJSpOIY/0a5Fx74wLpi1QQOVilMs2n0KrKEKEX8rmhpnGckyqTcHZUGohQEK2TF7FGtkmBO3AyW9ONFRPkRmo3TbsxksbLoaOSdhL4FUE6OErS0aEwDBXFc5HsQLRYn9fVdXeNgRAJO1ELco4NCUeAJ5ODCaGBf/8Hb7cqHNLCMK0+/sGvg/PnzhQGCyV4k4+Cv/u/r2UlYaXNwQvgWY7R4qBvtvo3minQBz/voN5FxmMd9LEtaWJxBBSWBSsRwWpQi1lHEm7JMIveJdYnYG83qp3Xi9onlWV1JqiSYI9an+hKu0teLWKhLeRUMoPaAdkmHvyg6epEWjZtOhYu2Q5nE4oBORJRYSmJgYXLwgQMHJH7i1/HxcTw/uABug9nZ2Vf3Dd2yVh8NP/CEz39otADcz4oLSRYmJQTBvH3RyZcnCeO0BxR4mD7DRToQ2SD2PXJdpA3xkhiciYQY/y5yezzsi2MrSqEa45fiKdGKuOjoNbEu5Rx2WjetE7dPLM/qSlIlbkPi20pcKFNClC/aI36PFB5vpaFxRL2EgimYUdMUTKcd3aJipiFocdYvxqx4MiMcXFtbSwgxc0/atra22C1FyOWXX75jx45gMPgOfkQEzpw5s3fv3mXLllGU1q1bF78LMJVXCAROTjz5Yr880lXLWdnkOeAdxpHglBtZe05WZCRY5fO5+76q0HEdHVHWmpMlPtKjBjNLfsSAU6QRqdb6LkobcRFqhWOVFSlCrKN4UYSRsoxoFlwQ60qoGRbv0jFZuX1yXapVRAukCuUi2FcO8apoYH1XV2tkZDr2PTrom/hCIpaM1qTuxk0Xq0rbIQKIUvFEu8VvQF48o7c6xoPhwDWeQWbRjHT/vvDCCywOn/rUp774xS9+Hj8iAl/4whf+9m//9vLLL6corV+PG+ale9dlsX7/4EjTZq7JWSubPH/qxmXBabXVh0sfPDh0mxqbyvK5+qL3vfOiik1d9YmkxsR6scd/AjckShEvxYlCzBEpKFZekyNU6iSqohISzBWrshQcC2uVmUmskGifZpVEO+J0l2BIrJAonukJFrPEyWHid6YIVBYvJOXgRNujlSk68ZaQmC1+tdvthJBLM7PEDNW/OjjY4XAQQniIXVWbzgtvvPHGlVdeSQkGE0kR2LVLbXmiTuixeDYQWFxcPHTkmPPVwZVNWlt2NG32HvAO474c6TfRb4//j4xrYQaW/H8uDj43d0rFquiTX/Lkhic6fdQnkENMTKRflQZ1LBupFK4X97qSqIqIU6ois5ayjJKyeJ5YTI3IFHQlq6JuCkWIghKbOp5wQVQpeh77nlBGBoNoVNwzFaCgIRSLywyPZNTV1RFCgkH1PVvEajo4GDq4zTygdGlpyWazJSUeLAAI3HrrrWaOFIi3EP41GIFQKNTjHbb/yis/yvDex7wv7Bo4dOQYdkEbAvrr5/cayMFPvlGvbpXICLBFZSQKhulTLEXQJ7w4VQse/PGQkKewSEUEpmKNd9WL+2JR8dHQVcyVmBybERyfC0V7zSvZGqyWyJZf8AgS6Y/pLI7rSlZFYkj0q2iyCAiFLTqxXLLLJyiI2xD9zkIGGkQ7oldEBQkczAAem88Wa4j4hbgWJbMFQVixYgUhXPTKVQi0jI6OwnnjKkozkv2Xv/yluroaWTYpAt/+9rcnJycz0gYo1HQEFhYWjp8IePuGfH39nXsGO/cM7j0w2NfX5z80irOgjW2NJ9+o56ZheXCckHPkQq+6bV31sOKI2fxYaXkSuyo1RjyUJiIPgQRKUSgcMUAlO9r7HVs4HOc0xmKRnKQPG9ifWUJ4MasSbWRpOtbvHCFLcXtO2PVSvQpjC5OMTmIT10xHIKiMSJCYEy0fcYAlR6VtyFgnK+vpOur4O0dMsxKICS2RoIkxN5IMh8MlJSUVFRWSfMWvOjhYEITy8vLS0lJFQZnLXFhYePnll3/yk5/84Ac/qMdPIgJ33333T37ykx07dnzwwQeZawKUnC0ElpaWpqMfPJUhQ01w5EKvIRysGQRnyHYUm6MIuFwuQojD4eCxTx8HNzY2mjwkzOMDlkEEEAFEIGUEXgm0pknDDw7dpj4SnLJdWDFfEYDB4NFRrnWD+jjY7/cTQmpqavIVG7QbEUAEEIFEBD5c+qDtyI/SoeGxqYFEkfiteBEIBoMWi8VqtXJCoI+DBUGoqanhnHLNaQEWQwQQAUQguwi8t/Dur0fXpEDD6wf/7fXze7NrPGrPKQRgEa/T6eS0SjcHQyhcVVXFqQCLIQKIACKQFwj86dRTumj40ZHVZ2aP54VraKRpCLjdbpvNxq9ONwcLgtDQ0NDe3s6vA0siAogAIpAXCJyZPc4TED84dFtv8OUPl3AiZF60ak4bmQoH57RDaBwigAggAukhcHrmzVcnft1y6E5JWLx+8N9+e/x/hs/9Obw4k54GrI0IxBBADsZbARFABBABVQTeW3j3remR0zNvqpbAC4hAGgggB6cBHlZFBBABRAARKHoE0tmg0BgONvMgh6JvbgQAEUAEEAFEICcQCIfDtbW16azXNYCDnU4nIaS2thaZOCduCjQCEUAEEAFEIPMIOJ3O8vJy2DMj5VDYAA4OBAKwP7XFYmloaEAmznzTowZEABFABBCBrCHgcrmqqqoIIRaLxW63p2OHARwM6t1ut9Vqhd2+rVarw+Fwu92cm3Wl4wDWRQQQAUQAEUAEMo2Az+dzOp11dXWlpaXAdDabjed0Qm3DDONgUONyuaiJFotFegCH0nfFl4iysjKlstK8dOoqLnHm1KtYV2qcyvd8rKt4aLSKf9Jsed1AICAtpPI9H+vK+4H4/ZXXdbvdKthIs/OxrvzZxO+vvC4crirFRel7VuqWlZWlrNfwunDCvBI2CXmKek2oq7gHFKdexbqwgXOCb0pfOOuWl5fb7Xb5L07evjw5BnMwVenz+VpaWux2e1WyjyIn1dbWJqsXuZ5OXZfLRa2lCU69inV5DK6qqsrHun6/n0JEE5z+yusGg8ECrit/L+b3V17X7/dXVVV96UtfuvHGG7VBU6urXQuuZqsuvZdoAvzlsZlWoQnoHszZurW1tdRUmuC02fC67e3tPEAp6jWhbkNDA4WIJjj1KtZ1OBw8/mrUvQSF3W53OByGd+5mioMpcJhABBCBdBAIh8OlpaXpTLxMRzvWRQQQgYwigBycUXhROCKQLgItLS3QbSbvUUhXNNZHBBCBbCPw/wOJZ38xl2AA4gAAAABJRU5ErkJggg==;" parent="1" vertex="1">
          <mxGeometry x="-140" y="-430" width="641" height="245" as="geometry" />
        </mxCell>
        <mxCell id="_ww6I5lQIW8gpJn7JbcI-8" value="" style="rounded=1;whiteSpace=wrap;html=1;dashed=1;dashPattern=8 8;strokeWidth=2;strokeColor=#3333FF;" parent="1" vertex="1">
          <mxGeometry x="-360" y="80" width="1110" height="410" as="geometry" />
        </mxCell>
        <mxCell id="_ww6I5lQIW8gpJn7JbcI-9" value="" style="shape=image;verticalLabelPosition=bottom;labelBackgroundColor=default;verticalAlign=top;aspect=fixed;imageAspect=0;image=data:image/png,iVBORw0KGgoAAAANSUhEUgAAAL0AAAEHCAIAAAB0k9DAAAAbVUlEQVR4Ae2db2gcR5bAC/LB+rKs4Y6L2ITFn3L+EqEQTjgD3hV4syiQYK2zOZuY20gXmBXBcIr9xfaBZzF3J5MEZrw5IgLmFEOw94N2HXLn8frI3hjOxKu11lL+OEoyQbOO4hvWrKVYynpkW946V1fXn66qrq6e6Rn1eJ4RSXXVqz/93q9fva7u6kEY/oEG4msAxa9y/9RYWlq6f06mtWfS0dx0d3ePjIy0VuH3SW8dzQ1CaGho6D6xZGtPA7gBbuohDrgBboCbmBqAeSqmwoQ4+BvwN4IG9xRwA9y40yIkgRvgRtDgngJugBt3WoQkcAPcCBrcU8ANcONOi5AEboAbQYN7CrgBbtxpEZLADXAjaHBPATfAjTstQhK4AW4EDe4p4Aa4cadFSAI3wI2gwT0F3AA37rQISeAGuBE0uKeAG+DGnRYhCdwAN4IG9xRwA9y40yIkgRvgRtDgngJugBt3WoQkcAPcCBrcU8ANcONOi5AEboAbQYN7CrgBbtxpEZJtxs2du7cuL55/p1J4/aPswalt/C//4fDk/Csf/Ol/7ty9JU4uKgX77qI0FFreNtzcuXvr3NUTh6e3c1aMicPT29/76rgjPcBNKBdRBe3BzZcrn4xdes4IijFz7NJzn339u6hzx8BNpIrCBNqAm99f+/Whi08Z+bBnTv3x3bDTpvnAjV0/ltK0c/P7a7+2w2EvPV+dtJ08fP/Goh1rUaq5mb8xW5+nkWGyTFjgb6xs2ArTy82du7dixTQyK3L68PT25dvXjToAboxqcclMLzfnrp6QzW9KP/Hkowgh9FhB3JCbxLadvvKGURfAjVEtLpkp5aa2tmKfoUZe3kiQ8f5FcnPo4lNGlxPJTTHL+lD/n8lkssWyi4Y1mXIhw1vLFrXi9shIKTcR4XDhIYTQwy8/cdBLRHJzcGqb8d4qkhvPhsUsszO1cllkoDrtztGps76JrXIhW6gPZFNrUXkp5eYXX/yLccZRM525eevT/boq3LjhRhaUiKxMfbZijiwxbsiI6hyLrheHnJRy4xoRO3Nz6OJTujbq5gYzuyPBkt68JYfVT4Yb3wECN1j1K9KjqECRMzcHp7bpIU7d3Ah/Qw3PMEDkmheFClTlgj/jZQoFP3BSuSFzIJsVeRAUgFOaJb0IS+qNVmgNPWn0N4ur1QAcYdBMbXOPbw5Obfu/P3+heID6uOGWy0gBBSPHsxq3pYQFyyNZZSYdBIuJ0DZ8mYzUBvYdixeRU2lSylprDTFUhx3EzZcrnzTIjeQBMtlC4HYqYDsGgIQFK/cpUA69cSm1lEPM+WB4UIFMgVPICpSzbMphGrm5c/dWM/xNw/OUsAu3Kc9iIHgZvJj7CpbD5Jk4F8AYR8mwclbHPxaTHmu8KaAojaaRG4xx4nHxwaltyplj7Pg8nNlLvl/heSyTgdAAN0FwmBcRMLAuJK/nJbNZP1gSovqpJp2TUm7e+nS/k8txjouPze3VVRczvpHtIoxIL392HMENm7mYOPMdbGzlIoudEULK0iKrIw/DqxdawFptwv9Tys3UH99NlptzV0/o2qufG2Yq7waKNMwyQrjh5T4oTFzhhtxxhS8IsUqySLlQKJry9ZNNNiel3CyuVm3PGTw3o/pr9NDO8Duvazev6Ipz40YsD/tWZlMIcQnM8GziIjZl6eD9s/90gVSQGmDzHBmcqCedmnzTxgXYMw5CjVQvW8StWjVOKTcY49NX3nByOeGs8Opvf35Ih8YlvmFXsmRHP0meTwXvqJhRSb54AsW4IlgwAOktUCZLGpCfDIT2JjkY3khgGhMrQ/U+NDPqx5KZXm6Wb1+3uRwHXCg3hy4+tbhaNarAzd8YqzYns8zWAxVQJfqa03HsVtPLDcY44ummGzqWV/5Sxg3xN5Jr8WzpeTE1M7aVk6+Qam4wxmcXjvHppo7EO5WCRWfp4oZOdNIaNMZlzwGlz9tgnHZuGgl07NC4xDcW5ppR5N2Fy8+ntCCqGb3W1WYbcIMxdr0tl2Yuy/TEFZUuf8OH1Q6J9uAGY7y4WnV8Keftzw8Z77p1cwA3uk4cc9qGG3o+125eOXf1hLLJl8Y9+Q+Hzy4ccySGtgbcOFKii7UZN/IJXLt5Zf7G7PyNWf0FCVnMkgZuLMqxF7UxN/YTcykFbly0ZJQBbuA7JkYwIjKBG+AmAhFjMXAD3BjBiMgEboCbCESMxcANcGMEIyITuAFuIhAxFgM3wI0RjIhM4Aa4iUDEWAzcADdGMCIygRvgJgIRYzFwA9wYwYjIBG6AmwhEjMXADXBjBCMiE7gBbiIQMRYDN8CNEYyITOAGuIlAxFgM3AA3RjAiMoEb4CYCEWMxcAPcGMGIyARugJsIRIzFwA1wYwQjIhO4AW4iEDEWAzfAjRGMiEzgBriJQMRYDNwAN0YwIjKBG+AmAhFjMXAD3BjBiMgEboCbCESMxcANcGMEIyITuAFuIhAxFncWN0tLS7IW9O+YKAKyMKRlDXQWN6OjowMDAxMTExcuXODfhazVaqVSKZ/Pb968+dSpU7J2IB2mgc7iplqtdnV1KR+V5oe9vb1haoJ8RQOdxQ3GeHR0lIOiJMDZKHBYDjuOmzCXA87GQole1HHchLkccDY6HJacTuRGdzngbCyIGIs6kRvd5YCzMcJhyexQbmSXA87GwkdYUYdyI7sccDZhcFjyO5cb6nLA2VjgsBQlyU21Wi15//L5vL5gfy8n5/Yv2bqVSiWs2y1btuzcuZOX6v1a6vJaNNFIXd087v3qdVuT0yg3lUplfHy8v79fWUOrfPZbvHpV/qt89ltFJuww2bql/54M60jJ1/ttTV1ZSzTt3q9Ut4rXlvHa8tzcXC6Xu/ffpgJUPzelUonj0tW1oX/r46MvPZ87kM0f2Vs6/Wbt2vt4eVr+q117v3T6TZe/ZOsuLZRcOjWOuTV1ZS3RtHu/et3cgZ/S62HTpk0TExNNoqcebubm5gYHB+nghnY/c+rEa7ql9fOBnJZp4Myvfj7y4rMbv/0thFBvb++ZM2cSpyc2NxMTE/TR4ODT/ZWP322ZLqCjuBpYWijt3zvU1bUBITQyMlKr1RKkJzY3F/737OZHNpVOvxn3NEB+XTRQ+fjdLX/3KEJoy5Yt1ar597Dr4CkmN6sL63Ly0GkjGqhde3/kxWcRQps2bbp3p1YHJXqVONwANMFIvxFbtr7ueP4A9TqJTFjO3Nz+U+tPFXpMVgNjP9tDYx3df8TNceNm7Ru8fCnZc4DW1kUDQ7ufGf/31+JSostHczM4ODi65yfrcpLQaVM0sPIBxnd1FGLlRHBTKpUQQoNP9zflBNo5XGhvhawuxKJEF47gpre3t6trQ7V8tr3VBICqGriE/3Jbp8E9x8bN3NwcCaNefBagidDAzKkIAdVsgScw61N39ao7JbqkjZuxsTGEUGuX+I5mEUJ9+8opVHTIkMpHesgjl7YaMyH1zw09+LRxs2XLlo3f/lZrnz2lmZtThT6E0I5iEKDy5A7CzfDR9XEbwcG4j+HCbyaGXvhJ3Ws5odxUq1WE0K4f/9B9KElIth83SZz1OkxbdBmw7ncdQ7mhwc3+vUOt1Qtw0yKGzvzq5wih8fFxPXZxyQnlht6B54/sXWduvFkgOzmNZ45myTRB/mWG9QDoVPHIjoxfjjJ9OwqTgVi1PLkjw6ojrRRH9VIcZk2L/7MJy6ubOUK6o2I0LenNuxikCS5iMPVOPVKP0fDNnD+BELr3sqILJbpMKDcTExMIoZP/8W+xRtOwsOZvqFWGvRiiryc7zMwfiENp5IGQJ5Ad9gJVyU6+OQkuRwleHkCERW6hqF7Kk/tI1wSanszwjuzwjuyRo37wLnFD+VNjZE+AB0DRg+GjamaiWj6rf45D5yMsJ5Sb9biZmsbLZm6Ij/EuaM/SlJKewgwzPDOMdBd2qhi0Kzeb14LqAHx723tZNsfFtC4bnjY25oR8TNlQBbL0lCXKpSJ2gs0BqCnc5HK5lt+Eh3MTvFuht77cYXhXsIRRUMvGUjXTYM5ppRfsxI1fi2HEzohhofbrDdWY2QJ67n9uJDOQS5BalGVqziPADXMAk0eL0l/Bm8s4eUGf4V/lwV6mHbnBM/vIdMan0QCRboMJjL+JLqcp3JCJrfaHFlAf7MI8TzFEjBa1c0NLRTQrp5rCje+WfP/n+RLEOnIbDHATZMLl0kmcm5CgRLGN5xWsdDr7m4A7VE7HbTDK2Jp22OH+hjl/HiYHFe0UPSTKjZiqtGadBhMcf/xrz+X6JDIdzo0f7qBhdmNM9K7dT/GAw7eKJLA8HSe+0QJwDQ4WCfVkyapPUN4TFtGPcTDATfxrRXHssSwatn5DHZK09EIXAGWSDLZXom9ygdJIma4SZfoM6378fH1JOUBmiHgPuayDAW64Hp0T9XHjOZjhnvD1Ym81ma8Xk7W7o2V5XnPjhjgSf1FRvWNSYiOyuu1F4Go+YSJqMK3ipv97fWNjY2Ere/b80HW/SqVSOvuLpYWSs8ldp1VoMC0auPmZHQ5LaSg367TuB/C1UAPATVqu4FZNMcmcL3CTjB7by+qNjxa4AW7q0QBwU4/WGr9e270F4Aa4qUMDuX/ek/x7onA/VYcl2qtKU54zADftBUEdowVuWrjm0e4xjTR+4Aa4qUcDwE09WqvDsd9nVYCbKG5Mjy2bCEGbbBdvF278R8TqKynSjEtsOcm2QQXfRW/IzC3khr1roe/wioJb0UPzD5vCDXkWmvD7xZwby25q/q6MRSa+AVrJjddXcNtN/AE3H5o2et+Pvluzw9t2yV56UhREDUx3uLWnv2nILyraaPJhW/mbvn1F78Mfphea6D7ZnsKkt5UEuAFuvKuQ+pt9ZWWHEdcOzR8+6r/XrXHjsK06ZJc4n6fIJnO6C9i4yXwaz5wqyu8NKhvRvXbIphbLZnXeFzsvMmy++6avp8D3F4vW9klb3+lb0tKJ9O0QO1NZm4l4tTbzN2V/62vwhW329q5nFYO/oRuRvA8GhOzx9jcumd4yprbs814kDd1kPu3zSr5bQHaA+98h0F9Dtm9WD3LDwmRva/rkvmxfj3C0VNJvzeuR4jW8j76DTIbhU67qqkO58fdjBzyKFxFTI3HHwy8vT8XBYJNG2VKcxGQMu8RpUcT2b/LaOXnvmHca3EFHTOXSjifD4KBhvjRI0bipNXrihB4BCiWPNZhkiN0u7xezeYrozmx1XzsaN8ZtR0qmchi4IhlScia1B9tJabaHKuPSjoEbAYE8gNCLR4KGyGvaCDQigxg33SbvUcjc+HtKuNkCVlc1Ra/aHvIVEukvuMdbA1FWYsCWPiLh1/Gp8ozfUbALt005Sl8UNdQjvnvCB6ZIevkBPVBJVRtmxOuBqR25EZsa9UtK1RRlgseWgQQjLxFuSFAcaN07YF3Uxc3ytBzOB774dF9yk8/nk/6OScDf8E2NhRnV92ie2Rol+JdvAtx41zqSQxzjPKWEGqrfMtHgTTfse2E80DZJtr2/OXnyJEJoYjxXjwPkrjiQULjxcckc2edtUZOCR9XfsHUdeadcoGW+6d8WSUTYWw+55Fs82p3J0q7ckBaCF4CptdZyU7bskLIXhe6fot/3G/vZnuZxw6JjMhkEjKpx44eQ/Er1oQns8ab2M+8SN1lItbeBG2pm/hWSOuapo9m+HUWBe8q4qf3BDoelNJSbSqWCELr3U6vN5Mb/kKJ82+m5dH39xjeh+Lyevsc7cv1GfOmNhJYaN36O99VIb4mIRToNxDd09mQLQl6D4gox0dwyf0O+X/wPfz8zM2OBw1IUys3S0lJXV1f/1sebyo3pXjTsztNlW3VwtZd/N9RkIZ0bf+e2j4u3luNVbIAbsrIsbSnvycrsmkbVMm5yB0h0UCqVLHBYikK5wRgPDAx0dW2ALeLJXTnJ3UKr4V3slnt7/nbjxo3Jfy8dY0w/RZtoaBz79O5Lm637SVU+freRh1MYY5u/oZ/aH/hBZt3PEwaQrAboDyaePHnSMhPZi2zcYIzp78u39idhwCc1VwNLC6XuB/+6u7u77kkqwt9gjOfm5rq6unp7HkmWd2htHTUw+tLzZGVuYsLuUeylEf4GYzw2Njb++r+u43lC1wlqYG56sqtrQ29vrx2LyNJobkgTf1nD33yU4OihqXXRwNJCadN3v9PI7TfnyY0bjPHdGvwU9LoYO8FOB35AXjzM5/Pc/HUnnLnBGN9ZSvAcoKlWaqB27f1dP/4h+SG6XbvqZkWuGIcbjPHaMl6ZgZ/3baXJE+mr8vF/dT/4N4ODg43cQzXADcZniv/Z1bUhdyDb2t/dbO6taSK2SW8jKx/gtW8qlYps+AbTMf0NxjMzM5s3b0YIdT/4V7CUnF5W/AcRl/DqArmtSfpfbG7INs5aLZ/Pb9y4ESG06bvfGX3peVgYTA9AM+dPjL70/IXfHCfbbe/eShoYv716uKFVl5aWcrkc9T30EXJvzyP9Wx8ffLo/dyAb9md0UadOvBYmL+c3UvdeF7pp9+8d+uk/Pit3YUwb694bjFFYyWxN3aHdz/Rvfbx/6+Ps1Q80OvpPTSKGNls/N3xYc3NzY2Nju3btkhniJ6Ak+r+/lQTXwb+hF3YrYsbDRuoOvbBb6RSvLT/wwAPGjpRMY93+729VxIyHrazb3d3d398/MjJS99sR3KaRiQS4iewjtQINPhNO7Xm1YGDAzVALtHz/dQHcADf1UA3cADfATUwNQHwTU2FCHPwN+BtBg3sKuAFu3GkRksANcCNocE8BN8CNOy1CErgBbgQN7ingBrhxp0VIAjfAjaDBPQXcADfutAhJ4Aa4ETS4p4Ab4MadFiEJ3AA3ggb3FHAD3LjTIiSBG+BG0OCeAm6AG3dahCRwA9wIGtxTwA1w406LkGw/bhZXq5cXz7/31XH+d3nx/OJqVZyTcwre23JWlSrYNtzU1lbOXT3x+kfZg1PbjH/5D4fPXT1RW1tRTzH8GLgJ101ESXtwc746OXbpOSMuSubh6e3nq5N33PYpAjcRdIQXp52b2trKW5/uV+CIPDw2t9fF8QA34WBElKSam+Xb1/MfDkdSYhR4dXZ3ZNAD3ETQEV6cXm7u3L01fnmPkQnHzPyHw3avA9yEgxFRkl5uJudfceTDIvb254csCgBuLMqxF6WUmy9XPrHQEKvo8uL5MBUAN2GaicxPKTeW++2DU088+aj87YeHdobcmVO8Xv8oG6YF4CZMM5H5aeTG7mx2/gihH/Uyl9P7GEEoAp3Pvv6dURHAjVEtLplp5Oa9r44zLMxLfHLpyMvks1+PFWyS71QKRl0AN0a1uGSmkRvrJKXxUXgIIfTwy0/IMCnpV2d3G3UB3BjV4pKZRm4OXXxKMbzt0OPG7m8OTm0zriDH5qZcLGQz5NvR3r9MJlsolssYF7PZoouy7yOZ1HFTW1uxUaKFwCTcQRuf/KXmh4KSxjXAWNyUCz4wmWyR/Z5puZilmUlzUy5kC6yT5tHWQC+p42ZxtRqDm18+8jCSw+RQeuZvzOr6d+dGQKOZ0ytKlhvSZEbrSB9/YzkN9ZI6bpZvX3fmxulmirZ27eYVXcuu3HBqkJGPYtacr3fokuO7sCZz02gvqePm3q/PuMU3dBUneoai3DQS3xS93zcnIY0RGyW+KRf8uYv8urWY0rBoJVMgYRINkYJeRQBKIyiUyUqNFcr+vCgzRbJYxJXJFNQ4SxoNKfXmPr0XfxRs1iXDjojZ0siNy7NML6yJuP3mfmvs0nPGK93N38gGj4o5fJN4uJRpxQyHjTdE7M6MJzNABsmEeD4TRNlskZhT5tc7opJaPa8tjygyAL+YtWqWZldGuUhiOT5uk+7SyM3ZhWPc5MYEXbOx33vLFSfnXzGdO06aG2ZipnGbsZisah7NolyQSpJyxfreIRdjnXMyaQb1Jcz/ab1wsoQEb8ikuzRyM39jVra6mvZuvKUl49BYmFdsbL2Y6VjYy6RIjLmhOArMlr6dWUMhdqatBoRIFmuE0yJ69ychc3usnt+5qEVSWi9SXnB6DdbjR2nkBmMcvvSnPJzy4wDLo4ZXZ3cbgxvy46IIDQ1FvpfODMC8ONedmmCC3FJKRsBYrIxD5rcWECJ5YYK8dy/qyWRYlMPchNYQryAxwofqFfKulNBMrumnU8rN5cXz3Fs0mGj8ebikTmYUgyaFhbkxFNMFDnmjSpMBIdJNmKA3BN/jZIu6mLWe1gs/Ib4kZXevKeUGY1zH66E6YeOX93CN6Ak3fyPbTvUOpE1x68FMxVDwrcM4ChiLyaotBoS85tl6I2uVnwdrwmufHYj2WEsih9c0zVPSIqAffZsqsibSy01tbcXlxkpnhee8Ort7+fZ1dqaG/ztzI6PjPVzwG6NTBAslhf+X76eE9pkhQ+xM25Tt75lSzgieA2sPZYvlcrngrxZIeMkCPuD+HbfcqA+Ml+UjTitKLQU7jv79cE2+pRmLq9VXZ3dzDmIlDk9vN671yScQhxtSL/h4CiH6gEpu0QNMWnKRnhZwI3rBg5DRbnj5kgtZRuEG9gI5xZJ+ob9KxI+kNSF51pEXk8j0x5aQfOwppGIJR2pFOUNymF5/Qwe7fPt6eIwceif1+kdZ4wMpRQFxuVGqd/Jh2rkhPyN899bpK2+4LSITkk5fecP+Ojq3N3DDVRE30Qbc0FNavn19cv6Vw9Pbw2arw9PbJ+dfcXEzXEfADVdF3ETbcMNPbP7G7HtfHT+7cOzY3N5jc3vPLhx776vjxsfdvEpYArgJ00xkfvtxE3lK7gLAjbuuFEngJnK9WNEYHBINADfATT1XAnAD3AA3MTUA8U1MhQlx8DfgbwQN7ingBrhxp0VIAjfAjaDBPQXcADfutAhJ4Aa4ETS4p4Ab4MadFiEJ3AA3ggb3FHAD3LjTIiSBG+BG0OCeAm6AG3dahCRwA9wIGtxTwA1w406LkARugBtBg3sKuAFu3GkRksANcCNocE8BN8CNOy1CErgBbgQN7ingBrhxp0VIAjfAjaDBPQXcADfutAhJ4Aa4ETS4pzqLmzNnziwtLXHtKPsZKpXKhQsXeCkkLBroLG7y+TxCaHBwMJfLnTx5EiE0MDAwPj6ey+V6e3sRQjMzMxZlQRHXQGdxU6vVuru7+bcklcQ9nrheIGHXQGdxgzGmLkchhh6Cs7GzIpd2HDdhLgecjYxFZLrjuAlzOeBsIlmRBTqRG93lgLORmXBJdyI3ussBZ+PCiizTodzILgecjQyEY7pDuZFdDjgbR1Zksc7lhroccDYyDe7pzuWGuhxwNu6syJLogy++jvu3uHxLbiIsvXLzTtyW7fKO/S4u37K3E7d0vfpduXknTLdyfuLn69Lv/wP1ilKaXlOLbgAAAABJRU5ErkJggg==;" parent="1" vertex="1">
          <mxGeometry x="-120" y="-185" width="189" height="263" as="geometry" />
        </mxCell>
        <mxCell id="_ww6I5lQIW8gpJn7JbcI-10" value="" style="shape=image;verticalLabelPosition=bottom;labelBackgroundColor=default;verticalAlign=top;aspect=fixed;imageAspect=0;image=data:image/png,iVBORw0KGgoAAAANSUhEUgAAAJgAAABaCAIAAADLgAjJAAAKIElEQVR4Ae1db2gURxR/n/Q+iIbQ6BVLGqT/rG2jYCRQaSP90LSpxSpI7IdEoUI8vxx+qB6UCkJyRahSFILBErRIWiMctdVrJCGVIFRpvcOiF6iYKuKVSnNtalzUJNfOzM7s7Oze3d7+udu7zHHo7s6+N+/9fu+9mZsdXcha+MRisa6urmXBIODPF30nbv758Ortf/kvaSr4Z98353kpclxQitxglP3+0nWfy35/6brgr3Wbv/3uvAVy1Fsgz62KokSj0SU1NQSs+hXPb9sZ7ti991js4khqUvgeOnHWyvfbKxOC4Ehq0orgoRNnjbLxZJrIHjx+5uDxM3n05JHNI0WanMjGk2nBX2Zzrn4/7jnasXtvx+698WT6ysQ/t+4/nH40k4cm0pSTyN7e3iBOweDy+o7de/vPXRYMkqelRODa3QfK49lUKpXJZExJNSEyk8m0tLQAQG3d0lCk2xhTpXRA9sUjsPKV1xoaGhKJhJFLkchUKvVsQwMAbGzfYSwpvFJ5XHoEQpHuBQsDgUBgYGBA4FIk8oUXXwKAUKS79FbKHq0gcOTrC7V1SwEgGo3yXOqIfDIzd+bHa4dOnLWiUd5TLgQGx8brVzwPAPF4nHGpETk7N3f19r/lMk72WxQC/ecuL1q8pKamZmJignCpETn+x3RRuuTN5UXgwNGvAGD16tU6IqeUmfKaJXu3gcCWjl0A0N/fn81m1YyURdUGjmUXGRwbr61bFgwGFUWBRCLxznvvnxpOlt0saYANBEKRbgA4fPgw7Nu3DwCOfH3BhhYpUnYE4sn0osVLmpuboaGhIbi8vuwGSQNsI7BtZ3j/AZSXsKVjl20tUtAPCNy6/xAR+VnfoB+skTbYRuDKxD+ISPlkwzaCPhEc++1vRKRcHPcJH07MgAULFzqRl7I+QQDklNUnTDg0QxIp7llxCGhZxN/+4ENJpCTSsP+qLMFoqdO+ToCm0FA1cGbqr9sZifDSfdr6/IGd20SejDQBwKrIL6awlv4iItLNXR2YSEaej7ydD0S6GT56IkdSv4TWAEBn1H4RPt0GAFtPOzXSEZEu2WAfhMJVDWWkU4x4+0QiJ3FSOhmcXAJRElkczYWJxMTQYZQV4ZEUobwzmqI3bD1NKjO9F9hsxSQ4uH5xq04PcoESGd2q6eN7p/eIrblswApBr4GUH6aBq0Ood3TK9e4kuE0S1OuMxL6t6TlJsnaoZxVfJzH6bL7AINOjY5KRFohEaOr04L746QnBlN2DdDI7VcQZ1iY2GIjE9+TSIPbufMQRufSWSAEsfMrFKcGLOk+IZLzSSmACohUiRT36oMHKRehpjxgjHHNUiYkNApFG10ZIaSHe4d5Z0LDs113hR6jijz0hkhUXVgw14PTTFkyJSq0JPcgfExBN7uSQMmnlSivPlhn6NNKLI9LEyBE1rbF3yDyW38ZAoZ0Wzx9zBxG54d3N7NzpAQeoQRX2liOZHvqFSBwB1Cj8t+WM9AeRbi6aFyRSn5E82eaZVKqMxNnJJU0lZmSpiNRPfAxlxDqRwvhEZ7zq7MZcD44wmmGklPFpxB8bS5+hVa3V2nzKrEpzUt6XVrRZuVRETo4Is1byk4PmqDkBZEmBTohoBmOM6EUsiEohmTuY68FEGmatLAWFaSTWr63AmYWgUHtE1/QKvSdyJDVZQiLZ5IWNRJRFmlUMWW78JxghEa5Vu4jXffBpISI7o+pKE+me04YMI9CzJnSqZbDWHZUSiDS6RuMMBV/lEWkomDSHOGLkPd4g4GpGemOijAYrCEgiq6RaSCIlkbKQ+gYBtLLj5s8P3zhmZVCppnskkVVSVyWRVUSkm3t2ZGktEwIoI6tpqJi3vlQLkcY1sDJlRrkiyWMi8YIkWr7k1lR5V4X1br6puGMviSRGauuuvgyRUhFpviNSW6d2uulBEuntGIkzsi2C9lyZRDRBP4I2p/uZyOJqQ5nytRQZ2daHM49/rIO9RQ9j1/ScJGQ7/JcFXmZkxRDp5p4dIR4pSSYPe/ETPpSm9B4OL/W5Lnk2KCYrvp80aXvYKZH4ST17pqj/jagT1NcA1IS2DpmLY0HODG1EYAZgB/XPO8m0QHuQqe9RAMrxKcpID5foGATEH27KQz0nD105J4U7sQatLOtPkRKiE1/nNgAQrNVtXepTa64kYMLoI2K6byOnOPOCLyQE+qGeVVgtdgcFkMo3sXNNE2Na7NExc1zco3gtFZH83kDkAwaa44DFO3ZYI0DdVKhyYF6ikUt6rM2v8NixekAu5hfXtXI7cTiFhEjmBd1vwDki9MjJCpTYO3V7z45gHw+BleOce+YwInmwQMq5DEup+4O0VBYME1TlF+ctZ+WXqy5m+1SMMYciIKc9gnm2TktSWpFlOJZxbqG0Y4VOB5NudKQDIf33XAL6vLf5mcB3surH1Gqw5hfXWYjqGKdKzTl8hY+kaiaSTCWaQkP62NTBhInUB7tWahwQKQ5RgqoiiVRNwkrIKDi/iFS3Q6KM4IJXR6QxkPmZZ26a8zNhrNiuEKmmJvJlnhHJthzyOacj0sreVzozJHMcbcbEBYc4RuL40FaX1AJup7SiCGBTGE3tfCNSHV242Z3ZhJMkEBvKeNZ14xMdOy1tHCWgE6VNoSF0aofIHAZUO5H8fEQee4mAx78jvTRdmwTJXjxfEJAQlwoBmZH8rLiCjxGRcs9OFVRpRGQVuCFdQEReuvm3BKLSEWhctx5+/n2q0t2Q9qN3nl27+0ACUekILFq8BG7df1jpbsxz+08NJ9GS1ZQyI/9z+ooOhY/2fIqI7OrqWrAwIF+kXLlcNq5bHwgEoLe3FwA++fx45Xoyny2PJ9MA0N7eDul0uqampvappTIpKzQgxn76OZFIoPdHopfWyRdkl2pd1N1wuXb3gfZGV0VRgsFgbd0y+RZJd1H2WtvoeGZKmdGIzGazAwMDAPDcyldlgfUafRf13/lLISxqr+bNZrPkjaCvv9XmYk9SlXcI3Lg3zVjUEZnNZjdt2gQAb3/wocxL7whwrjm8//Ptu/bMzs3lJFJRlNbWVgB4uXHt4Ni48y6lBncRiCfTG9t3AKD38KZSqZxEkoZwOAwAtXVL5Xsl3aXBobZjsYsvN64FgObm5kwmw7MollbW1t/f/8abb/56p4IfmjtEzVfip4aTG97dTPYAhsNhRdHmOIwy9Dsyz0d5PHvj3vToeMZXjs0TY04NJ0ORbpKFANDa2ppIJHKRVYBIIjY7N/fn1KMb96affqY+uLy+cd36/F/TlzbnF2GtTmSPxS4aOWaa8x8YZQfHxvOLsFbXZRl5/78BOxAItLe3j46O5qKQXLdEJFPR0tKCXnlf6HP02JeT00+EbyEhtd2J7NkfhoVOJ6efWOzXKJu8cbMssoqitODP9u3bY7GYaSFljLCD4ohkYvLAbwhIIv3GiE17JJE2gfObmCTSb4zYtEcSaRM4v4n9Bzy0q6GUmZrEAAAAAElFTkSuQmCC;" parent="1" vertex="1">
          <mxGeometry x="100" y="200" width="152" height="90" as="geometry" />
        </mxCell>
        <mxCell id="_ww6I5lQIW8gpJn7JbcI-11" style="edgeStyle=orthogonalEdgeStyle;rounded=0;orthogonalLoop=1;jettySize=auto;html=1;entryX=0.487;entryY=0.996;entryDx=0;entryDy=0;entryPerimeter=0;strokeWidth=2;" parent="1" source="_ww6I5lQIW8gpJn7JbcI-10" target="_ww6I5lQIW8gpJn7JbcI-3" edge="1">
          <mxGeometry relative="1" as="geometry">
            <Array as="points">
              <mxPoint x="172" y="80" />
              <mxPoint x="172" y="80" />
            </Array>
          </mxGeometry>
        </mxCell>
        <mxCell id="_ww6I5lQIW8gpJn7JbcI-12" value="" style="shape=image;verticalLabelPosition=bottom;labelBackgroundColor=default;verticalAlign=top;aspect=fixed;imageAspect=0;image=data:image/png,iVBORw0KGgoAAAANSUhEUgAAACsAAAAkCAIAAACfaVRCAAACdUlEQVRYCe2XsWsiQRTG359gH+vrDpIydUhhJSkkhdV112arw8JCDoRYnJXVFleFKwyEA9uQwsZTZHOQ7B0sBgOnHCSSZBFjVF7ITpxsZmffzKxFmixbzMzuzPvt9743joBvfcFbA+A7Aa6mwWTu924dfk/mfoKcJsnCpX/e6NcqTr7Q2hLuipM/uqhe+uf6KGYEg7H3/c8XIaq0a7vWYOzpcBgQNId1aTBi8OTfgRJCl6De2yciEY9+eF9niynBoUVwdFElYigf1Xv7KxEkED/K1BzW4yAUGtw9XBfbmeiKpiPFdubu4VoKoSBQpP/wQxpero2qWJxh0LhcUASj+2F4CbFdXQOA9N4mG/+8lwp3xZeDnWN0P4zKQBHQDtjdAYC13ZdNaX0DAHbWpbHZoNQNFIHtWsRyCQhs1zLToNTJEgSC7KxLW6HUyRoQzBZTIjx7FMgAAKn0xyc/ck8QE6O7U2wWFDZcpn8JIXgitiiiZlyB4LkUAzMGdQEAdBYKrS0DAkQkxCy0NreflI/UwqsRiRIGPkBE6QngGSsQQEh8YMbU9qEkMJtVcfJmBNSGyFLwuvoj9SmiSLfFWB8g4unVcXwiWBZCXyxjEqafXh2baTCZ++VuTlgl3A0Vgroay91ctBRReVKlN+YwjbIt3ZLVBLPFlJZBGZi9ECeAmgARB2NvxSNCsZ0hTs+UE7lrzkZNzW+VviY1IF9ciwARz0bNBEoU2xk6vFYWOOxg7FF71PKXgsvw7fcnnb8Muhpwjtb/n0pvlru5OOfzdXjDmIDN7N06jX7Ndi1+hih1srZrNfq1vze/+Oo6jYQEOktrvvNOgPgImlUtcAWsKIYAAAAASUVORK5CYII=;" parent="1" vertex="1">
          <mxGeometry x="100" y="-160" width="43" height="36" as="geometry" />
        </mxCell>
        <mxCell id="_ww6I5lQIW8gpJn7JbcI-15" value="" style="shape=image;verticalLabelPosition=bottom;labelBackgroundColor=default;verticalAlign=top;aspect=fixed;imageAspect=0;image=data:image/png,iVBORw0KGgoAAAANSUhEUgAAACQAAAAhCAIAAAA+r558AAACdElEQVRIDb2Wv0vzQBjH709w17lbQUfn0MHpxaE4OLkUhy52kgwdXgoFHRQKdslgwKFDXQTBF4JTl+hrqZZalVCohoa32KANfZv+4hESc82b5u7S9qUhw5Pj8nzu+/y4OwQLfNACWTALrDs07t+vJVU8fdoXqgmhmsgpKUkVnz9u6EufDvZqPJ69JHmZI73J24187UA3NV9qUJhuanSMB39ZPxmMeh5kIFijo6SLUY875memHGv3W24eG1b7LCVvN5iufScclrbdIWXAdFP7+fuHr6OAg0cPO92hYeujwQaj3mFpO6BTyrSckmLDClqe4oI/D60g/CxvkUuUlzm7K4jKukODVhTHywihlb11azXrkTBCiMbLlGMA5Ka+a16RZa2uIYTCoV2sxlLpsP27sNFRiMpoXeXj2hLnxuN1OIakikQYrdxJMGoks5W4P6zdb5FjyPGyFcbNVfecrU1G2tLFqD/s1Xh0O5q0Lddo7dhJj1Uv9BrhZc4fVvssTQI8Izbvu/bDoQhLGRHW6Cge16xPdoEQYaycOdFzKs3OIr30iTkDgKm2xN29JYSWIueTixiPCNWEf84AIF87YIXu25FFchXLWO6YxMtcQcsTYffv1xTYP9VBbS/sRDc1Iux/bfk27OwlSdsbAaCiF/C65jQaHYUBAwChmpgTw8vcZf2EfZ4BQHdozHl+nj7t42sIMWd4hm5qM/OylTi+E7DDaCPb/Va2Ep82njkl5bnNsZXZvMGoJ6liwE5PF6N3zSscG2wEhWGJv96Eo4cdkspMOSb/ufAImhGGf2v+rdvXfUkV7ff548ZzJcWTsTGdMvzbbMZCYV9aEgRtYTSVnwAAAABJRU5ErkJggg==;" parent="1" vertex="1">
          <mxGeometry x="290" y="-157" width="36" height="33" as="geometry" />
        </mxCell>
        <mxCell id="_ww6I5lQIW8gpJn7JbcI-18" style="edgeStyle=orthogonalEdgeStyle;rounded=0;orthogonalLoop=1;jettySize=auto;html=1;exitX=0.75;exitY=1;exitDx=0;exitDy=0;entryX=0.632;entryY=-0.008;entryDx=0;entryDy=0;entryPerimeter=0;strokeWidth=2;" parent="1" source="_ww6I5lQIW8gpJn7JbcI-3" target="_ww6I5lQIW8gpJn7JbcI-8" edge="1">
          <mxGeometry relative="1" as="geometry" />
        </mxCell>
        <mxCell id="_ww6I5lQIW8gpJn7JbcI-19" value="" style="shape=image;verticalLabelPosition=bottom;labelBackgroundColor=default;verticalAlign=top;aspect=fixed;imageAspect=0;image=data:image/png,iVBORw0KGgoAAAANSUhEUgAAACkAAAAmCAIAAADWVCV0AAAEC0lEQVRYCe3Xf2xTRRwAcBzBP/iRLTHRxITMKD+iTjJh4BBI51p/MOe6MBMzNAwSiAjErONH4A1Gsx/RTGAZpmqKCDpFCKKCsxtjkjGn8Prard2PAmOs3eq60q6v2zq61/fjzkixeXvv9fUeJu4fmvvj7nL3/dz3cnfNmwGn7zdj+mj40P7/N//hniPuOYBgkp3whp19Y1Z74DLhM5l9v7b7mxzkHwOhnhBNAggQQynac3CXGbsRvHbJfaKut+xo15ZKa34prsFw9UEip9pWaHQU/+L61Hyn3j/pRuFRbYajXePdpoEvajs37ze/juHqeKXcknfqVrnF1zDJTsivAMmmOco28tsxh66MWBuPFPR/3PFOw4AxSHll+MQ2C2iLv6Gmc5MgesKmnsg91/+JDJ/ABhDcHus4bN+QUJIcoLfknnfWhpmQZPYJ7BATNHR/IBkXsbPKWtAydOpB7FbP6ehJFki7zi599d3H56en8MpTBefW7BGdwVJc81n3dm/YKebl8iap4UrrOoEabZZ8k5aRmZyat2DdsZc2fxstL+tas/eJbAxX64ncepdBmX3V+7MkjOHqe3bKoqK0LZfjXjbeXI3RoSOpYQEvl/fXNzHe/CmGQlt9xF7UQ7ah2gxHy9xmpXaFVXvJfQLVDlLeA/Hfr5K6F1asnj1zVtK98khS0mOvGDJLrk7ZG/6eHSRyLriOotqu8S4Zmx8XwzNzNCnJM+dmfJRZ0haX//5WBardP25HttVYY/qKJbMfVS3a2pg1dVmxpWhO91Wi2iTlUWDjq7S58+Y+n7q+XiV5zcqIteedtah2hAuXW7Rxkohl82+lLUO1ZM68pc8UmbIk7QprfvNfJ1FtCOFXN/ZI239mfXh25fs/rNl9/yVRba9duHhxctrOZcVXsiWnHLZv6ApcUWBfu3NBMhDWuqpQ9/Ty/NTXqtLy/ykLlmc/8dzbz24yqfZKvWuluObL6zsDlEeBTVLD1R3rJXndmRdztj6Zrr1fVuuX7WiWzhjD1RUWbZP7OAc4BTaEsGXoO0kbvbMU1xi6t3nu9glgCBN9l4xGfJ/37ECXxCOr2gtaPWeAKOnENoDg5qj5iL1IHBSlR0+8WT9gGKcD4qQT2xBCFtDt/os19o0oGH/MAfMbPzlrSNERi61D7n8sNijChnvI342OYn5o+bqeeKvJfVx8tmMxkfKOjmYAPRhyNA4aq22F8iqGq+t693cGWiboIF8S15Hyjk4DgJtggrfHOprdJ42O4nJLnmARh2zv/dh/yDbSHKCGWMCIMUGPAjs6kwNsmAmR1LA37OwdNVt9jRafqWukZTB03T/pDtEkw9ECI15Tsc0PxAGW4SIMF2EBjf4ZFovwn+xYlAerTKf9N87uwuL3eHSMAAAAAElFTkSuQmCC;" parent="1" vertex="1">
          <mxGeometry x="470" y="-162" width="41" height="38" as="geometry" />
        </mxCell>
        <mxCell id="_ww6I5lQIW8gpJn7JbcI-22" value="" style="shape=image;verticalLabelPosition=bottom;labelBackgroundColor=default;verticalAlign=top;aspect=fixed;imageAspect=0;image=data:image/png,iVBORw0KGgoAAAANSUhEUgAAAX0AAAD9CAIAAADf3DBqAAAgAElEQVR4AexdB1wTSRePx4F4nCi9iBpQARUFxYInIpZT7IogolixnoqoFAui2CgWVFQsKJ+g0s6KiAKCUqSIIE2QFnooaRBISP8urMQlyYYIhLr746ezs29n3vxn95+Zt2/eIFjwASMAIwAj0L0IILq3Org2GAEYARgBFsw78EMAIwAj0N0IdCXvREVFuUEf165da2hoALdPsPzdu3cbGxs7I//s2TNoddx4y+9aeX9/fxKJBNZfcPmdl/fz8xPQXt7yu1b+6dOnZDIZ3F7B5fPK37x5U4D+PSLv7u7u5+f3/PnzxMREDAYDbh2c7gwCHeGd5ubmp0+f2tracvWEnZ2dJPQxYsSIiooKsK6C5XV1daurqzsjb2lpCa2OJG/5XSs/f/58LnwEl995eSMjIwHt5S2/a+XNzc3xeDy4vwSXzys/ZswYAfr3lPzQoUOHDx+uoKCgpaW1Z8+e6OhocBvhdMcQ+AXeYTAYBALh+fPnkyZNkpWV1dXVzc/P71it8F0wAn0FgZqampSUlPDwcGtray0trWHDhhkbG3/48KGpqamvNKEX6iks79Dp9MTExHXr1iGRyM2bN0dFRXFNgnph22CVYAS6FgEMBhMUFLRixYrJkye/evWKwWB0bfkDpzRheSckJERfX3/p0qWhoaEw4wyc5wNuKS8CGAwmMjKSy2jAKwbnCEBAKN7x9/eXl5fftGlTSUkJk8kUUBx8CUYARgBGoF0E2uEdBoMRFxenqKhobm7O9XWm3aJhARiBgYAAk8mk0+kDoaVd2MZ2eIdMJh8/fnzlypVYLLYLa4WLghHoNwgUFBT4+/sTicR+06JuaEg7vMNisVAoFDyV7YaegKvoowi8f/9+4sSJb9686aP694ja7fNOj6gFVwoj0FcQIBAI5ubms2bNolAofUXnHtdzYPEOg0kn04kNVCyuGQ38ESi1TbR6GpPa4z0BK9B3EXj79q2srKyfn1/fbUI3az5QeIfBpFc25sej/32Uf+pyxqbjyQuAv3Nf1tzPtYus8C2qT6Mx4N+rbn78+kl1FArFwMBg5cqVsEePkD0KyTuFhYXBwcH94xtWM70povz+9aydTimLOIzDlfD4uuE5yrOqqVBI4GAxGAEwAq6uriNGjCgoKABnwmkoBCB559q1a5qammg0GurOvpJfT8X45jmeTFnMRTS8p04pf9/K2VdKzGGxYB+lvtK9vUXPnJyc4cOHP3v2rLco1Lv1gOQdW1vb0aNH9/XxDoFS6/f95InkhbwsA5VzLdO6jlzeyV6jNxOrK1Co2l/+tspk0LBoFAqNpTH6APdRiHVlpahyXJtl6J2Ero/eTiQS//zzzzt37vRR/btZbUjeWb16ta6ubjdr07XVURnN4WV3nD8vgaIYqHyfXLsGKo6PMkR0xsdXT33Zx6tXHwvQkLRS8cl3oSYCYenLpxCBWSQM6rAxAmF8GIVpE0ND4E2/cJFBxxRkxgQEBLDb4OcXEPkxsxRP7+gyowzfrUpDEchjMSwWC1eQEfjIL/gLesCSkKKi4pkzZ36hMwawKCTvGBkZrVixok8jU9KQfe7LGi5ysb2jNXmZCudv+sZJ+1ttzGDJ8LK73G0vi/Pavnqqupw0gn3IyakvsnTNrueWAs57Ke/U5d5yWjFbHykpKclug5iYpJqG/l7v6voOGtRBvEOOvbJTfoiY8jyvARujAIlE2tvb838g4Ny2CEDyjqGh4fr169sK97Ezn9zDYCoB0v84KUrKya/83+x9L9h/+0PnOvLjHff09dUk1M8GEwu8ti+QEfttuPxCv/DPKBQqLsBjq8naiDYBgn6Ki5Z3yLiQs+uRSOMriTU/q2w/lethoCMlIaGuu/FOZGIBClVQkBtwx1F32/kOj61AvMNI83FW/FNitM2bDnJYogcSqblqj1cB5CCy/Rb2rMSaNWuuX7/eszr0ldr7Le9gyBW8pHM8ecE/TopDFBUtw398R+crczx5wanPSxOqOTZCZsnHu8bqCISE4RNeyw+dhKuprkS1HBUVtYRmFovFxTt0CrGmuhSFQpVVVBGaqEwmi0En11b8tONw7EFt5llMRjMRW11WVoJCoUpKKmpxzVT2jIhYlnbR2gCBQNoEJpeUlhFILYuDaMTaViVq8Y007geQjnrmpDpcYtiYaSG53NdYLBq+ElVRXYMn4EpLS8pqiOwS+bWLnU0h1pSVolAlFVW4lLubOfMsblsPP30AGWwThVCLLmMDVokjsjVl5wf9g0BI6JocicxCVeIH7FyNt2v6Z06/5Z0E9L98OUVI3jmRvDC40JXKYJMIi9EY470XiUDIrfKu434MqJVxXqbTJiJbJl8IJSWDtU5f0G14h4ovf+G9f8pk9tRGWlnD/PwLbBO9vurDhrE/7TgcngLzDpWIun9oka60tDgCgRAXVzZY6vUiq5nO8rUEKmP/O1h2xLmIahauIOTGboNWJQxW7bn9pe2HSGrxzY1zpRAIfdfP3C1gn6Oc9RHKE/VXmy6VkhQfsfZBNYt/u1hNNWE+h6dISyIQ4soaS7cs1ZeW/GHfAY192MYevvoAMosOnjY30G6ZriJX77tdgGMB+ZxW6Tt/4KcknNd/EOi3vPNvsTsU74hJSqr/DZh4tHfzm2QBN97PtSNQatldTa0Pc9+giEDwex+oua+9dtudvcS203rbmepLiSPmeeVyeITFonx7fXGmvCTCYNUl3/tXzlvP23aqAkMShnfIBNSdU/sdr3jf9/X1vnrUQAmhbHq2gkApiPTasVgbgVBadfSq35PgjEpc9sODSkPFp1mztbh2doeMtKTS3BNtbE/1OedMZwxGIPaFElkscvYrr307tv44XAPqiPnO+uy3Xslg3VXv+8HRBWQW33ZlV3763yItaQTCwPESuy0TNdjsAdiVQbxDhtIHkBGXkl5qd9b7mt1yGSnx4apHX5XhCuICnZYjEOIa+qbnvX1fpbclzf7zusEt+YFAv+Wde/yMO8eTFxyNmQNYdva90NNXlJTTUdsUwX/OdSt7Xw2ptD3eYdEp5REuW0yWI5HIUUrD//htEPs9/Mk7ZOwjx0XiCKRN6Hcai0mnEjE4Ap3BFIZ3mEwKKv5/RzZP0dREjhqpLCXeOj4iYXzZH73GOn+oYqtH/H5x/awhgxB/yKshkciRqvJiYr8NVdL0zwY95a28Y+FXzmLVR5wzlR3cOrxgfzv7xuYddcOrb/Pord/v+bTL/tW7K1tVxRA6NqFkGrstH66vk5fi4R1ofQDeUVl2OZ9EYdBJbw6MQkjKmbm+Z5t0Yo4hEINnmJ7LgTDVgxoDJ/s8ApC8M3/+/E2bNvXd9t37dojveKdN5mudkdISk07MOMZv1HMze2+raZmU5GevLYZArLzeYo4AocLAhTqvkpFADGt551Xl/xT7rS3vcHFE660N6LhN2q08ArIHgedZhNLwtUiEpJTMyFGjR49UY09ugO/rXGVWJu1YpD0IgRimjOQcegZ7YtvMCdFP9phI/4YYdeAVYA5isVgg7mvhHc2Fvp9aA+/zbZf9S2DcZ+n7w+IOGuP8mCuxxz7Q+gDyLfM4NhAxx5CIwbKm5yLYVNP3eae2tpZrx5TW3ob/50YAkncePXr08uVLbvG+cx5UdKENxfBjluPJM2eMEtfaPeUIv6s+7HkW8MGI3jq/QO4L+gJ4yRHRBUnvoysr0h1W6IkjEMeCUdQm/POTq2Va7B0/xzvNuIDjSyURSqvupBJZLGpTTWpGHqmZ/oNftM0jCwh0au27+4cmKrP9fcC8UxFqq4RAGFu7Y4jUivRIcw5P/eAdJdvQFpogF1yxmD0EgTC7WdCiG5mI/vyePVdqc5RFukySHSwlM+NMSGppE9tAja8KXf3DxsTDOxh+7XIIjbxmrcaeZUWiiYwmfIHP0YV87DvQ+rTHO+J6KxzS++xuMQsWLHB3d28DOnwCgQAk70DI95nsD5VP2uediEkaUhIzzhjw/ZQeWHiOwmh9eZtqwq5sk5ESHzJy0ioLtmHEzGS2/uS1EcV5ruazJBGISSZmG81X66jKi7XYO37yDoOa+fy8vjJ7FmO2detG86U6lqfLMCR6A/rKFm0EQlrXZJ3VhmWAoYSLd9CJ57URbHPveqvNywx12aYUYLxDwT89vVq6pcgd+w69ykZ/ub1fka3b7BbdLMxMdCazbcNtD3Jl9BlTJEJMWlVnvvnGzVu3rl9nqCwNlMnDO0182xVV+tFnvoY0Qk7XxGyz+erZqvJsYzmPfacJSh9BvJN1FYlASKuOXWq+9dQzPp/c2jamN54hkUg7O7veqFnv06nf8k51UzEf3onQn6qjvuXH6GbWfJ0/hv01bm/sfF5J589LPlYGgPuLTiIkBl1cqaMD2EV0dFZeCkkj0enE3A/7F8qzM+XUrbdbyg+XamPfYbHozegPAaeNh0u1iOg6PkwmUpgsJgOdHLZHV10CgZAavvCixx0zQ3Uu3mGQ68IuWqvLscuWN7S0XmXwg3eYjNq8t/8Ysu+VUVwemkZvqxtSZ6V9SFrLt3BwA1gsFhlXlBXquN1ArqVMCQmJeatWnX+eTKQUs+074HkWi3+7GFTSt6ArC9ltkVDX3fPU67SaPLu9LBZonsX+BA/G6qc+gniHRnx9cWXLFzmk/b0WsxqX8r3+FOYd4buo3/IOi8W6kb2Hl1C2HBg+TEUS+BtnO41XAMi5kGZeSgQbZoWHFJYcoAjAvCN8x/dn3vmOTz79eRkUswjOf4m6xmB2dNmS8PDDkv0IAZh3hO9MSN7p63ZlFovVTG96WnxJQMwdKOrxytpdT+mz5k3hOx+W7FIEYN4RHk5I3unr39EBCOrI5Xe/2ULxC998j6+WlY0Ddm2j8E8OLMmNAMw73IhAn0PyTj9YFwq0uqqp4Eb2XmFGPSeSF17J2JKHT2LCcb+gnxj4ChQCMO9AIcOb3/95h+0gR8W8RF279HXTieS/+Y5xjicvOJ9m+qTgDKohEyYd3qcEzhEGAZh3hEEJkBkQvMNisWgMSnH914jyB3e/2Tp/XsphH6eUv69mbn9Vcv0bLqGJBrvoC//kwJLcCMC8w40I9PlA4Z0WBJg0BqWJRsBTaiob87OwH4rrv+Kbq4lUHJXtH9gH4opC9yN8pecRgOPvCN8HA4p3hIcFloQRgBEQIQIw74gQXLhoGAEYAb4IwLzDFxY4E0YARkCECMC8I0Jw4aJhBGAE+CIAyTsmJibbt2/new+cCSMAI8CLABx/hxcTqBxI3omNjU1JSYG6Dc6HEYAR4EIAjr/DBYiAU0jeEXAPfAlGQKQINDU1VaJrSsoqMRgsg9FnVufC/jvCPxUw7wiPFSwpcgQYDEZJacWrqPSzPknHbiR6B31OScuhUqkir7grKoB5R3gUYd4RHitYUrQIMJnMsorqc/eSltjFLzr848/qdEJsYmafoB6Yd4R/PmDeER4rPpI0GpWAw9ZWV9dWVxNwWBqtb/wy82lJL8iiUKgh4elmTgkc0gES9tcTS0pbA873Aj2hVIB5BwoZ3nxI3ukH8Xd4W9u1OVQKpTQruTjEreTuPyV3/ykOcSvPTqH1kUlB10LRJaU1EIk3ApIWH/k52AF4Z93JhMxvBXR6y7aoXVKTaAqBeUd4XCF5p3/E3xEeiA5IFn9NKr+5FXN6JvbkFOzJKZjTM8tvbS/J4rshZweKH3C31Nc3eD1O4hrsLDocb+6U8DW7gEbj2Xu5lyEE847wHQLJO/0m/o7wWPySJAGPz3txC2Ac8L+5oXfq6+F17b+E5Q/hpibS7YC45Q7c451tZxOKin/s2NWRcrvrHph3hEca5h3hsWojWY4qQt3eA2YcII26vaccVdRGFD4RAgE0Gn3r1i1b+9O2Fz+YgOzK65zibzx8l5r6pfd/UId5R4h+/iEC847wWLWRLCsuKPXeycs7pd47y4oL2ojCJwIRoNFo79+/X7Vq1ciRI69dv/5vaKzr3fe2VxJ2uyWcvBnrceuZ1aYtRkZGd+7cIZFIAkvq4Ysw7wjfATDvCI9VG0k8DpcTfJmXd/Je3MLj8W1E4RNoBJqbmz09PUeMGDFr1qyMjIzq6morK6sdO3fl5pekfv3++EmQuobG27dvd+zYIS8vP2fOnLS0NOjCeviKi4vLixcveliJPlI9zDu/3FFUKrWgoGDNmjUBt69UXjHDOE8D2AfjPK3sitnb4IcYDKb3Twp+udldfQONRispKdm0aZO8vPzx48cbGxuZTOabN2+QSGRUVBRQW0NDg56enpWVFYVCefXqlZ6enoyMjL29PQqF6v2ft7oasH5VHsw7v9adOBzu7t27U6ZMMTIyCgwIiHhyO/PWgbJb1mW3rDNuHgi5fXGWgcH8+fNDQkIwGHgnHEhsa2tr7969q62tPWfOnMDAQGACRSQSd+zYsXr1avCAMSgoSElJKS4ujsViYbFYNze3adOmzZo1686dO2VlZZAVwBd6NwIw7/xC/+Tl5a1fv15LS+vYsWMFBQXl5eV/L1wQGBhQVVJYVVIYEPDEeK5RUFDQnj17xo4da2lp+fHjx18ofcCIpqenb9iwQUtL6+TJk3l5eZx2Jycnjxs3LiAgADxaJJPJCxcu3L17d2NjI4vFotPpmZmZx44dU1NTMzExCQoKAvI5hcCJPoEAzDtCdROVSvX399doOaKiooDfZ3d396lTp6anpzNbjvT09KlTp7q7uzc2Nr5///6vv/5SUFA4ePBgTU2NUHUMDCF/f/+RI0dOmzYtKiqKTCaDG21mZmZiYoJGo8GZLBYrOjpaW1sbGPIAl0gkUm5uroWFxbBhw9atWwcPfLgQ6/2nkLwDx98BOo/BYJSVlR04cEBBQcHc3ByLxQL5WCxWSUnJ3t6eY2ig0+n29vZKSkqATENDg7u7u7Ky8vjx44OCgnA4XO9/GkSnIYPBKCoq2rVrl5ycnLm5OS8X5+bm/vnnnz4+Prw64PH41atXHz16lIunqFTqkydPdHV1ZWVlPTw86urqOH3BW0g35MDxd4QHGZJ34Pg7LBaLQCAEBAQYGBhMnz79wYMHnOeewWA4ODiMHj06IyMDjHVGRsbo0aMdHBw4M4WcnJy9e/eOGTPG3Nz87du3BAIBLD9A0g0NDYGBgYaGhjNmzPD19eX1PKZQKFu2bJkxYwZfoxiDwQgMDJwyZcq3b994ESspKXFycpo0aZKhoeHDh2yjPq9M9+TA8XeExxmSd4Qvol9KMpnMwsLCAwcOqKqq2tjYZGRkgH9LefkFAIEvHxGJxHfv3q1bt27kyJHW1tZfvvQBF7gO92lzczOZTObQLovF+v79u7W1tZqamo2NTWZmJhhGTi0fP35UVFQMCQnh5HAlKisrlyxZYmtry5UPnNLp9MTExEOHDmlpaa1ZsyYsLIxTC5lMbm5uBuvDt4QuyeyM/06c99atRz3iCgbKoBjmHf6PXFRUlK6u7tixY//9919ey6WLi4uKigpnzgUuAovFqqiouLi4gDOZTCaBQHj9+rWurq6qqqqLiwuFQgEL9IN0fQMxIzP7Y+LXmISvKV8yMFgsnU5/8+aNnp6empramzdveGEEWk0mk3fu3GlsbCwg2AWTyfT09JSVlc3Ph9y6vqmpKSEhYfbs2fLy8tbW1hkZWRkZWdHxXz8kfE1Ny+zSkSaNiH7nemKbpqYmEolE6usb7zvzKovYGd7xtUQgNBf6fqpI9NiDnDhtT0guUZTPBLEges8qfbbyLYexsbHdqx+OUXWxXgZ6Le1qubR8+XKPxHIWixjrtUdPE2mwJ7iuKxSDeacNinQ6HY1GOzo6/vHHHytWrAB/beHIFRQUGBoaHjx4kJPDlTh48KChoWFBAR+vZTQaffjwYWVlZU1NzVevXjU0NDCZ/WG/wDoMPuRtusXJHyEsVjjE3w5Kvuvjp6SktGbNmtLSUi6IwKdxcXETJ07k+OyAL4HTlZWVY8aMsbKy4p2mgcVYLNbNm7fMLTZevBe+5tiPpV5rjsX7PksuK6/uCrTJ+c8uGiDFJKVkVEeNRiKRo0apKcoO/W3j/7qCd776WWggfpM22fOE27rO1UiIUxqxFoUqqyWQGG0eK3ItqqSqhkBtjd1YnxNmOkMRgZBSZjdATWnYkN8GIUYdeEWis6ojzo2QHSz2+zBVJBI5UlX+DzGElMKGWxGvz5jKDkaMWPugGqLqX8oeoLzDZDKbm5vr8biGejxn6EGhUEJDQ+fNm6enp+fp6Qn2IuFgSqPRbt++PX78eL6UBIjl5eWNHz/+9u3bUG9IbGyslZWVlpbW1q1bo6OjyWQyk8kkk8n1eByxoZ6jD6fSXp6g0WhRCd82n+GOm+N2+83t23cFG9RJJJKDg4OpqSlftLka7unpKS8vD/6wxSUAnDY3U569S7M42WZ9qcmR+OA3X+rrG/jeInwmseCWAQIhrTrl8JXXKBJ70Eom4z5HPtznm9QVvFORG+K1dY/NvbgOuiah2AMnxQ3uYfVtIkHFWCIGzzA9l9O6YLmVdyxj2A3AZd/epTRUfLiq8YuSH7yjhDzGtlzWl8UeNUQgxPVW7PU41C2804/j7zAYjFp0ZXHSO9SzK8Wht1BfPuIwddXV1ceOHZswYcKmTZuSkpKgHsS6ujojIyMHBwcBa4WAd8nIyKiuDnJMSiQS//333yVLlmhpaR08aJOblVGcEFb87HJR2B1U2kcCDtsVv8xQjeji/MbGplsBSSY8cXO2n0soKCwWXFleXp6enh6Xzw7ULXg8XldXl+PLAyWGwxE8/ZMWt0Ys5ATWsLn8qRjVwfe5ta4y31WTEJLSS08G1DS15rX+j0QiN/w9w+XAVu+43Gfep7YecAnLqKTXxfqcOuWwteU4dSok9ucjURjn3ZLv4P2skDPPyg2xA/MOsfCZa+vNgbG5AG/khtjtsTn0KunLQ5ejO7Zu3bPvalw2+0puiJ2ZoToCIamhv3DD5q1eP+sSyDssFivDF6k0dKgS0jejLe+wWKyYYwj2FND09J5u4Z1+HH8HXVpYHHi29tzcutMGdS6zalwX5oVcstpgKScnd/PmTRwOJ+Cd9/f3Hz9+fLs/uXFxcePHj/f39299Jvn8z2AwcDjc/fv3zx47knfvcIs+M+tcZlW7LS58fYdY32e+fFXX1Ln78ombs+5kwre8AsE23YMHD/L12eGDV0tWQEDA2LFjBeNfUlbp5J3IoRtOYr1zfGFR50IF1L23UJOTkBlx6k0Vr4ZI5OilE2RmKCKk5JWHS0kgFGe4h8U+3qHzp4SEOKLlkJBQ1TYIyW25NdFDRV6qJV9cariKvNQP+07MMSRiqNJW35bvpIkeI1WGS7bePGy0zqGWm2OOIX8TExuuoDh0sPggBOK33/6YvvbQFzSLfS/oWPuAEzxEIO8Q0SHbVw8T+01htM1nSlveqcv10BuDQEgZW3ncPd0tvNNf4+80NTZ+C/fDOOuDl3TWnpkd//xhZmYm78MEziGRSFpaWjt37uR8UAdfBacBW6mWlpaAYREgz47j89IbrAz25JSaCwu+xb7mfJQBlwyVZjKZgt9wqBs7n99EInkH8okTuO1cQs63XAGtKCoqkpWV5euzA6VVXV2doaGho6OjgC4or6j09EvkHe/YeiYWl3RuvFMdsXaE7J+Ko33S6CxW9YO1I36+5pa+HN5BSMnvCS4HmlCe+OReaMrXChQK9dnDRPkHp9DLbyxXHfTbsOVbAtHEusTgHXx4p0VGYrjyEb/PKBQqLuAfBEJi2upTWYQWfhn020jjtUEFaFp58HYpBGLs/PtxZUwWCzzPotZXuW8Y+1PD1hTyWEzrPAvIEhMXl1JQGemRyFYZsO+0yopLSPw5Rs8wJLc+4hw/3qE311VXoGp/2QgOad/pr7xTUvi97OZWrvcce3JKfpAbBnpaBDxDnp6eioqKQq5+AL4Ne3p6Qr1CQP737IyqS6t59fn+4oYwJg+gEAaD8fHjR8HmW8FqdOYqlUp7F5ez5Wwb+84Su/gLtyMO2Njev3+/qorP6ECwzw6UPoB9bcKECXx9eXA4XMvi9Z0ulx6ud25j31nmEP849AuB0Dn7Tn3stpHy4sNVHV6UsFj1sV6Htm7dvHqhvrwkAgHmHUvfVv3JBdG39hgilZRaX2RgLNPCX0PkR16J/WFx4cyzfo53Sl4Yqw5vve0HQegsOfC5poV3BsuanosAbm4x6cxwD8uhtuUdOokQdhuYpJmoI8TkR09ZvZE93bMLyW3lHXUTdsYBB4ebSYU/uAPgnSF/TlrFvuRw6pRPLntqyId3GFRS1gt3w4nKiJ/tbW13e/8PON7Jy0yrurSS9z0v8jlYVfHjN4ovaCUlJePHj9+yZYuQdl/gvRo/fnxJSQnfAoHMzPTU2rNzePUpfOxSW1sr4EbOJQaDER4efvXqVSHlOTd2YQKHr38akbnL9dMy+/gldvEbTid4PIj7mpnj6Og4bty4xYsXP3z4sKGhzTvfrs8OlHrA90QuXx4ajRYTE7N58+aRI0daWFi8i3jv+yx527l4kyPxS+3jt55NuPEkuQrd+QUruMfr1RDiQxcdfFj5Y40HNSfMnf1piC/v1H8+qKcoKSWzw+6ar6+v43L5H+OdFt4B7ClAM6F4R1JafsdZ39bD73V0Bp4qLO+AABQ4zwLJccY7P+zKPy/x4Z2m2rSz1gbGEydKwrzzEyiIVDmqqOT2bt73PDvoMh4vyGvL1dVVWlq66FcMBEVFRdLS0q6urhC6sLO/Z32tuGrBq0/u63tcLyrfQphM5sePH69evdqDfrosFovJZDY2NiWl5b2NTn4bnfQwMHT6DIO8vDwSiZScnGxmZiYtLb1o0aLExERgMiiMzw7f9rJYLAaD4e7uLiMjw/Hlqaqq2r59u5ycnL6+flhYGIFAKCsr2/vPPu/7geHvk95GJ8cnZxPqu8ZlgZx1RQcxaPAfY0zPhGSRaXAxSYMAACAASURBVCwWKSnMXruFd1xcTrnu+hvgoB/KZ/trKg0dqjjCN626LjfWakwr79DT7EYr/jZEfvWZWOh5FliGxWKVp71ydvWKJbJNvUiEoPGO2AJ7P0ybEGki4R0GnYzHfL1ttXAozDtQDysnn0wm574PqTszG/SqT612XRQR7DtlypQ3b97U19fz2pXb9dnhlM+VgPLlYX9Tq6318fFZtGhRcuD1utbg8GytnKeiL67IS4pq117DZDIzMjLOnDnDu5aSS41uPuX1tXn79u3s2bPl5OSsra2Li4sjIyOF8dmBUhsof+PGjRUVFdeuXVNWVh49erSrqyswM2UymUFBQaNHj/769StUCZ3Jrwk5YDhCcaiU+KBB7OmPmJiYlLS0wp4gFuvn2Ke1/FwPAx0piZZZkrikvMxQjs24PHiPyvCfdmU1eSnAb/DnPIvFKg/eo6ogIykOGJYlhiiM2X61Hd6p+XRpmrSkGLtCCSs/zvg90QapuWqPV0GrHaZ1ntXyHb1VV+B/YJ7FM94hvnc1k5MEpnvAv/otZusK360w77RFEOqsrrK0OPRWxTXLate/0W4mqKsb057d/hATbWVlpa2tbWlpGRYWBratCOOzA1UXX18eNBodGBi4ePHiCRMm7N+//1tactp9p7Ir5tWuC9HuS8tvbS+OfdbUEvYBqljgZ//jx49nzpwpL+c8XgLEu/uSp6engoIC2BsQg8HcvHlzzpw5SCRy5syZ8+fP78wY7ejRo0OGDJk2bZqOjo69vT3YnQqDwaxZs+bw4cNNTTzfursGBjqu8svD20d37Gixjhw4cPPx48/lJBaLXpkR5nJg61ZvdrSgH0ddrvcptthWB9e4UF/wN/LCZz+/o9fFeQPrJLi+o6OSQl0dABvNqcuBsWUtFh22zI59Xq+ygakee40F8M2exaJTiHEBrgfY9Z2KBT6ctSoC/p9cmeHVoiivSH32q0P7dtjYhXBZ4Mvi7tnsaWnIj39OtXym7wu8gyVX1pLKakll+OZqBrPVdxKMR7ekmUwGAYep+Pal6H1g4cdnj+96bbKywmAwRCIxNDR0/fr16urqFhYWkZGRgClHGJ8dKMVJLX5xHF+exsbGoKCgFStWjBo16sCBAx8+fKBSqfnfv5ubrgkP9C16H1gcH1pVkN3USOQdc4GroNFoDx48MDY2trW1devpw8vLC0zTgJ54PH7+/Pnr16/nIpf/JkenTp0SExPT0NA4efKkYOMXuMmcNIFA8PX1NTQ0FBMTmzp1amRkJNcCi4cPH06ePDk2NpZzC5wQBQIkQu5tB3PDsari6oZ7bOx+ydWxO+zKdeTyiPIHN7L3uKaZX2j5c01bdzXTOrzsblUTn8UEosCIt0wGg0GlUmhUamxsLMfXhsFgEAiEqKioqVOnKigoWFtbV1RUCOmzw1sFkMPx5cnOzl65cuWwYcOWLl369etXILIni8U6ePDgnDlz8vPz2frQqO1OrwB7ire3t6Wl5fNecLx9+5bvV+3o6Gg1NbXw8HAuZGxsbIyMjE6cOCEnJ6ehoXHz5k2opVtcN7JYrC9fvixZskRGRsbCwuLmzZu8vjwUCmXcuHHC+DrwFg7n/BICDDq5lu0fwD5Ky8qJv7LiEJJ3Oh9/h8Fk4CnVYaW3TqaYHE9ewPfv9OdlL1HXcM1oJqvNepJfan8nhclk8v79+8eMGQNe50kmk2/cuKGtrT18+HBFRUVLS0sisXVy/Iv11dfXr1u3TkZGZujQoVOnTg0KCgL/Pufn50tLS7u7u/9iqWzx+/fvX758WWSziQ5o1OYWPB5vamq6Zs0a8FIJsM9OVVWVlZWVnJycsbFxTExMfX09g8FobqZ8zSl6F5P6Njr5w6dMLI7Qktn8/fv3vXv3/vHHHwYGBuHh4TQajdeXh8lkXr16VVVV9dOnT21U6ZYTOP6O8DBD8k4n4+/QmbRc3Keb2XtPJC/kyzjgTM+MrTm4OBrjVwhT+CYKIQkV1+L79+96enpiYmJ6enq3bt0qLm7H65+3qtzcXDc3N21tbTExsTlz5nB5sjQ2Nq5cuXLGjBm8cbB4i+KbExQUdP/+fTBj8hXrkUwgTvuYMWPevn0LKMDrs8Ne2xUVZWVlNWrUqA0bNryLiHz1PvPg5U9rjrG/f288HX/1UXJWdp67u/uECRMMDQ2vX7/OwYrXlyc3N3fcuHF2dnY90l44/o7wsEPyjvBF8JX8jk+++NUKTC6C027p61Jr3zCYPbMHNhA3Z9SoUVzbpAA+O6ampidOnBg/fvzcuXO9vLy4DBbAkk5gbScYiqqqKnd397/++mvSpEnnz59fu3Ytry/P8+fPhw8fLiDuDLhAvmkKhfLy5cv79+/3zlEPFou1sLD466+/AJ8AKJ8dDAYTFha2Y+dOx9NXrc8ngF2Nl9jFn78d+c++A1evXuVd4g/25aFQKI6OjkgksrKyki9Wos7szLpQUevW28oXCe9gyBUX0swFEw3v1UtfNxU3iOTDpzCgE4lEbW3t3bt3g00VHJ8dMpmclZVlZWX1xx9/zJo1Cxjns1isBgLuW1bGt08R7L+sjAYC2wOISqUGBQVNnTpVWlra1ta2uLiYQqHw+vLg8fh169YZGRmBp13CqMolQ6FQgoKCLl++zJXfS06joqLk5eU9PT3b9dmpq8PcfMx2O+SsqAISlqfiM7Jy+Lprgn150tPT9fT0Ll682FMNh3lHeOS7nnfoTOr9XDseWpnv8H7O/pez972Yve+V4ZHY+TwCbAOQf74zidZBM4rwbYaSBOzHsbGxwLckvj47CQkJc+fOBeyaJUUFeS+9q13/BlyBql3/znvpnZ+bs3TpUmlp6SVLlmRlZYHrAvvyMJnMZ8+eaWhoCF7iCL5dcPr+/ftcgzXB8t15FfhEGBwcLNhnB4cnXH3EZ32pmVNCWmY+VFARwJfHwsLiwoULf/31Vw86bcO8w/VQhYSEuLu7l5eX8/5mdD3v5ODiz6Su4qIV+7czF25RmbREefJSZXV92Uk7dA7wo55Tn5fmE1K4tO+2UwwGs2DBgv379zc2Ngrw2QEWkZuYmET7X6s9ZwTyP5xSc8444uHVFStWBAQE8Hobg3158Hj8mjVrrK2tO2yu7jZYOl9RVlbWiBEj1NXVBcfZaWpiry8Fb44OjHfWOyd8+14o4DOfp6enuLj4uHHjBMQ86nwr2i0B5h0uiGpqaoYNGzZx4kQ3N7f09HTwCmFI3ulY/B0ag/Ks+NKJ5L95eOev9T7T7eLmH0+av/ealto4ORN/Iy4Z4PRx/iku7bvtlE6nP378eNy4ccnJye367GRnfM27bw8mHSCd5+uYm5PNV2ewL8+bN2+0tLTCwsIE++nwLadnMykUSrsL93k1dHJykpCQuHv3rgD6aGpquv8kfOOpWK551umb71O/fOEtk5ODx+OlpaX19fU7oBinkM4nYN7hxXD+/Pls12kJCT09PXt7+4yMDOABgOSdjsXfqSOX3845wJdQOJlHAvW0Jgye5DKbkwNOOKeYUBht1pbwNkZ0OWg02sTExMzMrF2fnaLcrPJr63l5p/za+qLcNtMrsLYcX55Zs2aZm5t3adBfcD0iTDOZTCcnp7CwsF+q459//hk0aJCzs3NzczPfGykUyvbt243nLfT0ec2Jl2pyJP707U+nznro6+u/f/8eirPy8/MBR0QhQwXwVaDzmTDv8GK4f/9+ztoKcXFxYLcVLBYLyTsdi4OBasi8JPgzVtL83dc0R4+RW/2K/3jnePKCkgbI95a3YV2e8+TJk2HDhqmpqQn2Pauuqir0O87LO4V+J6rRfMI+AHoCtlUlJSUFBYWefUk6idvRo0cjIiKEtIgXFRXJyMjMmTNHQ0OjsLCQq2oajZaVlTVnzhxVVdVbt25hsLi0r9lvYtL/9zw1NvFrSWlFSUnJsmXLRo4cGRwczPvZjkKhLFmyZOTIkQYGBoLj8nDVyzn19vYeMmSIJMTBOzeEkh80aNDvv/9uYWHB9XPi4eEBUTY728rKqr7+RzQMQKVflXdychJQ/s6dO7nm8r8qf+jQIQHl29jYcLl9/udDz5H//fffObwDJAYNGjR69Ogu5p08fNL5L6bg8Qsnffip/mqXCcscNScZSk/cNxnKtHw8eUF6XSTnmej+BIlEAtwFX758KaD2/Pz8mMdeNWfahLCoPmf8zu8676sFLicwMHDYsGFTpkwBT3fBAn0iTSQSb9y4ERUV1S71cHx2EhMT58yZY2trC244hUIJDg7W19c3MjJ69+4d0HYGg9HU1EQgEDj2yMrKysOHDysoKNjZ2RUWFoInp8+fP5eTk3v8+PHt27eh4vIIhjQzM/PixYtQq01CQ0M5agDlQMkD3PrmzRsu+YyMDKjC3dzc3r17x4Xhr8onJycLKD8qKorLJN+F8u7u7tHR0Vzlx8fHc/QxNDQE846srOySJUt8fHy6mHe+4RLOfuE2KgPUA/DOcmftuZtH6MwdtTZ4LoeSuBIpNa8FPygivVpSUoJEIqWlpT09PfkO7BkMRmxs7LJly7Zbrf8WfKny6jqM8zSM87TKqxbf/r26wXzNsmXLYmNjoe49f/68tLS0hoZGB5YmibThv1p4TU3NjRs3IiIiBN/I8dmh0+mXL19WUVGJiWFHE2exWCQS6eTJk+PHj9+1axcnqAVUaQQCwd/ff+zYsUuXLv306RMALwaDWb9+/fz588lkMtiXB6oQkebD8yxeeC0sLADe+f3331evXh0YGFhZWclkMruYdwrrv7inr+fiEa5TxzfT/5olLbVGhyufc5qHT+ZtQLflAD47O3fuBNZMcdVLp9NfvHihqampr69fUFBQj8MUpCWkxYSlxYQVpn9qwGPz8/P19fU1NTVfvHgB/mEHysnMzJw+fbq9vX27cXm46u2dp0Qi8ejRowJsPcC8ctq0acBPOoFA0NXVnTdvHo1GKykpWb58uYyMjJubG4FAAA9hoBpLp9PT09ONjY01NDQiIiKYTOaLFy80NDRSU1P5xuWBKkdE+S4uLi9evBBR4X20WDU1NTExMWNj4+joaDwez/kx7mLeKW/Mu5q5ncMgEIm5FjsUJPU09vNbtHUieWENiROPurvR5vjsFBcXI5HI27dvg7mjoaHhxo0bsrKy27dv55qTgxWtr6/fvn37f0acmzdvgqfWVCrVw8Nj4sSJaDQa7MsDvlf4NI1GW7FixY+N13ruP1lZ2bFjx6anp/PVnGNH51wNDAyUkZFxcnIyMDAYOXLk8+fPOZeETJSVlVlYWEhKSp48eXL16tXbt2/ngMwb90fIMmExUSDw8eNHPT29oKAgsC8uUFEX804TjeD33YmHbubbPp2+xfcvx08LjifPPxyqP2v6MNWdU3jE2K6DnhnbRAGBMGWCfXZIJNLx48dnzpwJBC1mMBjZ2dnbtm0bMWKEq6sr11IJ3sIxGIyrq+uIESN27dqVnZ0N0HxJScm0adNcXV0pFArYl4f39r6SU1pa6u7uzrHLcKkN9hvgXCIQCMrKyuLi4iYmJh12dMRgMKdPnx42bJiUlNS9e/fAvw1C7rHF0QdOiA6BwsJCXi82oLou5h0mixld6e/MvQB9vq2vju4CxQlLVCYvU9E0Vpy6RWvbm3l8eSe68pHogBBcMpfPTnp6+tSpU93d3Wk02ps3bwwNDQ0MDMLCwnjJm2+xZDI5LCzMwMDAyMgoMjKSTqe7uLjo6+tnZLC3KOH7TvItp9dmlpaWXrt2LSEhAUpDXm4tLy/fv3//0KFDhw0bxjWWhCoEKh+LxY4aNWro0KGGhoYcg9F/QUWE3GMLqlg4v3sQ6GLeYXd8c7XH143cnPJpnm24IXuRhMB1EtcyrfHNXbIPakfQ4/LZodFoDg4OysrKFy5cUFFRsbCwKC4uFsYMwambyWQWFxdbWFioqqq6ubnJycm5ublxfpx55yCcG3t/or6+3t3dPSEhgTNj59WZay6Zk5OzcOFCGRmZO3fubN++nRMLjfdGYXKAvT3+97//LVmyREFB4dq1a5y7hNljiyMMJ3oEAUje6Uz8nU/Vz06mLOamHn7WHLDMyRSTOHQwnUnrESB498ZiMBipqamKioqDBw+2sbHpcKwJLBZrY2MzePDg/zYLz8jI4DAXYHMVZo+tHgFEQKX19fUuLi5Q0yvgRvA6WCqVGhcXp6enN3Xq1JQU9jqYjx8/qqurBwQECKhFwCU0Gq2urr5+/XoWi4XFYrdv3y4rK2tra1tdzd4BnTcuj4CiuvBSt8XfoTKaCZSab7j4t2X3HuWfuvPNJqjwfGS5L6oho4GK7cF4MsKDCck7nYm/w2DSX6KuOn9eAqYVwemTKYv/LXKvp/zcxVX4NnSJJNfeWHQ6PTExcfny5WPHjpWTkwPHCe5AdVFRUXJycv/ZX1etWpWSksIZ8gi5x1YHahTdLQwG49atW4JJB7yHT3V1taen54gRIzZs2JCTkwPQbmNj4+7du//bdLgDEempVKq7u/uIESM4y25pNNqNGzf+c95Zt27dly9feOPyiA4NcMndEH+HymguJWaHlXq7pa3j+0JdydjyvuJhVVNhD8YRBmMClYbkHagbhMwnUrEvUddOf17GFx3ezJAid1wzpJuvkJV2WIx3byw/Pz99ff2lS5e+e/fOwMBg8+bN7dqSoWrHYDCbN2+eN2/eu3fvli1bNm3aNE7AHfD7CXV7b8tnMBhQjpFUKhWLxVWhaz5+/KisrOzp6ZmXl7dt2zYlJSUPDw+usDifPn1SUVFxcHD41QZmZGRMmzbt3Llz4BupVOq7d++MjY2nTZvm7++fl5dnaGjo5OSEwWCrq2s5IWXBt3R5WtT+O1RGczz63ysZW3jXP4JfqJMpi72ydqfVteNX1eXN/6UCRcU7LBaLTG+Mqwpul3pcUldEV/g300UU+l8oNDhxdgCLr6Ojo5yc3LZt20pKSphMZlRUFN84wUIVzWKFh4erqalFR0czmcySkpJt27YpKCg4OjoCWxiD5yNCFtgLxZhMZm0dNik161ZgyoX7Sf8Len/2wsUvX77MnDlzzJgxERERXC68LBaLTqc7ODioqalxhi3CtAsY7Ojq6vLuosFgMMrKykxNTeXk5E6fPh0QGPK/x0+vPkp28016EZmWk1ckwBQlTNXtyoiad0JLbrT7NnEIyCV1RUzV43Z17ikBEfIO0CQMueJRvrNrmrlL6oqWmdfCE8kLT6aYnE5d7ppm/jj/dGVjfg8GV2axWByfHeCXfN26dfLy8s7Ozhzvbzwev3r16s2bNwvw2YHqPyKRuGPHjtWrV3N2XKDRaM7OzgoKCps2bUKhUEwmk8v+ClVUb86vrsXe+zd1hePPkF37PeKv3Lg/f/58AZtYYbFYJSWlvXv3CvmJkL15XXm5rq6uu7s719oCMDguLi7LV5q63IxcZv9TH5vLCalf80RKPaLjHTqTFlcVzOEUIRNnUld+xbzvnRMukfMOe/MDFhPbXJVeFxlbFfis+PILlOf7ioepteHVPecfyGAwGokN2Lrautqax/5+enp6OTk5ERERCxYsmDlzJpfXKYPBePbsmbq6OidOMPgpF5z++PGjpqZmcHAw1xP/4sWLmTNnLlq06P3793l5eXp6eo/9/epqa7B1tY3EBi5hwVX0+FUqjRaZ8G3zmTb7oy86HG9/9WN2Du8GTW30Bewywu854+LiMn36dMFDJDKZ7Bvy0fwEdzyNS36f0dWd36q4jf7gE9Hxznd88tkvq8F04xjz13rnCcvb/E225vFNuZG9p6qJeyEuWOeeSkPyTsfi7/RUM36pXgadji4tKo70K37oWPzgSNStE77e186fO6elpWVmZpaWlsax+3KKBeIE/7f7CmcQxLkkIEGj0YyNjc3NzevquO3ldDo9LS3NzMxswoQJHu7u/7t9PerWieIHR9gqRfpVlxUx6D0TalpAc6AukUjkO0HJvPFJzZ0SMrIh4wQCpdXU1MybN+/gwYO8C815q8vKylJRUfHw8ODtILBwQwPx+uMkcJBmIKDPhlMJeQLjh4EL6UBaRLzTSCMEFJzhsum05Z3xxpaKw6WkFwXMAXPT8eQFzikm78p8qAz+sUc60MauugWSdzoWf6er1BJpOZWo7yj/43VnZres59SvdZmV7/3PMdu9x44dw+PxnO/cXDoA657BfiJcAryngYGBcnJyUEsB/pth4fH4Y8eOXXA6UnR7T63LLIyzPsZ5Wt2Z2ajHJ6vLe2yxCG9DBOc0NBC9HvOJT7r2REJCah6vZQdcGp1Ov3//voqKioDpGEceiJfa7iew2jrsxYd89GHzYE7BL/1ycKoWJiEi3imsT2tnzeMnY0tbFTVj9X+i+PjiXs7Y3EDFCqN/d8pA8k7H4u90p+odq4tMJme/C8A463OFzsl8cRvKp5tTkZDPPSBfX1/PWQPJKYE30dDQkPniNpcyGGf97HcBwls9eIvtzpzmZorvsxSwcedHPHbn+LT0jHYHMpWVlUuWLLGwsBDMCEL6HDAYjKqqKq9HsSZHfhp3AH2sL3wqKhYhm4uCdxhMRkL1U65RDNep/btZ+pMHT7adYsdeh8Tnr4AgKFpjdz4qnLoGHO+gqyqL/ufI9Z5jT04pvWVdWpTPwYVvIisr67+1RefPn4cKmse5i06nAxvItWu5KC3KL71lzatP0f8c0VU9sx8LpxVCJuh0emoWyvZKIvhVX+EQ73YvetfuvUeOHElISBBgBmaxWPfu3Rs+fPjr15DxT7BY7IYNG+bOnSvgt4HJZJaVlfn5+S1btvzEWa89bvGLQdSz+mi838svOHybCFtCNlBIMVHwTjOd9G+RB1824WTu9RqtOlp2uY/hMX6kczx5QUT5fSGb0G1iA453KspKiu/u533Py65vLM7jHxcZ3BknT57U09ODWn7NkczPzwdiXHFyoBLFedll1zfy6lN8d39FWQnUXb0tv4lEjk7MO30nadu5BKvTCTaXP90JTikqLnny5MnChQt1dHRsbGw4sXV5lcdgMCYmJjNmzODrJMW7/x9vCWQy2c/Pz8TERF1d3dHRMTklJSIuB9Bnk0vCIc9PD55+rq7htrLxltOZHFHwDonW4Jt3lEMx/BJGJkaDRywYu/sjn5EOIB9Y2MbXqTNt7Kp7Bxzv4PG478+v877neb7HvrSEcRGMbFlZWbvfcel0+t27d/nG9OQt/Etqap7vMV59vj+/jsezd+PqKweNRistR8en5MR8yszKLSY2Nv0XiZlOp2MwGH9/fzU1NXV19fPnz0NNuxITE6WkpLy9vXnbSyQSra2tufY7BoslJSUtWLBAQUHBwsIiNzcXcIyiUn/o8yExMycP1dREgrLcgYvqTFoU8XeaaIS732z50U0ry9wfIyUzeLb7X0chBjvHkxfc+WbTmXaJ4t4BxzssFut7SkzV5dU/TTzO+mj3pdFPHyoqKh4+fDg/P1/ApACIoTNmzBgon10Wi1VZWWloaMjxDOTbbVQqNT8///Dhw4qKih9ePK52M8G2mpwwzvqVV9bmp37ke2MfzSQSifb29iNHjtTW1n7+/DkOh+P1FVi3bp2hoSHvpqAfPnwYOXJkSEgIF3FQqdTc3Nx9+/bJyclNmTLl9evXAjquj+JGojX8T8B4J3GeuYXkkNGqmyJaaYgf+wQUnu1tzR+IvENqakIlvS19YFtx3bLyqkWpz35U/MuK8jJ3d3cDAwMg9kV2djaUmfPbt2+zZs2ytbWF6suLFy9Onjz5C8TWKwwGIycn59KlS3p6etOnT3dzcysvK0XFvyr12V951aLiumXpA9uSpHAyucc21YBqVyfzaTRacnLyrl27tLW1V6xYERQUxLXUNisra/z48Vx7YJHJ5Pnz569fvx48BaPRaJmZmW5ubnp6enPmzPH29hZg9+mk2j17ezO9KaTIDWq84xCkM0ru99H2s6AEgPy3ZXd7thW8tQ9E3mGxWM1kUl1VeXluWll2Sk1FKZnEXqVBp9Nzc3Pd3d01NTVnzpzp6urKtaQIgI9Op3t4eKioqABLq7kwraysRCKRR48e5Wt7RqPRHh4eM2fOHDt2rJubW3Z2NuCKQiY11VSUlmWnlOem1VWVN/c70uGgRCaTY2Ji/vnnHy0tLVNT0+fPn3M+tAMxiaZNmwaGPSgoiMsXobKy8ty5c9OmTdPR0bl69WphoaAt/Tj19tEEg0mPqwo+kbyQH7PMtdylPGSU4vo3ggY7x5MX9OBemFCwD1DeYXtRM5kMBoNOp3ON3ikUSlVVlaOjo6Kioo6OTlBQEC92aDRaS0trwYIFvGMiOzs7ZWXl3Fw+frovXryYMmWKoqKira1tZWUl530DygesIQwGg0sf3tr7eg6TyWxsbIyPjzcxMZGVlTUzM8vKygJanZiYqKOjA8Raa2xsrK2t1dXVXbBgAQeroKAgHR0dFRWVc+fOodHo/jex4u3c74QU1zRzPrzzZvrUWVKKG/UEWHaOJy+4nLGpB8M88DYHyIHknc7E34GqrA/lM5nMrKwsMzMzWVnZv/76KyYmhkgkghmB4xMIzoyLi1NQUDh58iSnpUwms6mpKTk52cTEZNiwYUuXLk1JSeE1bXDkB1oiODgY4OKTJ0+i0WgSiXThgus1b7/QyOSgsJSX7z5t2/FPWnp6Y2Pjhw8f5s2bx8VTvQouEcXfaaDi/PNPQgx52hnpnEj+O7zsLpVB6VVAsVgsSN7pTPyd3tbIDutDoVCeP39uamqqpaW1ffv2yMhIji8fjUYzMjJatWoVZ1IAxJSZNGkSx9ZApVITEhJsbGzGjRu3ePHiJ0+eAJ9aOqxPv7yRM/fU1dX18XkQFJa65cwPl78ldvF2nrHvYj47OTnxzst6Gxqii7/zDZdw7ssaPkMeflZksJhn5rZSYk5vA0oQ7/RCXXtKJSwWGxISsmLFinHjxu3cufPTp0/A9Co6OnrsPk9AVgAAIABJREFU2LGPHj36L6IgDoeLiYkZP378o0fs+NAMBiMjI8PGxmbixInz5s17+PBhu979PdW63lAvYGu/du368TNXrc9z+xnbuEdfvnKV1w7dGzQH6yAK/x2gfCqj+X3FQzChCJN2SV3xuTasd4YfhBzvgAGF0wwGA4fDPX/+XEtLS1VV9ciRI1gstrGx0dfn3tvgh9//vZz/7+X4V4+vXb6IxWBIJJKHh4e6urqioqKPjw8GgxG8jhGGF0CgqanpXvCnlaBgGsD6BjOnhJT0XL52+l4Fneh4h8ViURmUiLL7wtANRyam8jGNSe1VEHGUgXmHA4VQiaampgsXLmhoaIwaNerV86ffQy7WnjEEvP4wp2agHhxOfB+up6enoqJiY2MD/vQrVOkDW6i5ufl2UCJ4cQPAO6bHE6ITBzrvANQTXeF//stawbYep5S/L6SZf6n7selz73ymYN7pSL9kZWUdPnw45slNDun8cDh21k8LuLxv3764uDjeT10dqWkg3UOhUIPD082cuOP4WJ5KyM4t7P1jRpGOd4AHgcpo/oZLeJR/yj3d0illEWdoAyROpPx9JWPL06KLqIZMBrNXx1GB5J1Oxt8hEcs/x2WT+b825Oy4z+XEvu0Xh66qzHvkwru+ocxrU35OJv92w7kCEWBvjvi9zPYK95Dn+hORL60SqJewF7uBdwBVGqmEovq0xOoXz4ovP8o/5Z/v/Ljg9KsSr9Ta8FJiNpneKKzGPScHyTudjL+DKX3pvscfYj11pf8e95elmJ5rdRfUXFlWgrrHZ30p2mNZXmZaF1QwIItoIpETU3Mdrn9a4cge9axzir8bnJybX9onPA+6jXeAR4PBZFDoJDKd2PLXSGWQezZe8C89sJC808n4OxiUrzFCDonU53MgkXIIY19U3+adhoaGvNB7WOepXEOe4vuHqsrLfqkPYGEwAnQ6vaCo5EtaRvLnr+lfs7DYPrM4tpt5Bwxan0uLlHcQ0Eef5x12EPi0hEpPczD1VLv+nf/xBcfHp889Db1HYSaT2ecMZDDvCP/8iJB31mtM3LL3cMtx0HzxokWLzQ8CZ4f3zpu47VEfH++wd7xpakQlvWMPcDyWoz2WldzdWxT1uB4jwsjhwvcrLNn9CMC8IzzmouOd4NMbbuQ3/rfWj0QiYaPvenndjcYCZ6TC21ZnQvo+77A/bVIoNRWlecnReUnvq4q/k5saWUym8OjDkv0JAVHE3+lP+IDbIireAdfBYpGS/Oy37jqaVlSFqasriPE3mbbOv6Rv23faNhA+6wIEmIxmLDov3O+0saHBjxk6EqljZh+YUEYg9roVRl3Q4AFcRPfwDr3k4x1jDUkE0sDY0FBbSUnaYH9abU9uEDqAe7zXNh0d+cRpsbaStLSy0bIVW4HDwsJs0SxNpJKDb0av1RtWrAMIdA/vsKj4Aq/ds6XEW37GpJXNvZ4TqIwOqNvjt1BIhIDbDj/eipb//tts1yc0SbSRe3u82SJXoCzEa526nLjGxKVePs+La1vHwmQysfL7x/DAuII+81VL5FD1iwq6iXdYLAaJ8C3o4i7LzdtPP44qJTX3UStIQ3X8poniCARSR4ftIYBEIsXFxf+UUdAx2BMLc09HX4ncEJsxCmLDlZcEZeOo9D75g9TRpg/Q+yB5p5Pxdxi0RlwNjkwFH001ZRgID+Y+g35t7i0DhPKmS+ENtB861+XGXtiqLYWQ0F3hlI7p1c7pvRNlOibdaYWuhMTwC4m9U0FhtRJR/B1hq+9TcpC808n4OxjUo236Sx3dwcf+KTI7YvoUOrzKZnktQ0jqHA/43Hbn19zTunII5VlXwvNg4uEFTWAOPS/8yixlhPpGv74+XhRd/B2BAPbJi5C808nWtPgr87oNWvZ13gnZLYdAzvWOKeaaDLD5CKF52PdT31511sle78DtFMKzs6bSCCXb0IrWu8tCvC6fAx0hfWQGC/vvtPZg+/+Lknfk1A2WWVpaGgB2kBabyNY+zjvlZwwQ6sZWH0u4hzUoX0tE2/lX+9jDEiwWrQF9aZM2AmF4r6B1uJP7ZOIo+cGg41hk65yWxWLRiNG3D+obH0ysIfY2/GDeEb5HRMU7uJo3Xl4haJAi1Rmfkyt73f7wIAWFSJLfrERIGpi55vI88wX3zBBi2vZ+SfB4Rwgcf4pQ66vcN4xFIC2iKgk/c4EUIevU6mkSEoZPyn9cIePKr5hKy8lLD1lgX4LpdUjDvMPdg9DnouKdtjXS8eUpjy/umLLoMpiJ2sr0gTNi6D6E2LAlB4J4lkIQA7YjEWqzr0UWcA+E+kCzelJFOrH6mrUuAqF9PpH70aAWx2yci0TM82gdCLFyQ+xsDv/P3/vQ+v13apt6HdIw7wj/JEHyTifj77TVgF4c47Nu5tixhu7cD1dbuV5+9tlVHyGlsPFmEnfwyLo3q9hmZfPwPJAzZH2216F9h7xi63t5q3pWPXpD+JUtygheu/IPX1OkbWgbBZtxAcf/OeQd08hlYGsj1DMnMO8Ijzsk73Qy/g6XBvRmEqa6qqquD0Qk4tIcdFrnZ6EmpTDa+zO3z37iBT0JhJSxlTfH7IP+EmI1V+kPsd9G20X2ut9lUJN6QZLZXBC53lAdITFcZ+uFN7l1wBSWVpD7+vhWbTGE2b0CsJJse5Ct1YVXWdzUDxbqoTTMO8IDD8k7nYy/w2IySKXpV/ZslJKQQCAk5NQ3Xnyajqf1vh8p4aGifLYZrSCnZvGeM+5nsRj0ZtyHqyPlpf5Q1bna+tmFjCs/u37e2UCf/aPVrDjGCeErGniSdbFeBjoaCjJS4oBHOwIxSHLIUFlFNaN1ITVtPJUJlVGWJov8kiAiyvUodDDvCA+/qHiHSijwMteWBr6ki4lJSktLIrStn6YLr1lvkyQn3RylIKWs75r/QzMiprb4uY/70onK4nK6O3nnUyUvjFXXBINIqre1qHfpU1eXFOrt0LoEZYfrxYeRn3Fkbj/T2qybFsY7P5Zw5/eGtsC8I3wviIp3cGUhS0doLLY+f/e+4yKllRefPg24ZjdN/xSf7XuFV7ZHJfODDigPE/tj9GyLH6uzzFYsM1KWllbSXuz0JJnnAxerPvbKSP3jWT2qc/+rvCzk8PKNN4t74SyLxYJ5R/jnTVS8g0E9PrjseDKaymTG2CKPZbCIddneGkq7+6z/DvG9q5mcJNgTUsfAcPtpv/A8NLaZwbvajBhzcb3cJh+Q54nwnQJL8iBALPDas0oTiVSTHzrkT3k1pPGVRJ6Pijw3dXMGHH9HeMBFxTs0Ii7h5ZOv1WQGM8aS/baKSUrJL73Ux1fgCI8ro8xn82KTC/HC3wFLwggMHARExTssFotcWfn5QxqpOdFjkYmFxQHX23FE0oD5toNJd1ixxfNz9cB5kuCWwggIj4AIeYetBJnMYhQXvM+q7o12QOFR+hXJuthTW7duNV86VlXT0Gz9vkNe2bADz6/gB8sOBAREzDtsCONOTruQPRCwBNpII1aifh6lZTUDZ5A3cDoZbmknEYDknU7G3wGpBdiVQRlwEkagPyIAx98RvlcheaeT8XdAGsC8AwIDTvZfBOD4O8L3LSTvCF9Ee5Iw77SHEHy9XyAA++8I343dwDtkbDmuZUVTXWIiSnjNYEkYgb6FAMw7wveXqHiHyaCXpqeG+IIPD2N5w8uJOEo//ZhObzmEhx6W7GcIwLwjfIeKinca0KlbtJXA7r1AWlpmpXdIKr6pVzq6Cw8bjySNRouMjExNTeW5AmcMFARg3hG+pyF55/z5897e3sIXxCWJQfmC9kcH9kW3niw9cdNhuwsXA75W1PezQU9dXd3cuXPt7e1JpF4XB4+ra+BTESEA847wwELyTifjYFDwZU+uuX0orCX9PD4fGb0vgn3aTKHzWdEkvNK9UNLf3//3339XVlYuLi7uherBKnUDAjDvCA+yqHiHrQGRyP77edSVJ6JaQ+X+zO0HKRKJNG7cOGAiaWtry2TyLhPtB62Em9AOAjDvtAMQ6LKoeKeZWPw5OhVdDz5K3gcn9ek4pyDc2iQ9PT05lqyhQ4fCQ5426AyYE5h3hO9qUfEOBuVnNlrHxBR8GI/8o6/vY8MH2JKSkvHjx3N4B4FAHDp0iI8cnNXfEYB5R/geFh3v+BqD38Uf6T6/bx8vsq6urpKSbQLzqKmpZWXBAb94oernOXD8HeE7WGS8U/LQZMx0s33Hjh2zWLt2rbGx8UjVv0yWHelnAXgKCgoMDQ0RCMTvv//+22+/Af+Ki4s7ODjQaHDML+GfQ1hyYCEgKt4hEj6/ehUHDsldnRHzJL41NnG/AJlGoz169GjevHlWVlb79+9HIpFLly7dvXu3qamphYVFTk5Ov2gl3AgYga5HQFS801ZTSmVGwDErw5ETjvbd+MptW8Q+o9FoOS0HjUarq6szNDS8ePEijUZraGj48uULGt0vbei8MMA5MAK/jED38A6zLO7p9oX6+mb3+2v8LzDv/HInwDe0IsBkMhsbGxMTEz09PW1sbKysrDZu3Lhjx44LFy68ffu2tra2VRD+v28jAMk7nYy/w2TQCbUVqIpaMp3BZDKIBAyW0MTov44tMO908j1oamr6+vWri4vLhAkThgwZwvtNQlxcXEVFZdeuXW/fvsVisb3QSaq8vByHA5sWOglJf74dknc6GX+nqTb1gIESQsng6MvMJmz6CXPjReYH3uYQ+iuWMO90uGcpFEpmZubhw4fHjBnDSze8ObKyshs3boyMjCTz7K7VYR265Eb4O7rwMELyjvBF8JXEV4SuVpJWQkiLqxveiwpdPVbZYJHxpFN9dhsbvo0EZcK8AwLjF5IUCiUoKGj27NninK1CEQgpKSlNTc05c+asXLly7dq18+bN09HRkZGRGTRoEEBDYmJiGhoaLi4uvcqIBvOO8B0vKt5hNONRXyPyUGXxAf+sOxVTW1VRi43fP96xn31H5wAN8w4Hil9K3LlzR1lZ+bfffgMIBRjLPHr0qKKioq6uDo/HEwgEDAZTUVERFhZ25MgR8JhISkpq165dvYd6YN4RvutFxjt0YmbMnSO7bW/dundss/ERD1+PIxuHy+yIE161PiUJ886vdheFQnnw4AHHlCMpKblgwYKwsDDBs6fv37/v3r1bXl4eGPtISkoePHiwl1hVYN4R/hkQFe+0zLO45+bqG/3663bhMO8I/8wBLgjPnj0bMWIE8IioqKg4OTnV1Ai1BWhDQ8ODBw8mTpwI3Pvnn3+6u7tTqT0f0QnmHeGfAUje6WT8nQZ0qqPpvC1A4J2Wf09fuRJdAF6eLrySfUAS5p1f6qTc3NwFCxYA0yslJSUvLy9im9AF7RTW3NwcExOjqakJUI+SktLbt2/buUf0l2HeER5jSN7pZPwdJoPeQMA0/Ay+Q6LQ6f04PATMO8I/c83NzefOnQMWtQ0ePNjBwaG+/pf3NmQyma9fv1ZVVQWoZ/bs2XV1PTyYhnlH+GdAVLxDIWalRGdXNIKIh5j3KSi1gMWk0yn9j4Ng3hH+mSstLZ0yZQrAF1OnTi0tLRX+XrAkmUx2cnIaPHgwAoEYOnTow4cPe9apB+YdcO8ITouKdzAo3xUaE833giZa1vOkpTZHkCpe+Jw+7fOigtTzE3LB0PzSVZh3hIfr7t27wGBHUlIyICBA+Bt5JdPS0qZOnYpAIMTExDZs2NCzQx6Yd3g7CCpHhLzDNw7Gs7KQpdIIhPTSkLJ+5dkJ8w7UE8aVT6PR1q1bBwx2jIyMmpqauAR+6ZREIh05ckRCQgKBQEyePLln4+rDvCN834mQd7bpGp738m17JH4n49NDQ0ND0/FkhvBa9n5JmHeE7KPS0lJ1dXWAdy5evCjkXQLEXr16NXz4cAQCoaCg8PjxYzq9x3YMgOPvCOgmrkui4h0KMTs1Oq+qjX2HUF2KgdeFcnXAQDuNi4sDSGf48OGRkZGdb35BQYGGhgYQAuns2bMUSssekZ0vFy5BlAiIincwqEfrNeZtaWPfMZ0sta2/LpSAxztCPqVBQUEA74wbN65LojKi0ehZs2YBZdrZ2cH7CAnZET0rJjreGShxToH+g3lHyOf4zp07AEdMnTq1rKxMyLsEiBEIhBUrVgBl/vPPP42NjQKE4Uu9BAER8s5adfVllqBjnrqB2bGCXtLurlYD5h0hEfXx8QE4QldXF4VCCXmXADE8Hr98+XKgzH379nXSUC2gIvhSFyIAyTudjL/ThP/6Nii+rX0n6cD+f2H7Thd2Xl8s6unTpwBHaGhofP36tfNNqKqqmj59OgKBGDRoUM/u1wrH3xG+NyF5p5Pxd/jad6S7y75Do9FqamrS09NTU1Pfv38f3vZ4+/ZtXl4eGKPq6uqoqKi2Uj/PhJEPCgqaOHHijh07Xr9+HRERUVRUJHz5vPLl5eWRkZE/NWib4pUH19XL04mJicBn76FDh4aHh3de26ysrNGjRyMQCElJyUuXLvWgXRn+ji58b0LyjvBF8JXEoPjYd5AG57sn5nBqaqqZmZmenp6Ojs6oUaOU2x5qamouLi5gtd+8eaOpqdlW6ueZMPKKiooSEhJDhw5VVlYePXq0l5eX8OXzyj9+/HjMmDE/NWib4pWPj493dnb+999/hVxaCdatm9NVVVWc7cZOnDjRydqZTObjx4+lpaURCISKisqzZ88YjB7zz4B5R/jeFCHvcOw7mzdv9/Dw9Q0NLarCC69ZZyQrKiquXLkSEBDw7t27wsJCVNujpKSEK3JCU1NTaWlpW6mfZx2QJxDaRFZst3wueSKRKFgfLvlXr15NmjRp2LBhkydPvnfvXnNzc2fQE+m9DAbDysoKmGpNmjSpk2bgxsbGnTt3iomJIRAIPT299PR0kSovuHCYdwTjA74qKt6hkgoKMqrbrvaj08hUUewpRafT6+rqevPLBkZcdOmUlBQLCwsZGRkjI6PP/2/vXMCaONY+HqCooAQJtxjuitQitF5aayuCFfw+rAp4K1B9lCpajtJj7bGt1IqKWCsqFWP5gCppSy0U5KCIQEFFQERUqohiJCjhEsIl3IwkkGyyX8PaGAIhm7C5gLPPPrDZvDvzzn82v2d2duad27e1ITTEkIX9448/Jk6ciPTIxMbGKt1CEQqF169fnzFjBjJPYuPGje3t7UPmqJ6TgDvodVYVd3rar//xf2m3nja+3Gi5p8LTK2FBTw+L1dODVWv4+fPniYmJ3t7excVjNaYY+tqEuVzuxYsXly9fbmNjk5CQ0NmppgamAi7CMJPJRBY7RCY3KD2K5+9QhKGhoUhvEYFASE9PB/NCFaoIDRrL5M4I4++waineZqS5Hl4vtwWvG4xfn91VFR26YkVodFUXZ+TF5nA4YWFhJBIpLCyssbFx5AmOjRQYDEZ4eLijo+OhQ4e0cBxdX18fmUxGJjfo6+tv3LiRwWAoofyPP/5oamqKPLKtXLlS45AF7R30lSiTOyOMvzNkvzIOF5hOT/LUx+H0PZPoLPReDmkJQdDJkyfxeHxMTAwYtSElUU9PD5lMJhKJqampUl9pw8f6+voVK1Ygcb8mTZq0e/duRWswJSUFIRcOhyMSiZi8kh+hMoA76AVUFXc66pO/XBqYdLFg4EZr4POZlZWVlcwRrh4uFArz8/MXL14ccTCCxWpTbpe7hDmfz+tob29ntSm39/SMdOwsn8/r7GC1s5qV2BmNdZ99Frpz5070d4M6LQsLC+3t7ZHWir6+/tatW1taWuTWiFAobG9vP3nypBg6eDyeQqGo03NZeQHuyFJm8HlVcQfqa26u71bdKMHOzs6VK1eGfRN2+U5m/l/pSuzFdy6zWHIi1LU2M6klf9ILUpTYqwvP1zyqHKy4Qmc6O1of3viJemX748shiu4Pr+2nPrwl95eskD8YGguFwvT0dPHcdBwOt3jx4jNnztBotCF7xAUCAYPByM3N3bBhg4mJCQIsAoEQERGhaFsJw1JIJgW4I6nG8Meq4g677SblwC8FNytebkWZx7dTsFof/cKFC6+//nrCT/Hn7/6Ucu+4Env+X+nyucNsqr/y2/MLB5XYW7LJTx+OdDxuZ0dr9dV/MdLHNZ3DKbrTs+bW025oMC7E8HceDMMQBF24cMHV1RVZHEJHR4dAIHh6eu7Zsyc5OfnGjRtUKrWmpubOnTtZWVlRUVF+fn52dnbiRW9MTEwiIiJYrJE+sMv1E6UB4A5KoWAYVhV3WLU/e403MjW3fLmZTTbQXYfVfHRXV9cNGzbcq7gLuCOLR9rPHQQ9N2/eXLJkCTIGB3m5Pm7cODweb2lpaWdn5+DgQCKRTExMDAwMxMTB4XBTp05NTU3VkpYO8nsD8Xe0gTuUxfr6E40kNgP9CZM2YPKuu7Ky0tjY+Ny5c0/pTwF30HCH17+hvy3UbMlkMo8cOeLo6GhoaCgJF+RhSvxXR0dn3LhxNjY227dvp9HG6hRjNWuvmexU1d7pasrat2HrCYrEFr117TaynA4VdCLk5ub6+vo2NTUB7siCTtM5nLi909vb+9tvv2VkZAzZb4JOcnVYUanUmJiYVatWubi4WFpaGhsbT5o0aeLEiXg83tzc3NHR0cvLKywsrLi4WKuaOeqQZszloTru5B759ETegP6dX9zei8Skf4fH4yEhFAB30HCHw+Hs2rXro48+kppdoYU3MwRBzc3Nt2/fvnTpEoVCiYmJOX78eHx8fEZGxvXr1+l0uganfWqhXKPXJVVxZ8j+HT3s+ncQxQF30HBHIBCQyWR3d3fNLreg6I8EgiAej9fX18fn8zU7EFlRz4G9XAVkcmeE8XdYtZL9O3gzM0tLEmnZZ2lyHVLIAHAHDXdgGE5KSnJ2dmYy1RMOQKE6HDvGIP4O+rqUyZ0Rxt/pbs4+vHUH0r+TlPR7UVFFBZ3eh3Wsf8AdlNxJS0ubNm0amEqC/oehhCV4j45eNJncQZ/EIMvuNhgSQN3dHdwXS/NBELe5m4vRIEIOh1NdXY1MOwLcQc8de3v7hoaGQZWlXScgCOrq6mIwGFQqtaysrLCwMD8//8qVK6Wlpffv36+rq2OxWFrbxQO4g/5mwpo7zPJd6z2s7T/LLI1eNPeDHWnlbH5D9HI7WysbW/cdpS1s9J7JsiwrK3N2dkZWaAPcGRvc4fP5Dx48SE5O3r1797Jly9544w0ikWhubm5mZkYgEExNTc3NRSPBHBwcFi5cuG3btvj4+OvXr7PZGNxOsm4zJc4D7qAXDVvuCOuLKT5rtxzbtUYUXgWnj397U3yYh+6ECUZGRgYG+q5f5ow8/k5JSYmZmVl2djYMw6OZOwJqRV1cLusZrysu+v7VJhiGe86S750dEB8Vxmq8clpamoODg1a1dwQCwfPnz2tra2NjYz/88MMpU6aIx+mgOTA2Nn733XfDwsJu3brV1dWlDcOyAXc0xZ2+u+mnyZR8NlQQKLp3nL6gxH1uP9/v8GEKhRIdvXXOrLCRTliCYSqVSiQST58+Pcq5g6qOsOLO2bNn33zzTS3pVxYKha2trdnZ2aGhoTNnzkQC6EiyRl9fH4/HW1hYkEgka2trKysrIpFoYmKCrKouaamnp2dlZRUQEJCUlFRbW6vZyWiAO6ju6X4jme0dpeLvcG5Q4uIoNzjwAO6QH4lGC3bXZ3qQto18ngSTybSysgoPDwfcGeYhS3LcIARBZDJ5/vz5ra2t6O8M1Vnm5eVt3LjR3t5eamgyiUTy9PQMDg7eu3dvbGxsSkrKxYsXc3Nzs7Ky0tPTz5w5891334WGhvr4+Dg6OornVSAYMjU1XbZsGYVC0eDDF+AO+ntGJneUir/Dq8xMjKHkPOOLuXMt/d92xkRre3t7G5KZnh4G87MgCJo+ffq6desAd1Byh8fjHTt2zN/fX+ORsdra2v5mioWFxWuvvSZutuDxeG9v7/j4+Hv37rW0tLDZbC6Xy+PxIAgS/rMJBAI+n9/b29vT09Pe3k6lUjMyMoKDg21tbcXw0tXVxePxgYGBDx8+RP8DwNAScAe9mNhyB2aWpxyOOXXvcpQLDqdHei/6z8f8htQPp5hPHG+ANzM10ls/8vYODMMhISE2NjadnZ2juX8HVR1h9ZwFwzCHw1E6kjEqX4c1giCovLx8+fLlYuLo6+ubmZlt2bKlqKhIuVdUQqHwyZMnR44ccXV1NTQ0FIPMwcEhJSVF/YEWAXeGvQUGfIkxd2C4o5gc4feeywxnl9WfR1UwRC/P2TU3f4yMPlucHe6x//aA3JX8UFJSQiAQMjIyAHeGafKI52cpqTJ2l0EQlJGRMWfOHKRtoqura2NjExISUlRUhMmUserq6iNHjsyaNWv8+PEIfYhEYmRkpJpX9QHcQX/LYM4dGOZymY9v3yy7zeiQGrHDpZU/xuTNJ4/HmzNnzpYtWyofVIL56LLQoyXc6evrS0xMtLW1FbdHvL29MzIy2tvbMZz90NfXV1ZWtm3bNiMjIyQjExOT0NBQdU4NAdzRKHfQZz4Cy+Tk5L/fdPx0OgFwR5u5w+PxEhMTLS0tERZMmDBh586dLS0tqnjtLRQK2Wz26dOnLSwskOzGjx+/efNmtfVqZWZmanYBrxH8ntR9qQraO2opQmdn5+rVq/cf2PdneWrW3V+V2Av/ym1vlxOqrq2ZWVOc2ZT3kxI7/ervTzGIc9r26PrRmpylT3K8FN0fX95aVVFUUFCg/p4O5BYQCAS5ubnTpk1DKIDEJFWDM9nZ2TNmzECe6QwMDA4ePDjC1QHVcke/WpmMVu4IBILy8vIbpSX1jXX1DUrtjXW9vVJPgtJ1z+H0NDXWM+rpyu2dHSNdRq63l8tsojfW05TYHz4o3/31l3Z2dhUVFdIFU8vnx48fu7u7i596Dh06pJ6mB5/Pz8nJEXcnWVtbJycna3Zoj1r0Hk2ZjFbujCaNNeFrb2/vqVOnHB0dExISVPFQI7dMHA5n06ZN+vr6yGKee/bsUQ+E1hLBAAAMHUlEQVR0EMf6+vpSU1Otra2RwKnz58+vqqqS6zMwUJsCgDtqk1qtGX3zzTfm5ub79+/XVGi+5ORk8UDkwMBA9bvB4/F++OEHJGK8np7ejh07NDiMQK11Pxoyk8kdHx+fTz/9dDQUQeRjT0/PpUuXampqXvFV0nt7ex8/fuzv708gEDTYr9HQ0PD2228jT1guLi5UKlUjNxKPxwsICEA6eoyMjIqKilTqBoi/g15emdyh0+nKrR6LPm8MLauqqlauXOno6Lh///6SkpK2tjYM39Fi6KfqkmIymYWFhQcOHHB2dnZzc6NQKBp5vEKWiIiLi5s0aRIOhzM2No6JiVFuWCAmWt25c2f69OkIAf39/VXa7ALv0dFXmUzuoE9CGywhCKquriaTyXPnznVyclq2bNnevXtjYmIyZGzZ2dnNzc2SntfU1MiwFZ0ebF9ZWalV9vv27XNycpo3b96JEyc0u9ZCY2Ojn5+frq6ujo6Ou7t7dXW1pM5qPuZwOF9//TUynnDKlCnFxZgsaDJ0IQB3htZlqLNjhDtI0fh8fnNz89WrV7dv3/7OO+8YGhpOlrE5OTldvnxZUpDY2FgZtqLTg+337t2rVfYlJSWFhYUtLS2YjACWVEahY6FQWFhYiDQxJkyYEBkZqcHGDgzDQqGwoKAAeZeP+KO6Xh7AHfS3ypjijlSxkWhSpUNtd+7ckXq90tTUNJThi3OD7el0ulbZS5VdUx/5fD6ZTDYwMMDhcBYWFqruUkFTTCaT6evrq6Ojo6ur6+Pjo7reA8AdNNWB2Ixl7qBXAVhipQCbzQ4ODkb6Uzw8PLQh8gYEQQcPHkRi97i4uCCRKrEqr2Q6gDuSagx/LJM7SsXfGT4v8O3YV4DFYi1evBjhTmhoqJb07qenp0+ePBmHw9na2ubl5anIK8Ad9Pe3TO4oFX8Hfb7Acmwq0NTUhHTu6OjoxMXFaUkh7927h0zaIhAIP//8s4rGLgPuoK9uwB30WgFL+QrQ6XQikYjD4XR1dTMyMuRfoBYLOp1uZWWFw+H+XvU4OjpaRV3dgDvoKxNwB71WwFK+AnQ63cfHx83NzdPT89atW/IvUItFW1tbQEAA4lVSUpKKXvkB7qCvTMAd9FoBS/kK9PX1PX36lEajPXnyRA1Tz+U71G/B5/Pr6upoNFpNTQ22cX8kHQDckVRj+GPAneH1Ad8CBdAqAOLvoFUKhgF30GulAkuI01Jf18Ie+apiKvANJAkUUJkCgDsiabmMitTff71KGy4KKxobhaupOW+1FWF1Yq3CF4ILgAKjWQHAHVHtNedFWhHGD//7R2Oj8J0AuKOwZOCCsaDAWONOR0NawAfr08qZClUOxOmqr6MP/7yDxkahTEXG8rnDTNu1fua/0xROGVwAFNBiBWRyZ3TF30EU5rNb/io+Ot/B7Wh6aW0tg82HBTxOS1Mrm9/TWltb29jM7oVgGOazRZ+Q7cWaF33shvo6iWMWR8BvZyImonREGxobUeIt/6Qt+l/fwhZlKbn19+n0f9fUVZu1SvI5i9shvraVzRcKoK7WO0fXuE30OVpbS29q6eIJRAkN4b9k+uBYQwqA+DvohZfJndEVfwcpcFsROWCNGxFPcvtwbVDQvqI2uPvhpVXz3Dcf3b7FOyhod1QxrYNNuxob8R//INHm7TppVcRV0RpfFRR7S6MwZFFB0bHXroTYsM/8g4L8F9g5b48r74BR2XAZFbH/WrpgTVDQOr/ZdmZ6Dm47yUXdkrXB66w4//28uf8bFBS0bsPWXV9vmm0yEXm+E/UfxYSv6XfM181xUUgitbXrUlyomyNJ38EtKCj4ADmTwYWH9l8yC3CsIQXAe3T0wsvkDvoktMqSVUtZ5ORFudGIeNXPHQt7393iBy827WrqVRoSz535546ZFrPibncP4o6RT3hq/6KDXFrsR5NJH2TWD+bOYBvu7bgtFp5hou5pXmdWhJ/J0ijRyvASW0dV1vp33bam34VFJg3nv19nMlH/JXf+rEB6tjvK49wsbHdkt8FwIyXIyyiQIk5jaP/FX4MDzSkAuINe+1eBO+98mVM3tCK1ie8TrCLzmgdx57142j9X0OLfNrU+fKUNhc3TvMhVhKAXjKigBFl6hA98U8V/lHNsvt/2R609SOpQw8XlJJMh+rNf9vtIc+cft/r/i/0fcBZ80IwCgDvodX8VuPN++LUmsSLcjobUL961tLEXbdZm+KG54/Hy1bb4ty39LDbYhtlwMZxkMjequLa2Mn/36kV+x0rF+fYfcG5QvnBa9EUti/Pi/Eu+wH3sthvHfM2s+x2zsTTU0+3nkTR3hvZ/YDbgk0YUANxBL/urxp2OswHWlh57HiCdLgowZXCbaBB3Lt07u9P7rUVIF03QV3GXujhSfcp9Ff89OHvexlLmM6SGuI/OuhPx/XzpKTi81vSNdUXIg9lLHklxR4b/6CscWKpMAcAd9NLK5M4ojb/T2XjRb+6CmHwa8ovv79+RbO/QTywikT4g14sUqk8LWUrCsL1z6eaP6zxc3F5wJygoaN9/H0nVRA81Z+17s9yOikKschkVUZ96GI7X6+cO6/xXKyY7/af/go5i8uevGyLjifrP/4+4n0iG/1LZgI+aUABwB73qMrkzSuPvCHrbUvetdbS0srNfntqAvM+S5A7EbindOcuYJHqaeX/vuQtfug/ZvzOoLTNEH9BgGwa7+JTNptgX78Jzjk51nBaS2jCgMqDetgfJ3tMc7e3tbd1WxWb9us3arJ87Ak5X1bGl04gix97aHEne70V8cb4mfZmdnbW9k28ImcaW4f+APMAHzSgAuINe97HGHfQlx9xS0FER7vvx98XiIYtN8cut7F+8nMc8N5Cg1ikAuIO+SgB30Gslx5JLy/df4LW5/x05DMMdtOQ1Uxx8KdKPWnJSAV+PWgUAd9BXHeAOeq3kWfa0FJ/+wmyWV//QvyBft+WhJ34fdqqpvATB96NKAcAd9NUFuINeKxSW/XMp/pnrwGTz++c1oLgOmIwBBUD8HfSVCLiDXitgCRQACmCjgEzuuLu7r1ixAptMQCpAAaAAUEBCAZnc8fPze+uttyQswSFQACgAFMBGAZnc2bZtm52dnfaE5samuCAVoABQQAsUkMmdo0ePzpo1q729XQucBC4ABbRdgY6OjqqqKhWtkKPthVfcP5ncodPplZWViicIrgAKvIoKxMTE2NjY1Nf3z8B5FQVQrMwyuaNYMsAaKPAKKwBBkLu7+5IlS1S0AvLYkxZwZ+zVKSiRuhUoLCw0MzNLSEhQd8ajNj/AnVFbdcBx7VCAy+UGBwdPnz5dRcuua0cpMfZCDnc4HE5JSUlzczPG2YLkgAJjQgGBQJCTk+Ps7PzLL7+MiQKpqRByuMNkMlevXv3xxx+DF+pqqhCQzahSoKGhYdGiRWvXrgVvfhWqNzncgSAoLS3N1NR0586dCqULjIECr4ICq1atmj17dllZmVAofBXKi1UZ5XAHySYyMpJAIHz77bcsFgvoi5X0IJ1RrUBra2tgYCCRSExOTh7VBdGI86i4w+fzo6KiZs6c+cknn5SWlkKQVNhgjXgOMgUKaFKBa9euLVmyJCkpCfwclKgGVNwRLfbE42VmZi5cuNDV1fWrr7568OCBQACCPCghOLhkjCjA5/NramrGSGHUXgy03IFhGIKg1tbWqKgoS0tLEokUEhLS3d1Np9PV7jPIECigbgXu3r1LoVCoVKq6Mx6j+SnAHbECTCYzKioqOjr6+fPn5ubmBgYGU6dOdXd3XzRoi4+PlxrUMMhkwAkp+9bW1gFfD/qgbfYpKSmSrW65/kvZP3z4cFARB5xQtX1OTo64lmEYluvPCO2vXbs2oHiDPkilj6390qVLr127JlnewekvWLCASCQaGhpOnjzZxsbm/PnzkvbgWGkFlOGOZGZpaWnR0dHfy9gKCgqkRo7LMHxxWsr+2bNno8u+rKxM8vFTrv9S9gwGY/jyqtr+/v37kpUr158R2lOp1OHLK5U+tvbHjx+Xar/ISv/EiRMXLlyoqqqSupkltQLHCikwUu4olBkwBgoABYACMAwD7oDbACgAFFC3AoA76lYc5AcUAAoA7oB7ACgAFFC3AoA76lYc5AcUAAoA7oB7ACgAFFC3Av8PA/wv91Yci6IAAAAASUVORK5CYII=;" parent="1" vertex="1">
          <mxGeometry x="-320" y="150" width="420" height="278.9" as="geometry" />
        </mxCell>
        <mxCell id="_ww6I5lQIW8gpJn7JbcI-23" value="" style="shape=image;verticalLabelPosition=bottom;labelBackgroundColor=default;verticalAlign=top;aspect=fixed;imageAspect=0;image=data:image/png,iVBORw0KGgoAAAANSUhEUgAAACQAAABqCAIAAABbMGTTAAAAr0lEQVRoBe3SsQkAMAzEQO+/tLOBUBFcKa0eDEdmD98c3tqOfdGOMUYU6IMgj40xWincxYg8NsZopXAXI/LYGKOVwl2MyGNjjFYKdzEij40xWincxYg8NsZopXAXI/LYGKOVwl2MyGNjjFYKdzEij40xWincxYg8NsZopXAXI/LYGKOVwl2MyGNjjFYKdzEij40xWincxYg8NsZopXAXI/LYGKOVwl2MyGNjjFYKdw8qXI3dSrzd1gAAAABJRU5ErkJggg==;" parent="1" vertex="1">
          <mxGeometry x="-300" y="270" width="36" height="106" as="geometry" />
        </mxCell>
        <mxCell id="_ww6I5lQIW8gpJn7JbcI-28" value="" style="shape=image;verticalLabelPosition=bottom;labelBackgroundColor=default;verticalAlign=top;aspect=fixed;imageAspect=0;image=data:image/png,iVBORw0KGgoAAAANSUhEUgAAAKYAAAAnCAIAAAAKBqRdAAAAmUlEQVR4Ae3TAQEAAAiDMPuXvkGGDQB/6zADh/GGu5JzT1DyknMGOOBWXnLOAAfcykvOGeCAW3nJOQMccCsvOWeAA27lJecMcMCtvOScAQ64lZecM8ABt/KScwY44FZecs4AB9zKS84Z4IBbeck5AxxwKy85Z4ADbuUl5wxwwK285JwBDriVl5wzwAG38pJzBjjgVl5yzgAH/J2klojkr18hAAAAAElFTkSuQmCC;" parent="1" vertex="1">
          <mxGeometry x="-97" y="-420" width="187" height="43.93" as="geometry" />
        </mxCell>
        <mxCell id="_ww6I5lQIW8gpJn7JbcI-27" value="&lt;font size=&quot;1&quot; face=&quot;Times New Roman&quot; style=&quot;&quot;&gt;&lt;b style=&quot;font-size: 26px;&quot;&gt;Central Server&lt;/b&gt;&lt;/font&gt;" style="text;html=1;align=center;verticalAlign=middle;resizable=0;points=[];autosize=1;strokeColor=none;fillColor=none;" parent="1" vertex="1">
          <mxGeometry x="-120.5" y="-416.07" width="190" height="40" as="geometry" />
        </mxCell>
        <mxCell id="_ww6I5lQIW8gpJn7JbcI-29" value="&lt;font style=&quot;font-size: 20px;&quot; face=&quot;Times New Roman&quot;&gt;&lt;b&gt;Reward&lt;/b&gt;&lt;/font&gt;" style="text;html=1;align=center;verticalAlign=middle;resizable=0;points=[];autosize=1;strokeColor=none;fillColor=none;" parent="1" vertex="1">
          <mxGeometry x="250" y="-110.5" width="90" height="40" as="geometry" />
        </mxCell>
        <mxCell id="_ww6I5lQIW8gpJn7JbcI-30" value="&lt;font face=&quot;Times New Roman&quot; style=&quot;font-size: 19px;&quot;&gt;&lt;b&gt;Perturbed&lt;/b&gt;&lt;/font&gt;&lt;div style=&quot;font-size: 19px;&quot;&gt;&lt;font face=&quot;Times New Roman&quot; style=&quot;font-size: 19px;&quot;&gt;&lt;b&gt;Gradient&lt;/b&gt;&lt;/font&gt;&lt;/div&gt;" style="text;html=1;align=center;verticalAlign=middle;resizable=0;points=[];autosize=1;strokeColor=none;fillColor=none;" parent="1" vertex="1">
          <mxGeometry x="64" y="-119" width="110" height="60" as="geometry" />
        </mxCell>
        <mxCell id="_ww6I5lQIW8gpJn7JbcI-31" value="&lt;b style=&quot;font-size: 19px;&quot;&gt;&lt;font style=&quot;font-size: 19px;&quot; face=&quot;Times New Roman&quot;&gt;Generated&lt;/font&gt;&lt;/b&gt;&lt;div style=&quot;font-size: 19px;&quot;&gt;&lt;b style=&quot;&quot;&gt;&lt;font style=&quot;font-size: 19px;&quot; face=&quot;Times New Roman&quot;&gt;Data&lt;/font&gt;&lt;/b&gt;&lt;/div&gt;" style="text;html=1;align=center;verticalAlign=middle;resizable=0;points=[];autosize=1;strokeColor=none;fillColor=none;" parent="1" vertex="1">
          <mxGeometry x="460" y="-119" width="110" height="60" as="geometry" />
        </mxCell>
        <mxCell id="_ww6I5lQIW8gpJn7JbcI-33" value="&lt;font style=&quot;font-size: 17px;&quot; face=&quot;Times New Roman&quot;&gt;&lt;b&gt;Pre-training&lt;/b&gt;&lt;/font&gt;" style="text;html=1;align=center;verticalAlign=middle;resizable=0;points=[];autosize=1;strokeColor=none;fillColor=none;" parent="1" vertex="1">
          <mxGeometry x="-320" y="260" width="110" height="30" as="geometry" />
        </mxCell>
        <mxCell id="_ww6I5lQIW8gpJn7JbcI-34" value="" style="shape=image;verticalLabelPosition=bottom;labelBackgroundColor=default;verticalAlign=top;aspect=fixed;imageAspect=0;image=data:image/png,iVBORw0KGgoAAAANSUhEUgAAAaAAAAD3CAIAAADUqBf1AAAgAElEQVR4AexdCVxM3fu/eBEptKdoUirJkuxCqZeE7ApF9tfvtf0tZRehRShLtlQSrUS0UNr3VYv2fZ+apmVqptn/73Q1ptnUNDVT3fvpw7nnPuec53zPvd85y3OeA5Cha/Ag0NzcXMv6unHjRl1dHW1t2MvD4XA8Hk+VJ5FITU1NrLOv5Tf5+vp6IpHYc/3p5IlEIhKJZFNfPpSnVpZMJvdEf1p5AoHQ2NjIvr79Kt/Y2Mg0/7q6OjQaTfuIi2GAi3lBWXERATQanZKS0tTURJvnvXv39FhfO3bsqKio6Ln8rl27aOXRaPStW7dYZ6/Hb/LGxsYtLS3U+v5Rfzp5JBJ55coVNvXlN/l9+/ZRK0smk/+oP518dXX12bNn2dS3v+XPnj1Lqz9Vn3Xr1hkaGh46dMjBwSEtLQ2LxdKK9TEMEVwfAeR+8vb29hcvXsycOVNRUTEwMJC2gISEhHesLz8/P9oPnkwm90oej8dHR0ezzv4dXf48l//48WNHRwcVnz/qQyePwWDCw8PZ1Jff5D99+kStLJlM/qP+dPKtra0hISFs6tvf8iEhIbT6g/rcv3//1KlTJiYm8+fPnzhxoqSkpKamZlBQEIFAoBXmOAwRHMfQcT8hGo0ODw/X0tISERHZuXOnr68vXa+e+0VCOUII8A0CjY2NL1680NLSEhISMjQ0LCkp6btqEMH1HUPu5FBdXX3p0iUJCQkjI6OgoCAcDsedfKFcIAQGFQLNzc1ubm4bNmwICAjou+IQwfUdQy7kUFBQYGxsLCsr6+joWF9fz4UcoSwgBAYzArW1tVxRHyI4rsDYp0xaW1sPHDigpqYWHR1Nu6zZp0yhxBACEAJkMkRwvH8LXr58KSMjExAQQCKReK8NpAGEAJ8hgMPh4HA4rUlQzxWECK7nWPWXpJeXl6OjIwaD6a8CoHwhBAYzAgkJCerq6pmZmRxUAiI4DkDjchISiTTYR6YYQlsbvolEhnqgXH43oOzIZHJFRYWKisqJEyfa2tp6CwhEcL1FDJL/hQCG0JbZGPG20OLujz026bts0o3u/tjjkmeeUh/YhmuGYIIQ4CICb9++VVRUjI6O7m2eEMH1FjFInowhoDIQYfcyTC4l6jD9u522LarGqw0H9emgt4U7CNTX1y9ZsuTu3bu9HetABMedBuAgFzQa3draOrgWFkhkYnVbwZuCa0x5jS7ySfY/Ja0/CKTf2105QAlKAiEAbtswNzffvHkz3ebFP4IDEdwfIeovgdDQ0P/7v/9rbh5Mo7nKttwXOaeuJP1Nx2VMby8n6tpnHshrSiCRfm+J7y80oXyHNAIkEun9+/dKSkqVlZW9qihEcL2Ci2vCBALh/v37y5Yta2ho4Fqm/ZxRO77FKffs5cQesVsX5ek+yNyP6Kjqi2oYZOUtI3l5o1uVyF4vNPuekpdfbeybyh2r0b7U4o9pa1N9jVfLy5/y/aPk8BSIiopSUFCIj4/vVfUhgusVXFwTxmKxFhYWW7Zs6W2Xm2sa9DojUljVmy7a6jb1djF61YlPy//t/DsRqs0o41FoST9QJXQ0//xud0R7NkC5YLAl5x9+Q7EYy6IRpWe0AEDrTCmi1051XHYBgJKuS1yfGJY5VARsEzze7+EOGAzWWQlgzBJN49s+hQgOd4lXxbnoKgHALhcymVQR83G1oihg8LSIednDMfbHjx/q6uqfP3/uVeUhgusVXFwTbm9vP3HixKFDh1AoFNcy7c+MGjCVN1I2MpLXpcBFaw9JTV8kOXu99Oz10outljKRSdT5iYz5rR0RVxnlvGeW1GhAdPnabfv27dtp8PcsmaXOpb9FaEP9TXCowkhXV8+orEpcL0bS7UWBr7aoC48eK7Pob4Pd+yiXwYaV8iu3ckymNARHKAx5vlxWAJA/m0sLRM/DyCJfr7ce3uHVve7y9ryMgZbMz89ftmzZs2fPelUwRHC9gotrwigU6uDBg+fOnes/V39c07Uzo6CK50yYK2zJ2rUTp2xVPvSFSceNVt4p9yyxayYO21Jzd890AUDSwNytoJbC72hkddK34AIWVN/fBFdK6eZJ7LYJaOmxfwNMdfypNcqjAWDztW851UgwHRJRHBEbVwhv5wx5GoIjt8Mrg997OEcUcpYVOcMFJikkIrPtWzf/pxxmxifJCgsLNTU179692yt9IILrFVxcEwYJztzcfFBsYMATO+5n7KUlLDB8+umMSRMnrvVezfiILuZO2o469C/vN43lHmsEAAC2LaicYYEFVehrfcpIWVleXl5+wQKjmz5IFJ6O4FC1qdZXVisryyurqV9xjepkyMoHG3/PtdHO2dEOUZFpT/7V0lpAyVpezeSwbxRl9jPedsVU8QkAMGqCiKQcTP6Yd+ccdkOU7WH1TsEFRqeeZqHoOkKY5HeX1MaOAgzuMpsVbPA+tlRt4VKrtz6bVy+Q3/iAkiOzelGia1OtjVcry8urqR+2t7HrGqKS6efjmOkDypzyTfB/cEqLoqvWqQdpZHJnWk3xv0aNHPmXoNQ0ea1Tz+CsBv9ce50HIiMcDldTU9PbRTmI4AaibRjLGFwEV9NedCdtGx1nXUpcteuo+Dj16Ue//pqA+zdg1QUWlnE3UwwyG8NBHGoirikCgOJumxr6LhM+P+Sh7kxJ6WnT5OSmTZGYTOGQp7m0BIdtKrHYBAMEBCWnTp02VWqS+jo3yvxa6TWN33NttPI0BFdprSMqLi07VU5OTk5m4hhgurZxZBkh3ma5jKggAIwSnCwxdZrcUe9KXEnYnlXTx0yUlJOTmyorNV5gNGDwsBtF4FoCbHZLAMDim9FkMgmHbqmtLPt1VdehOqqdt8kAADBq7HiJKVPl1t+vJDOvF7Gt5uk/SwBAQFSSUhdhwb8oc3mUOTgyTW+OxEqfXzIAME5UUnbqFNHxY0cCwMkgTG2qz57lohSCGzVeQlZu1cmnQ4PgGD+insRABNcTlLgvM7gIrqA52TJ1MwPBrdxuIiYwb8qqPRKUCThdkYnyknqOy8yYcdz1ZP24ug8gjqwJjoxGln374O7i7+rq6nznzM7pwpQPnpawauNvqwAC8nuuZLagseiiL36uPwqRPSM4cmmSt8sbV1dPV1dXu02w34TYbYhKxCS+NVcVBmCbLri6uj57cGXBLCkAgNln0bwDXQS3/lEWmYz7GWCzSAJcZgDzTKUQ3GgBdZMbP6p/rYowrVdjnscaSUBIfs+3zBYsusjp5lbpzvp2IzjW+vwiONG5t6JyW9DV/qf+njQamPbvZ0pvcygOUWkaoBdBiOB6ARYXRQcXwf1ExtxM2cRAcJob1ouMkRLf4qtFeRSlqac7drzStP1h3dZYwVTXktdF1niAANZnPVoIAML6lyqQvx2Odz4iVGd8/D/92bJSo7oIg57gupHR7/boSQ+uwefieg2YsIBAV95dq6vd8uxAel7Sp4p0iXYnOGJb+NNjMAAQPepDJhObKjM/ezg7O981+EWanQQnJGnqktGlIPN6gUS/8NjT+jbK6gZNr40mzFqfX/Ia18C1mQwXU0khQGabM2XaDSK4LughgutCYmD/H1wEV9SSeit1CwPBrTI8JC6gJv+/ri7bPxfEx0lI7ApiQnAWyesT4L+OFGiuDjGEAYDAHNvY7nPg+NavD0ynjAIMTnqUlJTE+d5dLt9DgsO/3P67R0bb4/s9RK18pzkWkJ+r5/sts6Sk5K7Bb/luBIdr9r9jKAoABnejSn5f1a3dTFhIZZHPteQBYII2OGXX+e5QSZaB4FjUCyQ4rTMuoPULc4JjrQ9EcD35ZCGC6wlK3Jdpa2szMzOztramPTaF+8VwKUc4uvxO2nYGgtMyPiE5bqzkrjiQ0VYfPS8+TkJq9zcmBHczZdNvSxEM0uuawfixo4DZBp4xlMmrlOA3R7R1nHMb3c3XjAYAAzvPorzsu4c2iXbOSdESVl2s7RwBAFhyyDM9rygv/a7tFf9OGzePA4IAILrpgkt2UYzdqU7ruk67ud8EF39DEACma+p9SMiO8bxLkejqwZW92fsXJUu79LyyehTq1wLC7FOdumWnBFv8vdaG3oIFVfBov86kUSMFxf62CE7JplTC02A2zRCVtgeHYV4vZLnnOsG/ANgmO7/svGy/Q5RhM+McXNeCBoM+7Agu201JUkhQTNYuuKyqoYVAHApeXlAoVGhoaG5u7yxnIILjEgcM6WwIJNyT7GMMBKdz9t2saSITFlhR5t3MAjQWzBktqzf7eFeHjlbeOt2wsaOGChK6+oft6W2zZKaAY0AhISn1lcejGrCFYU7b1KRHjwKAUaOl5ZWkxYTp5uCwKLiTubaymHCnyFhlg9Nfc5BkMhkeZr9cXqpzaCk6e/GG5apSoGHwb4Ij59rrL5cS6ixQVH75XHkqwSGzPbaq/kp7yruhu24CQlIzVx73YrLdpCL60Yk9K9XlhcA8AUBqyhR1o9Nfc3Ipc3C0BEdmXi8CuumjtalaZ11Gj526fLm2gjSlvnTDVVb6sCO4liwroyWUnwdAYMnB5/UoDm2Pqe3FDwHITIQfWmHI6hBWzXQbw8oDd6bDpCapbpBWXSymelDpQCCT7tulRB23git03uJA2zfnzsvXNyijGEHBDtdemBz85rWz8+s3wRGxwZ/fO0cUEjpQiUHOzkGJqA4CmUxsbyqP+/y+U+RtXE51e6cRGhHXURARRJkKc/ZPyUUUJgaB8oURzs7vg0HbtI76wiDfzvL8IwrTIqjxREJHQeKvtAWde7podPPwDUosRrAykEMVZ0T4gnk6OwcGB/8orW7HoQvCvJzfeERTVj+6Lmb1olS3CZ7cWZc3b0MLC8qjgyn1JZPJ7fDC4PfOVDs4pvr8kvFPA80HkYXRHm+cvcIKwHUNVG2KP6WuHhGJlbihwG9kiOC6Xibo/35AoB3fwmwaTudSovbpj8v/pfxpnolmaRBXgcrpB6WgLIcRAhDBDaPG5klVI2s8ryatpR149iR8OfFvzyJLnigMFTqUEIAIbjC1JolEam5uHlz+4DCENq+i273iuMuJfzvlnm3GQgchDqaXkz91hQiOP9uFuVZoNPrBgwevXr3CYrHMJfgxllSPqXhTcPVK0pqe9d10n+ecrkTl0s2+8WPNIJ34HgGI4Pi+iWgUHFx2cFTFSWQSCof0KbbpCcG9yDndgKkgkXvho4NaEBSAEKBDACI4OkD4+naQEhwV04KmJMfsfy1TN9GNWK8k/X0zxeBBhmkyPJAqDAUgBPqOAERwfcdw4HIY7ARH8XGER+U3J36rfOVTbP2m4Orr/Ms+xdZfyhyzkVEoXOPAQQmVNDwQgAhuMLXzECA4KtwkMgmNR7Xhm6HRKBUTKMB1BCCC4zqk/ZjhUCK4foQJyhpCoAsByB9cFxKD4X+I4AZDK0E6DnoEoL2ovGlCiOB4gztU6jBDACI43jQ4RHC8wR0qdZghABEcbxocIjje4A6VOswQgAiONw0+uPzB8QajQVgqkUhsa22pLM7PjQ8tyUxCNsAJ+G6uMgdhnfhFZcgfHL+0BKTH8ESASCQ2VBQVf3lW9vRQrY1+lb1h8dvr5VlJOBwrb0vDEycOaw2ZiXAIHJQM+gK58g6gWluKvjyrt1zZeFUd/ENc0yh/dqS8uIBEGgo+dbmCEseZQATHMXTDNCGJRKqtq/+RkRmX9ONHRlYdvAH6DvvyKlTkZVY83kdlNyrH5Ud9HizHe/el+v2dFiK4/kZ4SOVPJBIzfhY/eJOw+WLMmjMx2y7HPnBLyC+qIBKhvfEcNvTPmK911mvoCK7xqnqR551GBBOf5xwWM1yTQQQ3mFqe5/7gyiqqbr5MXHOGwm7gn/75GBuXhNq6TtfhgwlLftG1ICWqxm4TI8EVfn7W3NTEL1oOWj0gghtMTcdbf3B4PD4uKUP//G92Azlu783YqATaI44HE6Q81/Xze+/cF6cbr86n5Tj4be28pAholrPvrQMRXN8xHLgceGsHh0KhfL+mUftu1IDe2ZjgsISBQ2GolNTa2nr48GEYTM7F7nqlw+7Ga784rt5yZeybeydPHK+urh4qdeVZPSCC4xn0HBTMW4LDYDDfY35QeY0a2Hop5ltECgfVGbZJcDhcXFzcqlWrJCQkHB0dC/Lzvd64pH14Wvzmyk8vOz/XJ1cuX5aSklJRUXFzc0MgoOE/528KRHCcYzfwKXlLcBUVFW5v3prejKJS25ozMWvPxJg5xOYVVgw8GoO0xNLSUhsbG1VV1U2bNsXGxuLx+GfPns2bNy8zM7OhrrayosLExERHRycrK+vMmTPKysobN24MCAhAImmOExykNeeF2hDB8QJ1TsvkFcERCITIyMgtW7YsXbrU0z/mmHW03lnKTJze2Zh/bWMu33p8+fLloqIiTqs1XNLh8fgvX76sWbNGXl7ewcGhurqaRCI1NDSsXLnSzMyMahTi5+cnKirq5eXV3t7+/fv3ffv2TZs2zdTUNCYmhkAYEoeVDmCDQwQ3gGD3uSheEZy1tbWUlJSurm5aWlpGZtbl63c+Bse/+5z0MTjW+p7jufPnp0yRUVBQcHJywmAwfa7l0MwAg8HcvXtXWlpaX18/Ly+PemzQmzdvZs6cGRUVRa02FovV0dGZN28eeHxaS0tLSEiIhoaGtLT01atXUSjwyGaqOBRghwDkD44dOvz2bIAJDo/HZ2Vl6ejoiIuLm5mZIRAIAoFgZGS0bt26srIyFAoFh8M1NTUvXLhQUlKyZ88eUVHR9evXp6WlUTsj/AYgT/TB4XD5+fnr168XFxe/fv16e3s7VQ00Gq2srHz48GG6H4bIyEgREZFXr15Rjaj/m4m7fv36lClTlJSUvLy8BtfRkdT6DpYAtNmeNy01kASHRCJfvHihrq6uq6sbEBAADo6io6MnTZr08uVLsP7g/JGqqmpOTg4OhwsICNiyZYu0tLS5uXlycnJHRwdvYOKbUkkkUnV1tYODg7y8/Jo1a/z9/akdN1DHBw8eSEhIREZGMqq8ffv2devW0S2kxsXF7d+/f+bMmXv27AkODqajRcZMoBjOEIAIjjPc+ppqwAguOTl5165dysrKFy9eLCsrA/VGo9Fr165dtGgR7boeOMdx+vRpUKaqqsrNzU1LS2v27Nk3b95saBjWtvhpaWnbtm1TVVW1trYuLS2la/6ysjJVVdW9e/fSsR4olpCQoKio6OnpSbdLBIVCffr0ycDAQEFB4ejRo2lpaXQCdKVAtxwgABEcB6BxIckAEBwGg3n06NG0adNUVFRCQ0NpB5t+fn6TJ0/28fGhrQmRSLSxsRERESkoKADjiURiTU2Nra3t1KlTZ86c6e3tTSs/TMJ4PP7p06dSUlJLliyJiopiSmHW1tbCwsLFxcVMMQHbevPmzU0M+xmIRCISifT09Jw+fbq8vLytrS1tMzHNDYrsFQIQwfUKLq4Jt7W1mZubW1tb98foj0gklpaWmpiYiIuL//PPP3ST2c3NzTt27Fi6dCljZaqrqxUUFIyNjfHdvZhlZWWtX79eVFR069ataWlpTD9yxtwGVwwej2tva2tsgLe2NONwOBKJRCAQcnJyjIyMREVFDxw4AIfDmdYI7PmeOnWK6VMwMigoSFZWNiwsjJUMAoE4efKklJTU0qVLo6KiUCgUDodta22l6kMmD3d/JEPZHxyyMNrT3cUntZbV+wHFUxEAewRLOi9vb286MiKRSAEBAcrKygEBAdQktIEHDx6IiYlFR0fTRpLJZDwe7+np+ffff6upqVlaWmZlZQ2Z8RSJRGptRpbGBeT53i96Z1HgZV0U7lNfVe7q6rp48eIVK1Z4enrSoUG9BecuVVRU8vLyqJGMAQQCYWRktHr1ajZzbVgsNiQkZPv27TCY3NNH9vnhvvk+dqA+xZEfkPAaxmyHVQyHZiL987vQUJTgZGZmZtp5HbK6+zokG9kHq4MMF1NJIQB2MRxZmGF74YTp0+j+nhDK/XAdVN7U1PTQoUP3X3sXdlaAgG4OeParXqampidOnHjyJRqFJaCbcynRZs9ym9G8eu1IJFJ2dvaRI0ekpaVPnjyZkZHByEFshkug2k1NTXPnzj169GhbWxtdRUgkUnl5+ZMnT9TV1RcuXPjgwYP6+no6mcF424FBF4d5U/bJX9Po3EY6H271d+672/v37rlw4UJ+fj4jjNRqMtq+UR/RBag2cXTxdLcIBOK9r0/I8xs11npdW77m11mvLfj8vLlpWB+nzSnBcZ3hGnJtD82TFp8wevRooPMaITBOaME2z2TO+19dBBeSG3R/idQoQPAAfQeD7jXp823ENQ1QeQAARowYMU5oovT2m5VIDK6lxma3IvXRqFGjBCeLTT3h01ITQYlW3B1R09Lnwv+cAQaDqayqzs4phMPh1I3cfn5+M2bMUFNT+/btGyM9gZmmp6f/N6Hm5eVFtVpgLMzDw0NRUZGxEwdK4nC4uro6MzMzSUnJ5cuXh4eHU065R6PLyitz8orq6+vphreM+fNbTHlOesWjvbQ75BuvqjdYLIkPC25ubmavLaPtGyt5Wps4VjJgfElGQqW9EZ0+9ZYrf2aksqFa9nkOgaccEhzjklBfsCDiShx3rxQEgCkqpi5RuaAhY26W/6mLl/sywOwiuPDa1DBjbQ3YyW6z471QOMMFJikkIrPtWx1toioXU10hQMOZZnGsk+CUzrjEoclkVKrXwTkCAAC7GFrdRXBaLqUIMh5T6HFluexoAFC7Gz1ABEcikWpq632CUiyexx21jr3tFBcWm1lRWXP06FEhIaHdu3ezaVCq7RudyQItFmQyuaGhAbSJYzOeIhKJSUlJenp6EydOvPfgocfn5KuOcf/axt11jY9K/NncOphMWLOjguC3tekIpfGqekGQa0sLu58rVrZvdHhSbxlt4qiPaAMZEQH1N5cz6pMbHTCclyD4geAI5ZFOq6cLA/KaPrm0TUYNo9L9XT58DUvPSHnn7uYdVojBNRWmRAa5ubm4uLh4eAQlFnbgfjlcxCALv3u6u7i4ffiSEmq/BxyitsMLv35wcYks/JUjpjr1+ztKWhePoMhMBI6y/QWUiSysLUmPfE959D4ynTKSosQ7HBITFhCcvOCcg8v7yCz0r7L+QHBkNMLljBYAALtcSrsRHJlMrooz1VUCAODfd70jOI79wdXBGx69TTQw/+3paNe1WKvHvjq6fz979oz9B0Bn+0ZtFboAOK80a9asnJwcukd0t01NTY5Pn914Gr6exvPSvpuxARHZGMygMZ3LiAxiSigFnxzZ9+Ds7e1Z2b7RAUW9ZWoTR31KJpNJJFJGRGCDxRJGgssL/8CqY06bw1AN8wHBEVAhDgdlAQB2+jMLlEuvaQDCU+TmqauNHT1KZtvLtJS3e5dNlxo1ijLoExCQUl1uH9a5VoUsfHRx+9RxowFglLCY2lI1uXGjKXNwVXEuFD7Z5ULJH1n48ube2VPHdg4YBaSma2x8GNHJORQZeU29lXPlhSnPhOXnrvfJJf9K2zW8VNxtU9MCngbyB4JDZYcemiUFACq342u7ERwBW+jjoDlFGACWPE3rHcFx5g8Oj8fHJ2duvvCb3cDd8sdtoz8HUYaKbC6mtm+s5MGXiWoTx0qso6Pje0zGerNu+qw9E3PxcXxRaRWrVEzjW1tbmcYPQGRJVlLlIxM6QkFc04gNep+UlMRqVMje9o2V2qxs4qjyZWVl/u4vK+220OnTcGNpdkr8cN7BygcEh2sJsNktAQDbXxaSyfjCsGebNGC/Lm3jziEqheAAAIBtupCYVVgBb20oSXnl5hGUW1haWhjifGGuKCB4wIOSNsS+c+hn4BFdGB9yV3OuKCVVN4L7JaN20rO0tDQr/r2epjwgqOVd+ZvIdG09krNC7urNFQSAWTfjCR2outC7smKCk6T03JJLq+qbyzz/6VRPVmzCuJHAGDHZzjsjy0okpnOIOlpYTFoOBpsqJSYAAEsOPqpAEbsITkBMdipMTk56svBoADC4mwbv5RwcZ3Zwra2tHgGptC5AwPDmC7Ff/+TmiKntG/W7ogsw2sTRCYC3iMbGR++SGPXZfT02POYH0yRMI79+/fro0SOmjwYgsh3VUvDxUf1NTVpOyXO/cXC/qZyc3OXLl5n2m9jbvrFSm80iT3t7+5MnTxQUFOaoqWa632qwWEzVB3FNI9/vUdPwdkPCBwSHbw2yM5ECALWLoTQEJztpDAAo6brEVZHJnQT3K0zpj+PQVWH3/9FaMqarX9XZO+siyiU3f60lUOfgfvfgcM3+dwwptNftGnMtuovgNK6BU2pgWpltzpRpt+5zcJXePSI4JSXDy1Y+tZ3TSt0IDqakobHf0ScVgyf3dpGB6wQXHJ7M6qMik8ktLS07d+5csmQJGxm6R6BNnImJCZtFA0Rj48O33fyeg2TXc4IjEomxsbE2NjbsZ7vodOPuLYlEQtTXFX51q3y0t+6ObtW9rVGvbmWkxCMQiDNnzkhLS8vLy7958waJRFI7UODHxt72jZWSdDZxFCOV1ta4uLjVq1eLioru2LEjPz+/KD8v1uV2xQPDuju61fe3FQQ6w6t+7UJhle2Qj+cDgiNjMz5YqlNGbOaFv2eZaUmNNkwmEzGJ7uaqwoD8XD1TU9Md+p2jvV0u5C6C2+Xya9qfCcF1ID0u6QsAgLzmdqo9h6np9aiGXhBc1zvxhyFqlxjl/y6C61xkoHkwMATHZojq8ORVdnY2UzL6o+0bTT26BVnZxIFCaDQ6IiLC6+N35kPUkh4NUWNjYx0cHMrLy7sVzIsbVEtzZWlxcVFRUX7eyeP/7t69G4PBUHy7x8UdPnxYWVlZT0/v3bt3CASih7ZvrCpBaxMHGq/u27dPRkZmx44dAQEBOByuo6Pj9u3b/x47mpudWVxUVF5S3NrcxGbVm1VBQyyeHwiO3F4eeXz19NGAqM4B+5CKlk7Tt+SjGix6cF0ktea70TkAACAASURBVOtRBAGLDnY4pyzc2YMjtoU/PQYDAPk9brkNBGR19MW96vRzcN1kyGQypqUixP5eYANl3r9zno51D26ilIbXr81I4DvQbwTXEHX3X6tnz6woFPy0m2ULZz04MplcV1f/sPsig+HV2BcekStXaS1evNjKyopxhZTNsIj9N8DGJi43N/fs2bOzZs2yu/fA2iWedpHB5Ebs5/BsdA8WGb5+/WpjY8MP7EaHg5+fn7i4uJeXFxiPwWDCwsKOHDmipKRkYGDw6tUrTU1NWr9vdMn/eAvaxNna2h49elRJSWnz5s2+vr5Uo8K8vLxZs2Y9e/aM6c/VHzMfqgJ8QXBkIq458uE6McGRo8aLTJk6jTKpJSXIaohKao988a88AAiKScnJTRMTFqSsNVAWEEiI9Pcb54oCYyZJycrJyoiNG0t50n0OjlYGBoNNmzpFZPwii1L2BFcTuEFm8shRf4lNgWmdegZH4TvfBu4R3GhBKbDSMI1Tz8JQRc4Lx0ltu+4d4XZWSmatd+Xvd49jgqMzE7F8EevqGZCdk19TU3P16lUJCQk1NTXqlwmW1xPbt9+adQ8x2sS1trZaWlqCbrhdXV0RCERsfNLzt98vPY751zbO1iU+PC4L2dT6R/PKr1+/3rhxg4cj0+4V7XaHxWLXrVsH+nEDH5BIJBQKFR4evmrVKiEhof9w9vX15bhXVVlZOWPGDEFBwblz5/r4+DQ2NtJmdfr0aU1NzcLCLlOBbqoNghs8EZeLjA+tcvUutvIquh1Q/jSt4RsK11c/xhz6g2NjNtUHLCv9H5/U0vq1wGBobPwoMKpzDqvy/gYY7NeCQ2f2qFofK+NZSjCY0izjUxeNN2lTbdwaonwOzZsFgylpb7JK/eyiuWCWpm18baqPsTbst0xu1B1T485iNLSMbvpnUQbGv2Q23Af5JNfn3IJZsCX/eIObHyrjbTdQEmicsgxDsd5cEd+pqKVPKp0IHgV/dkoLBjPyqezWYBhkpaXRr/qC+oAEt0xE5ta3OnDu7yLNOifHBAc2Spehb8HPnz+XLVtmZWUFbp/Mysravn27iIjIsmXLwsPDUShUD23fWLU11SYOjUYjkUhfX9958+ZJSEicPHkS3JuJwWC0tLSMjY1z8wp+9tjQNzIycuHChXp6epv44Hr79i1j9QsKCkRFRR8+fEi3iopGo2VkZCZNmiQhIWFubl5bW0u3GY4xK2oMkUhsaGhwc3NTVlaWlJScNGnSkydPaKmNTCYXFRVNmjTp4cOH1FSDJUAg4RswlR9K7SySN1xK1GH8c8u/XNKSgSXSfVL9Wz+gfwiuf5UeNLmXOvcTwVERoPXjBkZisVg/P7+tW7fOmDHjwIEDTk5OtH7fqAl7GKDm7+jouGXLlhkzZhw5ciQl5ffBNI8fPxYVFfXz8+thhqAYEol0cHC4detWZmZmLq+vxkbmW6CY9qRAv29eXl62traLFy+eOXOmjY1Nbm4udf0B24FpbkTU19c3NtRj0O1U/qqtrX379q2enp6KisrJkydzcnIYbeLa2tq2bt1K58aqV8DySriD0BZb9/7ujz2MvEYbY5myyb/0IbKD801Nva0gwMpHQm8zguSZIND/BEcmk8G5CTqbtcbGRi8vr7Vr14p0Xp8+feJsQgeHw718+VJMTExQUHDfvn0hISG0vknKyspmzpxpYmLC1JCCCSA0UW1tbe7u7vb29j3vAdGkHohgXl7e4sWLnzx5QoUOrO++ffuwWCyRSPz586eDg8PixYuXLl1qY2PT2NiIam0pSw4t8bYqff6/0tfmJdGfEHXVWCz2/fv3W7ZskZWVPXHiRExMDOgKODExkc5PnJ+f36RJk+jcWA1EVftWRgeh/UOJ3c0UA1ouYxW+krTGJc+8HjNAZxsBBMKvnQN9qyOUmhkCeFRNeUUzmkDGoiorymndDfRxiEpbGJFIfPnypbi4OO1pAGQymUgkuri4CAkJycjISEtLnzp1ita9JW0OrMJlZWUmJiZiYmJSUlJ//fVXamoqtT8CJuHMFoxaHA6H+/jxo729PXU7LfURPwRwOJyNjc3s2bNra3/1OBjri8fji4uLL168KCoqqj5vXtKHlzX3NiM6TdgQ1xbUW67I+/Ts0gVzcXHxLVu2pKWl0f4S0C3+NDU17dy5c+XKlfyJBqsWIZIIH0rsriStYcVozOJ1HX/+rwU3EIcoAqQ/zgazqhkU3wcEuOsPrrW1dd68eTo6OrS9Iarft7a2ths3bsjLy4Nnd9Luh8fhcM0trfAGRGsrCofDg/yFx+PLy8tv374tIiKioKDw/PnzgoICRj9xubm5S5cu5cwWjIocDodzd3d/9+5df/jFo5bCcSA9PX3+/Pl2dnYkEqmwsHDFihWs6ltQUGB57XLusxNU61ww0HBj6dcPHh8+fGBKW6BNXHh4OIlE+vTp04wZM9LT0znWduATksjE1IavN1I20rGYedSqk/7L//24/N9Py09/177IMCV3JWnNp1J7HLEX+/kaGhocHBzY+NRjWn2WBEddtGaaDIrkNwR8fHwkJSW9vb1BkqLavgUGBoK9uYyMjJMnT86aNWvZsmVOTk5VVVV19Y0B4dkO7gm2rgmP3yUERGQ3Ipvz8/MfP368dOnSefPmXb9+nerlnM4mDovFWltbq6qq5ufn9xGKtrY2Z2dnUM8+ZsX15Hg83srKSkFBITs7+/Xr16qqqmz8vuUnR9bcNaAjOMqm/U9Pmpu6LUlR9QRt4jZs2IBAILZs2XLw4EHaGQCqGN8GEJjqlzn/R8duF6JXbTefOvtviTnrpWdqTpRbq2j6eRUjx9mk78pvTiL12JEnh2YijD24uro6BwcHHm6d4dvm5GfFcDickZHRhg0bqqooFrbg8GfLli20brJxOFxsbOzZs2eVlJTMzC+6fEjcbRG39gxlJ+naszHGFrEeX5J37jSEwWAXL15MTU2lzj2RyWQ6m7jKykp1dXUrKyvaPiPH+LS1taWmpnKcvF8TlpeXKysrb9iwYcuWLext33LjQmqt9RgJrsjHFtnIcjjm5+cnJSVlY2MDeiGlmwTo16r1MXMSmfQDEWqRvJ6B4LRMneYdC9a6lKhzzm/+3PkTNS5qnI+nX1e9nKj7pexJzztx3CG4V69ezZ49e/z48Z8/s9ow30dYoOT9hUB6erqsrCzo642N7RsajU5MTPzoH7DlYrdN8mvOxBy1jnnywj03N5epVxJamzgbG5v58+cPrvEUZ7iTSCQnJ6e//vpr1qxZdLOcdBmW52ZUPN7HSHC5kf60BwzSpQL9xE2ePNnU1HRwdd+wRMynUgc6dqO7vRC2QnutIMx41v9F0RPcpUSdh1mHe24fxyHBlZaWEonExsZGX19fVVVVcGenpKQk2BGgawzolp8RaGtrO3HihJ6eXn19/f/+97+1a9eyakQ0Gh0cmc64SX7ThZjgsCRWdayvr1+6dKmVlVV+fv7kyZPNzc2pthGskvBhfGJiYlFRUa86SjgcbsKECfr6+mxMDtBodGDAlxgni3rLFVSOQ1xfWPbY1O3Vi8rKSjp7OioyJBLp5MmT48ePv3fvHjVyUARQuKZHWUfoGI3u9ozfQvX5gsssF5oxTMOBkjXtPbVn5pDgIiIi3Nzc1qxZM3Ys6HeIQnEqKirfv39Ph65+QyAtLS0iIiIqKiotLY1NIXl5eUw7U6w+gOjoaGVlZdBPmY2NDauPqq2tze9bGiPBbTCL+RrOkuCwWKyVldWCBQvWrVs3c+bMoqIiVmrwc3xlZeXNmzcjIyNZgcOovK+v7+jRo2fOnBkQEMDIjCQSqbi4+Pz589OmTXN6+rjI/0nF00M197dVPTIue3s1LzVWW1tbS0srJCSEdshPLaWiokJZWVlRUdHQ0JCVRR5VmK8CLdgG63RDOkYDb88HL9tlq7rxmupyHcFpWxQPfdFmKnYpUScHGdfDSnFIcCtWrBg/fnw3lxwAMGHCBDU1tXnQ1W8IzJkz5z8fFQoKCnPnzmVTiJ6eXmJiYg/fADKZDHbipkyZ8p+Vb0UFS1MjAoGQkJyxsbsftzVnYg7ejo1PYefkMj09XV1dfdSoUQ8ePOi5VvwmWVtba29vHxQU1BOOQyAQixcv3rp16759+wwNDelcYBKJxLi4uPXr16uoqHh7ezc3N7e2NNeWF1dkxFYVZDXW1xIIhB8/fuzZs2fOnDm0JnUgJqBbqilTpnh7e8+ePTswMJCRQPkNPao+TR11V5PWMmWu88FLjaxVN1xVXXt26qzFMuseLDZjmIMDE8bX9dREnEOC+/r168GDB8eNG0fLcfPmzUtNTS2Frn5D4OfPn4aGhv/8809eXh6bQioqKnrVgyOTye7u7sLCwrq6umw+FTgcfubMWbtX32k7cevNYmxefr9x8xabdYOWlpatW7eOHDmS1eCX+vbzeQCBQNjb20dGRrJBCayCk5OTiIhIUVFRYGCgvLx8aGgobdVCQkKmT5+uq6ubm5tLpUvwyEHa24aGBnNzczExsUOHDtG69szMzFy4cKGNjU1ra+uhQ4cG1ypqM7beMnUzU4KjRl6MXrF5r/jEZbDjIcw7cT8auuFJiy1dmEOCA+fgUlJStmzZIioqOnLkSMq2dhiM0SkFXXnQbV8Q4KKhL60aGAzm8OHD4uLi0tLSTB2OE4nE5ORkbW3tadOmBQZ/f+OfeuhOrOHVmGM2sa8/pjx99mLq1Km6urp5eXmM82skEikwMBAGg40ZM8bMzIz6AdMqMIjCtbW1N2/ezMzMZMNxtbW1enp6J0+eBNeRTUxMtLS0MBgM6MTt7t2748eP37t3bw8/llevXomLi69bt+7nz59EIhGHw9na2qqqqoKGxIGBgYqKij9+9MJRKG/RRuGQ9pkHqFzGIrD6sJ2C9Bwpk0DKoirjXzkqu4e14JzgwAKwWGxwcLCJiQkMBhMQEIiJielhwZAYBwj0E8FFRUWpqqo+fPhw7ty5p0+fprWbp7iUwmDevXu3cOFCfX39tLS0/6a3kU3NxSVlxcXFxSVlyKYWEon09etXLS2K5yU/Pz+6rhwKhTp06NCmTZsOHjwoKyubnd3TV5MpPiUlJW/fvnXl6XXr1q1ly5YFBwcz1ZBIJHp4eMyYMSMjIwMUiIyMlJCQePjwYXZ2tqmpqYKCgpWVFa0hDtN8aCOjo6O1tbU1NTU/ffpUVFS0cOFCqqlNbW3txo0bjYyMGH9aaHPgnzCagHpTcJWRs8wjlu17qHE6kkJnF6KWr98lLqs342QYkx7c7bRtPd+X2leCA4Fra2sLDQ09fvy4paUl/0A59DTpD4JDo9Hnz5/X1taGw+Hu7u7Kysq0R//B4fBz587JyMicPn26rKyMTbelqKjo8OHDM2fOvHPnDu0AOTExUUlJycPDo6KiAgaDXbhwgY4Be9VMxcXF7u7uzjy97OzsNDQ0/P39mWre1NS0efNm2mEjFovdu3evjIzMqs7r8+fPvSUjIpGYl5d35MiR6dOnb968efHixT9//gRLB+1RxMTEwJMYmarEV5FEEiGqxvtyoi4dx5mHLFq9QUxRV3rOBmk1PYmZ6+WN3mmaJzDpvrkXXMMQfrvGZV877hAceK5PW1sbdf8d+1Khp5wh0B8EV1JSAoPBXrx4QSAQ4HC4lpaWmZkZyFAFBQX6+voiIiLu7u503TpG/cETv+zs7MTExAwMDKjjLx0dnQ0bNoAvxt27d+fNmzeo7eCamposLS0TEhJYjbVDQ0Pl5eXpJv6vX78+YsSI1atX5+TksErICCldTGtr6+XLl0eOHLl69Wpadz6tra1z587V1tZmut5Klwk/3Ja1Zt3L2EtHcJcSVp8LWfE/v2WUv4/LT4Uy2ap1KVHnWvK65PoAEqmne+H5yh8cP4DP1zpwneD+YyXQvU9BAcVbMYlE8vLykpWVTU1NjY2NXbBgwezZs3u1IEsmk/38/KZOnbp8+fKEhAQvL6/JkydT3SLV1taqqqra2toy3WLJ19B3Ktfa2uro6BgYGMiKpHA43KpVq3bu3AmOQEkkUl1d3enTp0VFRRctWtRHI+f/tuibmJhMnDhRQUFBS0vrx48f1J6gp6enqKjox48f+R9DMpmMJ2L9yx71cqc92JXTfZV7rrGjpr+rOUT8wZHIxFZcY217cWlrZmFzSgUqtw5dOsCu9XrVVFwnuJycHAkJCVrbt6qqKj09PV1dXTk5ud27d//8+ZPNsJSV8pmZmQYGBhoaGvLy8jo6OtQRK2gTt3DhQupmVVY58GF8U1PT06dPfX192XSUfH19J02aRCX01NRUIyOjuXPnPnv2rKqqatGiRbdu3eLYQUBUVJSEhIS9vX1KSoqBgYGioqK7uzu4uorH41euXGlkZDRYbOLq0eVPf/5L34ljtp5AK2OdbpjTFDsA78ZQ8AdX0ZYbXPHCJc/8cdZRux/G1uk7H2Tuf5L9P8+iW7F1H5qxnQetDgCWvSmCuwRHIBD27NmjrKxMa/tWVFSkra09YsSIjRs3UoeZvdGRIksikcrKyjZu3Dhy5EhdXd2amt8/uaBNnK2tbW/z5K08HA63tLQMDAxkw26g7du6deva2toIBIK7u/uiRYvWrFkTHh6O77wcHR3V1NQ4czSAQCD27t2ro6MDMlppaenFixenTJly/vx5sJmCgoIUFBTohsa8BY196eWonw8yTGn5i334RsrGpPoAIolyTHt/X4PbH1wLDvGx9MHt1K2sDA6vJ+s/yDBNbwjpbxx7mz93CQ5c3bO3t6f20fLy8jQ1NVU6r9mzZ9PaXvVW1YKCAk1NzU2bNk2ePFlPT4/qTgOPx5uZmUlJSQ2WvgZY8a9fv6anp7MamYIyTk5OEyZMiI+Pb21ttbCwEBUVNTIyot1uBU540zkZ7SGwdMcGkslkNBrt7e09derU9evXl5eXI5HIweZZhFSPLn+Rc5o9r4FPbdN3FTQnE0jgcSg9xIxzMZbukjjPckBSksik6raC5zmnLjEs4jBF2b/sUTu+ZUBU61EhXPQHB9q+zZgxA1zTRKPRQUFBkpKSK1eu/PHjR1RUlJiY2MuXL9l/0qyUJhAIL168gMFgJSUloHM0dXX12NhYcOotKytLVlZ2CNjEkUikDgwaXl1RkpWcn5G813i3oeHO6urqI0eOiIuL29nZMeLz8OHDSZMm9dZWhmpqQ2dcQiKRoqOjNTQ0pk+fHhsb6+7uvkBDIyUhtjgjobqkoK21hbPmY1S7/2LacE1fK15ape28nryO8Ru8mrT2VuqWtwUWde0l5B67SKLVlsv+4Giz5sNwTXvRk+z/MeLIKuZq0lq/kns9d13Ah1VmpRJo++bq6komk2tqaiwsLKZOnXrs2DHq7Njx48dXrVrF2SlNcDhcW1v7/PnzaDSaRCL9t+9i3759MBjM3t6+oYFyjM/Zs2f7bhPHqmoDE0+xB6yvKQ59V+pqVmlvVPrkYNqrK4nhwYaGhhoaGr6+vkwXUhAIxKJFi/T19f+4Kk1bi/Dw8JkzZ/r6+jIlrKysLGNjYwUFBZfnT2Lf3Ct8cbLqwc6y5/8UfnhQU5LHNAlt5vwQrkTlRdV4eRRavsw58yjr6KOsI89+nnyTfzW44mVRcyqBhONYSQ7NRBj9wXGswYAlROGaXjC42WNFbdT4GykGEdVv8UTsgOk5AAXR2r7l5eXt3Llz7ty5L1++pB2T5uTkqKqqcnbO5uPHj+fNm5eQkECtS21t7YMHD2RlZQ8ePJiXl1dVVQWDwczNzftiE0fNnCcBDAZdFPIWbrXmtxcQi0VFT47cs7mTmJhIXd9k1M3Hx0dMTIy6EMEoQBcDLiCw31Tf2Nj41PFJ0KNLdbd1qPo03Fha6mpWU/HrHHS6bPnwFkvENHXU1bYX17QXITCVaDyq544tWVVnGBFcUMVzhpHpiq17pMSlBSbS/EmqyZp862ZeaJW2o2GgTrtg1U59jyeRSE3NLdk5BenpP2LikjZt3uzk5BQeHq6oqDh//vzIyEi6b7Kjo+PatWvq6up1dXW9Kr2xsVFKSsrMzIxuPh6Hw0VGRqqoqCxevDg3N/f+/fvbtu2IiklIS/+RnVNAy629Ko5XwjVlRWUv/kdlEzCAuLYgJ9SHfe+M6mS0h2s4Xl5ePTmBrCQrpfyhMb0+1xfmJIRxvG7LK2y5WC6HBEdrZ8hFbfovKzi69E7admq/jHkgfvna5WOFZygcZViu9iy61X+6DUDOJBKpsrrupW/iYavYdedijljFOLhFPXzyQlJS8u+//6YOS+k0SU9Pnzdv3t27d+ni2dwSiUQzMzNZWdmsrCymYj9//tTR0ZGQkAgOjbjnHL7/Vsz68zH/WMe6+iWXVdRSlzuYpuWryIKkiBo7Jq7Gi99eR8D/8JPAxrEoXR2bm5vnzp2rq6tL92tBJ0Ymk7Ojg+C3V9MRXONV9SJ/RzpfJoxph3DMcCG4yBrPa8xmMWmZ7oybytTJAgvtV9JGguFryfptuGaevwdEIrGioqK6urq3Eyt18AaHt4nrz/92xrv+fIyFY/iVazfYdJ2wWOzly5fl5eV7/nuWmZkpIyNz8eJFNliVlpZevnL1umO4/rnf+hiYxzz2SGpE8tGSDpsqUM5dTI2uvreZkVAKvawaG+rZp21razt+/LiBgQE4I8lKmEAg3Lt3T1pauid7P7Jjvtbd0WXUpyDwVUvLoEGVFRQcxw8LgusgtHsUWjKMT7uNQy8lrtqxV1xAdsq+CLr4X7dpDV85RplbCdvb2y0sLBwcHHo16CAQCMmpmZsv/GYT0N/R7usxEXG/NoSz0rCkpERJScnU1JRuAMtUHvQrp66uzv7sISwWGxH3Yz2DX7kjVnEJablMc+bDyIaayhJXs8ar82k5BWGx6Lv3K1dX1z92msBFntevX7OpWkFBAZsTuWgTpqen29y8WvDkCK0yjVfV628uz0mKYrrcQZt8CIeHBcEhO+pe5pxh7JfRxpzzVVebM1bp7OILDONTUCyg3JHn7wFndnDt7e2B4Uxcja89GxPwPZF9Z5BEIoGefiMjI/9Y/ejoaEVFRQ8PD/aSLS0tbz6l0jqVA8MbzWPZeAZmn+fAP8VhsaXxQbU0nTiExaL89w+sblmKiIjo6urGxbHzOktnpsOoP2hqM336dPY+kOvr6y9evCgjIzNffV687/Na2w1Ujmu4sTTX/0VLcxNj5sMnZlgQXG178eOsf2jpjD6coH3QWl5aSnSzP5PxKSj8puAqz18Lzgiuo6MjIu4HI6GsPx8TGBr/x0phsdg5c+bs37+f/eEmGAzmwoULmpqa7IddZDL5v/NYP35jQnA7rsSERKb9UR/+EWhHtRb+SCjytqp4erjM+f/yvnvX11YTCITv378vX758woQJBw8ezM/PZ9XdBu0Br169yvQ3pqqqasmSJZcvX8ZgMIxVJhKJSCTSw8NDTU1NTk7u5s2bWCy2rbW5KCWq6N3NiqeHS53P5EV8bEI2MqYdVjEcElx5efkggolCcNnsCO5C+Ard9UIyO1ROR66m576uDp1LnjnPq8wZwZFIpJ+5+ftvxdFx3DHrKEtre39//z+eXR8YGPjH4+nS0tLU1dWdnZ3ZT4c3NDR4enq6unkYXu02ZF57Jua8Q1xuwWB6r8hkMg6Ha2yoryorrquqaG9roy6SIBCIly9famtrq6mpXbt2LSUlhekYn409oJ2dHVPPKyQSCQ6He3t7r127VlFR8eTJk5mZmVSKxGKxCHgdRZ/qSuoWYJ6/tzxUgEOCo91dyEPte1g0AlP1/OcpVsx1KVHn/9xnySkJadkuZup/CkzoV8r744s4IzjKqQvt6A/f0g/c/sVxa8/E7LOM8wpMPXnqtIyMzO7du4OCgtjM1DQ3N2/fvt3U1JTNioShoeG6devYmz58+fJlx44dMBjsrt09t49JJjdjQc5dezbm0J244KgcDKYXh5b3sPV5KFZeXv7ixQvwPGxzc3PGXajV1dWzZ88+d+4cHRlVV1eDvvMYe39+fn7btm1TVVU9ceJETEwMXUIeVpY/i+aQ4P44DOGr2rbjm1/nX2ZDcCbHJoloSBl/Ytl9u5SoE1XjxfNKcUxwIMfFpeS880+yfBHn8SUpNim7qQXV3NwcHh6+evVqMTExY2NjVvYiJBLpy5cv06dPpztbgApIVFSUiIiIk5MTtQtDfQQGsrKytm7dKioqumzZsu/fv6NQqJZWVER8ltvHRCvneM8vSYlpOW1t7XSphsAtHo+Hw+E2NjZSUlIzZ858/Pgx3ZDz3bt3M2bMoHOFffLkSSkpqdzcbksuWVlZGzZsEBMT09fXj4uLY3Nq6hDAjVtV4NAf3KD73fha+YrV1vpL0fOUxo5WPTH/XNdolJEKryStQWAoZ7/z9uoLwZHJZCKR2NbWVldX10YzmAJP1Xr+/LmiouLkyZNv3LhRXl7OOMxsamrauXPnypUrGTt6HR0dOjo6GhoajP07PB5fWVl5584dWVlZeXl5R0dH2jeHSCS2trb+5zSYvWUsbzHnVunUPaoaGhrfv39vaaG4eieTyQ0NDStWrDA3NwcPbQC3l4qLi9+/fx8smkAgVFRUWFhYyMjIKCsre3p6MrYOt5SE8gERAFj9UPMtQAXNybdStzIyFyXGe/a87dN2eKxi/rST9Zxyz/JD1fpIcOyr8N/o8vr16xoaGosXL3ZwcCgoKKDO7IAJAwICxMTE6CwbSCTS27dvJSQk6FxmE4nEwsJCR0dHDQ2NOXPmXLt2jf3olb1uQ+MpFosNCwvbvXu3vLy8kZHRly9fUCgUgUB4/fq13to1/zklrykrrKsqv3P7lsb8+a2trQQCoaCgANz3tnDhQmtr68E1chq8rQYMOtWxRIxPsTUbCmPz6HqyfkEzy4ONBxKKfiU4MplMIBAyMjJu3LghJye3YsUKBwcHWos2LBa7b9++mTNn0o5kq6qqcv6mgAAAIABJREFU9PX1DQ0NaSfRW1paHB0dtbS0pk+fbmFhkZqayjiXNJC48VVZra2tX7582b1796xZs0xMTIKDgwvz8z49vV3w7N8KxwPlTw9HOpz2ffMKiUQ+efJk1apVKioq1tbWWVlZjH1nvqrXUFJm8BEcmUxu7Ki5lbqFDZGxevS+5G4HgS+mh/qb4MB3FIPBlJSUUB1tBwUFUd/d4uJiYWFhKysrMIbq4pzW1D40NHTRokUSEhJHjx4tLCyEqI2KHjVAIpFaWloCAwM1NDQUFRQi3e7V2K6n2gw3XF9c8Xif83NHaWnpEydOFBcXQ9RGhW5gAoOS4MhkcudAtRccdzlR92XOmXo0y8PeBwZuailc9AdHzZNVgEgkJiUl6evrT5w40cDAIDExEZw+u3Xr1pq1a+MTkvMKy3LyCo8e/ef8+fPt7e0YDObHjx+7d+8WERFZtmxZeHg4bZ+OVSlQvP9779znp6jWudRArM/z5CS+GDf0XxsRidh2FIbF+TFEDKodS2TxsMc6cegPrsf585cggYRPa/h274cJ46llTLtvr3LPlbX26RxP/qp/77VBo9Hv3r1bu3atsrLy2bNno6Ojc/NLLB/6WjyLOX0/9opjnJXj5+i49OTkZHNzcxUVFV1dXVdXV9qVhN6XObxSlGQkVj3YSeU1aqDU7VJ9bfXQxqKpNuaV9UcE80oiPlq/iqnt6zYMDs1EmKs0GGLxRGxBc5JL/gWmjEaNvJ227XPZI35YOeUHUGtra1+/fq2rq3vg0JHHb2O2Xfpto7vpQoytc8zBw8c0NDSeP39eVlZGtzTBD/rzsw4lWcmV9kZUXqMGStyvNNTV8rPmfdcNUeq+W1H/hPltJpf5CX3F3e6lLNivx2UPO4KjHIlCJqHxrZmNES9yTjO6GLmevM6v5H5lWy6OOKSMTnv8SjAXJBAICAQiIiJq84Vouh0RWy/FeH34BofDIfMF5tixja2vqSp5fZHKa9RAXtj7IW89gyh10QJGjR49lsk1evQoQMsFIji2L8+fHzZ11GU2hsfUvo+pfR9X51fakkEgcu4f+c/lDWaJjo6OyHgme1rXnIn59DVx8Prm5W2b4HG40qiPNfe2IK4v6GS3+Q03lpY/O1pelM9bxQagdESpi+5YARExic5LfJKwsLDwJHHwTkJMSGCNK0RwA9AM/FMEx/7guFIFLBYbxYzg9M7GfPqWBK30cQwyqrWlLDm05M3lsmf/lL48XvL5SUXBz+Ew0keUuv/f30e+JGR0XskultevW7okg3cZYVcNLntCBMfxWzUYE3LmD46LNc3Mzt1vSb9pf+/N2JhE5v57uVj00M4K24FpRNTD62rr4XWtzU0kUl9XDwcFXB2o0h/RhV0WWOg4F4uLlq7NWMrJp5jq+FNrjkJzcIOiHbmm5MDYwbFRF9PR4fc1eeeV34sMmy/EPPdObGlFsUkFPYIQ6AECuCz/O5rTRaZtOHnp/HnD5YsFlXeFVPfVjfZwXGToAdZ8KsJzguv05oYKj8u855Z4ziHe0inhS9gPeD1i0G3d49MGHt5qoQq/79OaOnIEQLlGjZ5z2L4O1deTniGCG0zvFD8QHOgEra6uvqSssqq6DjJ54+AFIuDQyVEfXGmuDx8+xGSWDPtuMDrL33brqllKKqqLth15/aOw74d1QgTHwfvJsyR8QnA8q/9QKRhVn3ZwqTAASMJgioqKipKSksLCwjPmrzI98zh7+J4PA7YuurYgKTY+MacayRVrhrKyst27d7969apX785g3arVq0ryoTBEcHzYKByohCh7ozNadNOFN/nlNTU1NVVVVclBbke0Jo0cNXnN4UeFw6Yjh6z0t/rHKr6U9go8tOTan/3o9xh0AoHQ2NjYW4tCiOB6DDBXBXlEcHhUfXl8yPM9m7THjBlDmR8RFYWtP/DwcxYcyeS4AK7WeGhmVvhyBzBK5bxbPLpb/eKPTBwDTNd+EVlGIpNJRDyyrrKhBU3E41ENNWVlZWVVdU0dQ2p1tdPQt3PGrds/u8K7wcKDG4jgeAA6mUzmBcEhU8MeH1wCExAQ1li+2njvXlNTU9M9ewzXaanJjtW6yPNXkTcN0cdSv5yGAbLLHUIKKQYRNFeyrTYAKJ1xiUOTyW31WccWyR60ePb5ocOh5QoCQkICkiqbrnoMpf4dheAEhKVgSkpKUhISEkJCQgAgJCpqzPO3CiI4mrdyAIMDTnDIaP+LCxXGCQqrX7nrmllYTgC9O+BwGHhZcsg7n9Qhvlmyf9q2wVYbkFq6IyivywKsq5hSl10AIHvQIQRFINenPV0iLDxrlpKsyjbz+24e752Oa84SAEStkrukB///iCqP/+058y48Li4uKCAg4P379w6W9k7vw3j+VkEEx5uXa4AJrjbVc/P8cSNHqNnFwdGd5pesqh1vqzlvyT9RpahcF6sFs5RgSrM2WfkMpb4Gq4pzFB+9d+yYBZuvZzHYeHUSnOIpp+h2Ernszd7RAADADDzSKzAUYwl88lNjcUHAyK2So0L5MRGR0NbU1M0SpC7jnemNAJ7rChEcb5pgIP3BkbBN7y02iY4WPOL5p6P8CJWPN0wRE9tlfmSVvJiM3IYN+rJiAoCo4R3/Zq6shPEG7P4qFR9yDhghtOaQG4MvJHzw+dmA1BK7oFw8mRx6aTYwWuaAfUgXATQHXt88ecyYa9H9pRiv88XkBl3SlB07dsJBLi4yDC9/cLxuwsFUfmtt/D4VQEr73A9E96lwxkqUfdSaMgkYNVZu1VG36GosgdxcFbRVClh47Gl925CaFGesOgcxWfZawDgxw/tR9As0qPgDMEBYfdOHDCSZjHq0nhruLARX8mTPKkFA27uBgzIHRxJkYcbr+7duOSVwUV3IDo6LYA6prKqCzkoBwpst3jf9srZERvu/trr1+3L6XARWuCXq/lSxcYJiyx5FV4M9NlRd8sG5EMExfR9avPdPFRCVtQpD0j3Odd0sCggs3WFFmZprCNok2hUG5eApJ9apjYKdHmqbfjHIGO/Xxw4f3r//8MkLr6MLkXQLL3Qo9fYWIrjeIjZc5KNvLgEAxVOvKPNBlKs28Z8NcwVoHHftdvpFcNlvDkkKjZh2wh/d9W6Cdl7QEJXZu5J9TUlyssyGQLoBaq7vAoWJYyZJX/lQSplwi742dszkzdcDqdN0tYnueqqjge0v+7p3iZlOPIvDIMNv7lCeKDRyxAgAGDFqtJCY9A6fSnrq74t6EMH1Bb2hnDbimgYguuCOfxb9NBqu2f+OoejoWXdi6ij1JyI/X9s0eYzgTZqJk+rQizCKnVfCnwa3QxlApnUjpDnJSUyQVLrW5Qgfj+1oK0rx/0dz+pgxEzWO/hqAFj3fMEJI8pBblxSZshF9gehfe9+UMc12kEY2V4caTh8rLDpl2jRJ4fHiaqtWzZeVGL/1Of3gvQ/VgwiuD+ANeNKB9AfXaZMlte9+UGtXvwysLrGt/umxhcDcg8l1nRb3iHSzjfNGix6ltV6Iv72EqZ3XgAPGdwWWfTSbMmn05AUHH/7aiGpncfWYiqSkkJSqvjl1eg3z+d9p48Sm3o/q2rdFbAt/egwGzLFN7vxR4btqcagQotRtu9q2p9+rsYTw07CLGWQcpsxn5ZRjXLSDgwiOw7bhSbKB9AdXG39bBWCyyNBen3Z8ibDkZouqzsk5TGGI4XJZYP0jmv1FLO28eAIaPxWKib5vKDaO1mwfpjxrzZ6zN92DEus7un5JWpJPzZMQlTX8PU3XgfS8pC8guflzVV8PYeEnNMjt9ZlvbJ/8pNB4+IEJczbt32O0abGqoTMX7eAgguOrFv+DMgNpB0dEVTw6uAQYLSi17vi7+Mpfa3eVlRmed3RGA5qnXjV0Ts5VJ7itURmldjGURvXovWOY23nRyAzPIBHdBC8rLaG5qmtqES1obLfFZgIaXlFWXoH87UuDREQ11pRU1mMI3QQHO4gkIrHhR9qnT/EoTMiuzj2ASwxssytofiv7XEOI4PoM4QBmMJAER9kZVhj2z4Z5UqITwR2olDdwzJhxE0WnzFtlGZZKmSghYTM+Ws4XFTjgQWMrV/hcjWLn9YZuGn0AcYKKGlQINDSQ8UWFIdF1/WABAxHcYHoVBpjgKNC0tOSGe16/TtmBSrmuX7/nGV7R0jU3REBnBDw7YWoV3UDzq5vrY3ro30f+2VycKh5MjQTpygkCWZ9vfe2PBRSI4DhpDV6l4QHB8aqqULnDCwFwkYH7dYb8wXEf0/7LESK4/sMWypmnCPQXwYHn+UL+4HjauD0uHCK4HkMFCQ4uBPqL4DhDAdpszxlufU0FEVxfERwk6cvK+mM+ip8rn/v2rE8F3ygIERxvmgIiON7gPrCllpWVbd26tbW1dWCL5ZPSWnJzeW/MDBEcb94GiOB4g/vAlmplZTVu3LgHDx4MbLG8KQ1VW5scTnt5GKkZevPa5R1EcLx5GzAYzPPnz9+9e4fD0e8Q5Y1CUKncRgA0awAAQF5evraWiyb93FaUG/m115ccXwKj3dgBhsWk/g3/icRxw6oZ8gfHjYaC8oAQ4AYCeDz+2bNngoKCAACMGzfO1taWQOjav8WN/PktD0Spi4GY9JKVOjTXchmBKYt19A6ffJRZ1dL3fRuQHRy/NTqkz/BFAIlE6unpUXs0K1asKCgoGMJwtNenPzY//yW1sOr3FXZU1tSPcgtHtOMgghvCrQ9VbdghEBoa+utgxk6SExAQePHixRDuxJGIxPba6o7mro0xlAavzvRJLeRey0M9OO5hCeUEIdAHBHA43MqVK6ndNzCwcuVKOBzeh1z5OikR34asR2LwtFc7vLKRi5v8IILj6zeATrmB9AdHVzR0298I+Pj4jBw5UkREZPLkySNHjhQVFRURERkzZoy7u3t/F82r/BGl7vs19M1taK/j6pMPQf7geNUiPC53IP3B8biqw6x4FAp1+vTpmzdvfvr06dq1axMmTLh///6nT58sLS2PHj2KRg9N18gDcLI91IMbTF8SZAc3mFqrN7oSCITGxkYsluICzs/Pb9KkSfHxFB/wWCwWgUAQwfO2e5PhoJClEJyo/BL9Xbt2LdbQ0IDBYAAAU1MzhXpwg6L5uK8kRHDcx5T/cqQlOP7TjpsaIeGBjx750Br71WUkJ9U0crEMqAfHRTD7PSuI4PodYj4oYPgQXHewCU2Vye/sDqmvuUdLed1len0HEVyvIeNhAojgeAj+gBU9bAmuJNxpx2JFRU0bLhIc5A9uwN5bLhQEERwXQOT7LIYrwZHxHe2Iupqa+jYuNhHkD46LYPZ7VhDB9TvEfFDA8CE4bFOJxSYYANvk+bMWi6p4ZL77gPmL0gYumsFx2JzQZnsOgetjMojg+gjgoEg+fAgOWeGzTkhACBAYteRQaJLPOglh+ZlKq+xSeN5MEMHxpgkgguMN7gNb6vAhOByqPNjZ1t3Z4575emPb8Igv7yMSvbZqWuUOLOCMpUEEx4jJQMTwD8Gh0ei6urrysrLS0tLKioqmpqahaqs1EO3avYzhQ3BkEq467/NDK4fPH7wtT+x67BPu89hMbuIBLtrBdYe2p3cQwfUUKe7K8dYfHK7T6PTzp09XL13aYmCgMWeuwjQ5mOxUFQVFreWa+032Pn74MONHRktzM4lE4m7Fh1Vuw4fgmqtDDRncwQlq2XLR3yXkD25YfTscVpZIJJaWlDx9/Fh3lZbEZJExwAiBkaMmjBkrLDBOWGCc0FiB8X+NHgOMEBwzVkVB0WT3nuCgoObmZg4LG/bJhhHBVX0zVVdeQuMNbsP27U+iuXn+M2QHN+y/px4AEPb9++YNGyUmi4wdMVJ80uRlixYfPXjI6tatF0+fvnrx8snDh1cuXty+eYvqDCWhsQJjR4xUmCZ38bxZeTnNcfc9KAUSAREYPgRH6EDnZcTl/XYGV4Vob++7DzjaFwkiOFo0oDATBD5++DBdduq4UX8Jjhm7af2Gj35+9fX1qFYUtqOD0Hnh8XgMGt3c1JSbk2tne1dNWWUMMEJYYJypyd76oevqhwlSXIoaPgSHx5SW5jaguuHWUBlfysUhKkRw3dCFbmgRIBKJEeHhsCkyY0eMVJSDPbS3x2D+bKNUWFBgbGgkLDBu7IiRx4/9DzNEPWHQAsXd8PAhOESpy7a5muaPXH9fd43FJpl+J6CyUr58SclC9flYBojguPty9m9uA+wPrrioaPOGjeNG/aUwTc7NxRXd3t7D6iEQiNMnTohMEBIcPeaRvT0ej+9hQkiMzpvI0AaElbskv6rPmyUBQHLz56qmPiIAEVwfARzQ5APpDw6Hwz13dJScLCI0VsDx0eP2HrMbmUwmkUjFRUVbNxqMG/WXmpJyWmrqgMI0yAsbVj04o+mz9h070/3ySGnOe2dhYWHxLq+5o4+NCRFcHwEc0OQDaQdXD4dvWKs3dsRIg3X6HR29fs+IROLHDx8kJk0WFhh3x/IW6OlsQMEatIUNH4LDorJSvmfVtKG7Xzg8iYTHYrFYfN/NjSCCG0zfwUASXHRUlIiQ8MRx4z/7+3OGEaKhYf2atWNHjNT7++/S0lLOMhmGqYYPwSFK3+2fa3y72xzcOe1JkMvyYfjWd1Z5IAnuvp3dGGDEEo0FFRUVHOPt8MBeYOSouaqzEjr903Kcz7BKOJwIzkWL7pQdyu0uLu5kgHpwg+nbGUiC27t7zxjg/9v7DrAmsu9terWgAgoqRLCLigsqIuuisgiIiyui6LoIlhXLWpAV3eWnYmEtiCKsYs2KSMuHBRYVcZHiglgoAiIGQWooIRACSUib/5cEcAgBUiaQ6J1nHpncnHvuOe/JvN65c+aM/Ca3jS1E+FvdhIMrLTV11NBh40ePwURHy+jr76qrqxMSEv7+++/Tp0+f4rfxpDRnZWXxk+poCwoKamlpgYPYU97NzU1NTW3Hjh2nTp26ePFiv/Lw4XrKP336FC7Ac9xTnkwmD1ik8GXoFWPGzP0Ots0aM8Vqbz4cIPGOQT048fAb2N4DSXBW8y1U5OQPHTggSGpIbzDgamoM9ceOGjrsr+BgGo3Wm5g0t//9998jRowYOnSompralClTrHtsOFy3+oxRUVE9RD43ODk51dfXw/3tKW9hYaGtrW1paWltbS2I/Gft/OSDg4PhAjzHPfUfPXrU0tLy4sWLBAIBbqckjtuach5GJn1sgG21SV4H7iF40x3Ug5NE4CSlcyAJbsbkKRpKyseP+olwh6HLf1p7+yTUhKGqaqf9/5SV+ww8VQOampqePHnCw0pdDn55B3fv3nVwcNDV1R09evSZM2caGhokN6HjuwanjeganGgBAg/bi4abuL0GkuCmGk/UUFI+4XdMHIJjMBiTJxgNUVH988RJcfSIC5xg/ZlMZkFBQWxsrOROacEMGWQpOp2ek5Pj5eVlYmKycOHCBw8eSGj2zTcPbtSE/aBc0iD/AgZr+IEkOLPZpqryCr6//y7OJWoLkWg03mC4hmbg2QApn8ExGIyUlBRra2tbW1vp5+IB+AXSaLSMjAwPD48ZM2acP39eEtna8DW4pUttN23at+/Ikf/37/sB8K7vIcAMrm98JPXtQBKcve0yFTn5fb/uFirFl8fzD8XF+jq6uiNG3rh2TRJnCM9w4nwsKCiYNGmSo6NjSUkJKPfERZLFYuHxeB8fn1GjRh05ckQcePn2bSflv0zK4a7B4fH4lhYyub1dGsAHBMc3XhJvHMh6cNu3bFWRk1/r7NzUJPrjMk8eJ47QHGJsYPAwIYFnbUviYAkzAA6HMzMzs7OzKy4upgu/CXJJy2KxhFLMLWTQ9a/4pz2LxerSJuzBb7/9Nnr06Pv37wsDav+y7aSCV88Kq+GJvqTizJjXJRCLwWhvZzDELysI6sH1H4avUyL00mUVOXmzWbPFydE9ftRPVV7BfLZpbk6O1MKIx+MdHR13eu569iAV+7JUhL20uLTfC/BGPOFtTlnOqwoR9oK8TwSCuPX1qnF1yW+wj7JE2dOz3x85cuTff/9FNojsS1SjGS7wR7U2Lxmm6faEXH3/hp/fjfvVZHHvvIM8OGRD9uVo++/5c12tEVoamomPH4vmVXNz80rHFWoKik7Ll4uTLSza6IL3unbtmpaW1n+JmTkXP+SdKhVlf1rIk63Wc/SPJRUYdOXNgCYR9thbleWfqnvqFKolO//96ou5ZsffirB733pTVVUl1HCCCPO9ySAnt+5uBcZhmJzcMAdMhbipKoDgBAnE1yhTV1v7/eLFKnLyuzy3i+Z/1osXE8aNH6qqdsTXt98JjmhDiN+rrKzMxsZm7dq1b58X5p0syz9UKcL+9nFRvwRXgq0M/6su5DBVhD0ytA4Rgltw8u2I/YUi7B6hOTU1NeKjzaMBX4b2mL3wxEV09y2jmNKUHR8fH5/dRBG3/CUgOB7MwccOBChk8u8+PuqKSpNQE+qEr1tJp9HOB5zT0tAcM0o7IT5eOmFlsVjR0dFGRkZFRUX5/wGC65X7JERw/ApeIvxLAQSHMKASVTeQ9eCYTObjhw8noSaoKyr9eeKksJlQH0tK7GxsVOUVli1Z2tCAZJV9BBGmUCg+Pj4uLi7Nzc2A4PqY2XURHJVKLS4uFufGOjx8VFJpxj+ZxWWwmuXYvKeRGd0eDYF3EP4YEJzwmA1ej4GsBwdBEA6HW79mrbqikukMk7zcXMH9ZteSu3xZV2uEmoJiRHi44B0HWJJGoyUmJqanpzMYDEBwghAcFou1s7O7d+8eIpHCl4X9oD3V0vr7z5vVN+NU3cDD9ojAK3tKBjIPDoIgJpMZi8HoDNcaoqr2m5dXv8tMXYCWl5dbmM9VkZNfYWdPInWvud8lJB0HTM4GQRAgOEEIrq2tzcDAYOfOnYhEr7ebDIDgEIFX9pQMMMFBEEQikX5a66oqrzBh7LhYDEaQhC9yW9sWdw9VeYXxY/SeJSfLCsqA4AQhOAiCTE1NV69ejUhYG8sjNlss9DwE29wX2m4+CV46gwi8sqdk4AkOgqD3796ZzjBRkZOfazonLSW1b9TweLzf/w4PVVUboTnE99DvSC3W9D0oIt8CghOQ4JYvX25ubo4I5i31z2+disktha/B/bN6VShYg0MEXtlTMigEB0HQP3FxU42MVeUV5syc9U9cXHsvFczramt9Dx7SGa6loaS81nn1R5l65gkQnIAE5+rqamxsjMjJw3cNTh3RNThQDw6RSA2QksEiOCqVir5+w1BPX0VO3kBP77S/f88bo1mZmevWrNHS0FSRk18wd25Bfj6LKW4Sk6RhrampKSgo4FYTAAQnOMGhUChEQsN3Dc7kh0v9v5tS4OFBPTiBoZICwcEiOAiCqFTq1dBQlP5YNQXFoapqC+fN9z92POnJk+fp6RHh4Vs8No0fo8d93/MKO/uPJSVSgFb/Jpw7d87KygqLxcr+TQZmc1M7mc4it7Y3U9lPcLZT6c1tDCbsYc7s/PeIJPq6uroiRXCEishfrL7bzlmCO3z4WEzMs2f5+RQpeMkkeNi+/5NHEhKDSHAQBNFotMcPH66wd9DX1lFXVFJXVNIeNlxHa8RwdQ1VeQUNJeWZU6cd+cO3WgLP9EgCTAiCbt26NX/+/Hfv3sk+wbUl3C3La6TnZVYmYGkQxKosrU94TSTDauMiRXDOzs7Tp08XOyIUEsRktNfWVhDJXF1MJq2FIiVVnwHBiR1fkRQMLsFxTf706dOd27c3u7svnDff2MDQUE9/5tRptkuWHPT+LTUlRcqTQnhQT0pKmj59+suXL2Wf4Hg84/MRKYL79ttvv//+ez4DCN5EwF4/u9fF49KL9/d8dh8MTceSGQ33Dm/8ydn1J6/Q980djCe4PsQlAcEhDqlACqWB4CAIYjAYLS0t5eXlr7KyMv77r7CgoKG+ntzWJn5JH4FQQE6opKTE0NAwmZPLAtbgBFyDMzIy2rBhgzhBwGWF2zk47169TGeMlrKisqb5tugQVy0Vzvu1lDVtzmaIoxyRvoDgEIFRaCUDWQ9OaONksENlZSUKhYqMjGSxWIDgBCE4Op2+cePGoKAgMaJNy4+7GYR+1EJ/to7NaZO90KF7UUZGa9ceOnTI3X2hznxfBFdwQT04MSIFuso4As3NzS4uLl5eXmQyGRCcIASHRMDJGejQUHQGGYITnNMdHPuJFwrh2Zpxu8CTDEjgDHR89QjQ6fSgoKA5c+bU1tYCghsogmvPib0ejE4iMboI7p9ra8fNsnPx8PBwdbLSUAfPon71Z+YgAsBisVpaWhrq62txuIqKiory8uqqqlocrrGxkUKhyNwy3PPnz6dNm3b9+nVAcANFcKyKdPTJK2F4bJiFnJzcKHP/uPyWt4Emn19xD95sP4jn91c2NI1Ga25qqqqsTHz0KCQo6NCBAx4/u9kuWWphZv6NycwpxhOnGBmbTJlqNmv2ogWWP65YseOXX44dPRoeFvbm9eu62trW1lZpfhUD+5qIQtm7d+/o0aNz0t7mnSrN/6NChP1t4rt+KxGUYCvuXK69dJQswh51pRaRgpeL/nw7+kChCPuWKznV1dXClszq/VzBYfa6Go0aNnTYsOn2W5I/sC9OCdkPdqxy94sJ2zflt/Teewr7DSiXJCxigyk/YPXgmExmXW1takrKxfMX1qxy/mbmLD1O7puKnLyagqKGkvIQFdWhqmrD1NS5+1BVNU1llf9fOU5VXoGb7jvJEPXdQqu9u36Nioh4m5dHIpGkdnKXl5e3cOHCl2mvczFFeXeKRdjz/3vX71O3lRU1T+JK4iIrRdifJnysqa4T85f37kPpyZi8fbfeirBfjs998OBBaGioOG8g6mY/kVj0LCrsTlR+BbFbO0RMwzxDsHwgILju8Er3p4GpB1dbWxseFrbqhx+mGBmP0ByiKq+grqhkoKdvOsNk+TK7LR6bDuz3PnXi5PmAc5eCQ0L/+isk6OL5gIBjR47s3rEPr/Z7AAAUBElEQVRzncsa64VW0yZOGj1iJJcKdUeMnG9m5rVnb3pamnS+OZDJZObm5rY0txDwTaLtzYTmfieqVCq1sbFJtJ1AaKZS28X8bba2kevxBNH22HsPZs2atWvXLsQITkxnBO4OCE5gqKRAUNJ5cHQ6/d+kJIfvbXWGa3HnYkbjDTa4rgsOCnqRmVlZWUlobGxpaSG3tbVTqTQares9eDQajUqhtLa2Njc3NzQ0VJRXxMfF/3HwkO2SpZoqqipy8prKKnraOr6//1FaWioFQAIThEAgIyNj0qRJlpaWOByCZT6EMEAcUUBw4qA30H0lSnBEIjHg9BmDMXqq8grDNTRNp88IPBtQkJ8vSA243oAgEolPk5I8t26dMG68hpKyuqLSd5YLk5/+K7XvoOGW+SQSiVJ7Qd0b1JJoJ5PJ9+7dmzJlipmZmSReOiMJm3l0AoLjAUSqP0qI4JhMZvH79x4/u2kqqwxRUZ3/jdn5gHOlHz+KQ21wHMlkcnpa2laPTQacB/KnGhnfQv/NreEBF5OS48zMzHXr1t2/fx+Px0uJSQNvBpVKzczM9PHxmTp1qoeHhyzO3bigAYIb+B+P6CNKiODeF71fs8pZU1llqKraFnePF5mZklgsa8TjY6KiF5jPVVNQNNDTv3jhQr8L86IjJUbP3NzcjRs3GhsbOzs7//XXX9nZ2UgRvRhGDVxXKpUaGxvr6ek5derU+fPnX7t2rba2duCGR3okUA8OaUQlqU8SBNdCbNnqsUlTWUVZTv6PgwcJjY2SuzpjMBgvX7xYtMBSVV5hrI7uLTRaEkwqfgSIRGJSUtKKFSu0tLR0dXVNTExWrlzp5uZ2nt927do1+IhUKjUuLo6fYEebsPKRkZFC6eeRJ5PJ0dHRfdjDI4/H421sbGbPnn316tX6+nrpDBAckL6PQT24vvGRrm8RJzgGgxF84QI77YP9Wpn9kqM2OI4vX7yYNW26ipz8HJOZLzIzB2ZQuAGCH9fU1Ny8eXPLli2mpqaoXjYLCwu4QiKRuHXr1l5k2c3Cyv/4449C6eeRJxAIq1ev7sMeHnkuIyCX8ga3XWaOwcP2gxMqxAnuRUYmSn+sprLKz+vW9yzSKzknHyUkTBg3foiKqufWrQQCQXIDAc0AAREQAAQnAmgIdEGW4IhEoquLi4qcvOkMk+dpaf1mciHgQKcKGo12/ty54eoaY3V0HyYkdDaDvwABqUAAENzghAFZgnvy+LG+ts4wNfVjR4+SyQNdZRBXg1v6nbWKnPy61S5f+QXR4PyYwKi9IwAIrndsJPkNgvXgyGSyj7f3EBXVyagJ2a9fS9Jq/rppNFrIxeARmkOGq2u8ef2GvxBoBQiIhwCoBycefjLbG/vhw9JF36nKK2z8acPAT9+4sL16+XKOyUwVOfnjR/1kFkhguFQjAPLgpDo8EjKOxWKlpqRMmzhJQ0n5+tVuWQ4SGpGv2rra2jU/rlJTUPx+8RLpzInjazZolCEEAMHJULAQM5VOp9+8fn30yFHjRo8p/ThoD4dSqVS/w0eGqqlPM55YWFCAmHtAEUCgEwFAcJ1IfE1/qRTKkf/9T11RyWi8wZtXr3Oys7PfvBn4PedNtt/hw1oamvraOk+fJH1NEQC+DhACgOAGCGhEhkGqHlxbW5vX7j0qcvLqikqjR44aPWLk4OwjR40cMlRVXkF72PDo7vn6iMAFlAAEAMHJ0m8AqXpwba2t3nv36WnrjNXRHfRdX0d3oiEqKqLbA0myFBVgqxQjAAhOioPTwzSk8uAYDMb7oqKUZ8/SUlKkYU9PTauVwVpjPeIDGqQOAUBwUheSPgxCiuD6GAJ8BRD4khAABCdL0QQEJ0vRArZKAQKA4KQgCAKbAAhOYKiAIECAjQCoBydLvwNAcLIULWCrFCAA6sFJQRAENgEQnMBQAUGAgOgIgIftRcdOnJ6A4MRBD/QFCAiIACA4AYFCWAwQHMKAAnUAAX4IAILjh4rk2xAjOAoBc9zV9TiGQJG80XRScuge5z2hdSS65AcDI3QiQMIGezo5B2Z2fgZ/hUAAEJwQYCEoilg9ODIe7WVt7YXGD0CZSxox4fR6y/Wna4g0BKGQFVXEwoRV83TNDqf0YbAgMn105/8VsfDEqnmWfY7Lv+OX1VpZWblt27Y7d+4I5RYgOKHgkj5h0QkOlxoelY4V5i0KXw7BCe87BFGq84L9fj1yt6iPH4EgMn105/9V/wTHqMO+vPvoJYnK4K/hi2gFeXBfRBiFdUJ0gnu2buhod3SeEAN+OQQnvO9CwIS0aP8ER85Ae0229iobiGk80t4JrA8QnMBQyYBgQ4ynBecFcYuPY950Lq/hMN4bZnBbN3i/wXHc6EZwlDeY44s5AjPMrTBdUw3OOh33dXPmVmeKIKghLdjC1EBTQXGItj4KZR2YWQdBvfTlrLuZcTpbbLl+i/8lKh2bHOrEFULN2OCN4ZqWGejs5BmMJbHtpBAqj7t2+cKRd96TWUeqxBza4I15hvE2Zzs2uUue4xsff+mkutA9Hscxd45ZmaNmmHt/dlLQoPb0nb/OzDNcxFAo1G5MJVs77o33hsWw40OYSgJmN1eKi6FgMh34T+7Sj3IM5AwAc4Gz7saWmGzq6X/lIPwStQhjxQELhUJx114zA5fraQ9TVhs2bryhqYVnWgNHT0/7Yepl8RAQnCxGja/NjFeXN+gsPcb+0ZOwwX/ezK4jsdqbYo86T3D0rSBQIAohytdxquvx8uZ2CEZwH+P3Tp25MorDfBXROyZYOt3PI7Agen7wyvHWG//lME3mFfdOUug2i+mlLwRvzwywH6GpPLHHGlxF9jlrw6UhyVg6m8gqfB0nOPvGNFCZtc/9F83j2gDVF122VFS23H21vo0F0Zrj/Nctcg+sbaGXodcpqw+x2Mm+cUGq/W/zrGk7r6a2saDe/KURa06vn6isOWJndAVf7ARr7OZ7T51sEtwQwiWdoqidBsNnhxTRoaoMd5vJ69Bl7CE4x5ra4zxjKiGIlHZug7b6yoeUjvY+ZViEvPtOlovP/FcL0UlJFzaPW7wH29AGNxvuO51Ud2n7PA1VRe7aHwmb7LnnWGYd+z8N3KsIR5PJvz0qhyDeGRx/++FjyOAxIDhZClqf9eAIcQedtL7djOmYpLH9asFlbpw35/jdvHaOl3WvIu2XusZXNcEIDnfyWy2ng3HcRTUqoeL3tYuOxua0kzK3zNDdGvqqcxrYhRL8JO+lL0QKXvlZJ6Ot/souCxNeguvWF4La8+4enzNpZXxVU1t99i5bjg0QlB/qamJpb7J2X359K6MFF7jNYdeV1DYGVIbeYGL/66s6jlVUQuTvDou2X65vZfbmL4eMTCx2XalvE2e9Ce471I/O2ifOY0c63yzrQXDm2zCdJPsh2mzM8J3xJAFkmgoTTs9z6bicrMpA2zisT6khdkUFgqDW+vztNp9jTfmUutXaaG7PmwyfL115CQ6uDeqyv1ur7H0ABCdLMeu7HhwBmx6yzXzITDt394OR6dh2CMKXoa2H6Vs5uLhztp9W2hhq26HL8DCCe7ZOWX2ilRNXwG39GjMjcy90BrnspuXIsSee1PZAB36S99IXerUNBVun478GB9fDHoR90k62RpfhmZTGcJ/V7sfvNrc3XNs4c19ozD6XTdey65urHrkvsQvPwjEhqAztPm/ViULuCQ7T35u/HDKyXH86Qbwbud1s5quzIS2Yi6T7WltDDVV+BOdwOKWmA9UuEuGd5fWUKcVlhdstcQrLxUMMcsbf3otW+7xv7Pa/D6EC42Bug86o6lD+mcjYDcSCuH07t7Bt+2nlHENtDvHxITg+9neok9U/gOBkKXL95sHRSXVl2PybB50naK+MqSSwT/gJVmdjM8s+bzgSndmN4DS1V5999Pn7sqpGEpUlIMHx7Qt1IwIIRkAwrLvLwAgOYrXn3T9uuc6nvDFp9wTH+PKG+MPOu2M+4dJPrXc6nEdgQn0THD9/+ZIRzBgBD7vZ3FNnEcbb1HD+mXQOlq/C7MZoIUdwJcWJgQv0VbXGjEcZGky3do7IqGIwWXC72bGezJ/gcG8w6xaYesW8ZFuWn7TfbvYC9syOl+D42w8fQwaPAcHJUtD6IjgmrbmO0EpnQhBnveabhcfScaS6jK02lr9HZFE4JwOTRq4jNNOZLBjBVZ5dbuh4EIPj5AqwmIzmJjwnbyDzl7H6riHp3BQCeltjA4l7mZvuNlLX7Xo2m2ag3vpCkZt0rVxDsJzOpMrcg06onmtwUb+Mte6UYTKaHl/wNOWuFUIQqTjRdcGay5fcx60Na4CgogjPMRuC7/3P2vXsM869h15ncL3525OMRIo63HfuJSp8Vlh9e4vtUKdLnGkVg1SEcUCQ4K6+fRTw88rNZ7OLOv4nqqpv5iE4SmO5j+20zcFJJCaLxWRUZdy2mz2KswZHfhH221TLnUX1bRDEouKyDnYSHLv9u661vF7sFwkp6ekECE56YtG/JX0RHKU65tAfXhcvodE3Tu7b4mjvldJAghjkvIRAe0ePC8FX0Wj05ZCze0Ji2FQFu8nQXITxWO3i5RuIRqNvXAs9FHCBm+b2LvrAckd7TjM6xGf/mXTuylHDnV2Wi1d5X0bH5uDIvfVtSL1os9xxF6fzCd8tDlYzzHjX4CB438vBR9bauYVxLqvZKFA+hW5du9Ry4uJgzj3dirjF+qYz5pqGvupYdertErU3fxEiuG6+99BJKYg7Y2u8xAeNRqMvndzzy6LxGsjN4D5gE4Os5ixY7bqBfZnp4mC5asvtrqtR7g+nnZQednDOsp8Cg6+y4+j9k9VEfQv2TI1RnXd/23fLdgQGo9HXLxzb/4OJ4QI/TvvrO85LHX+/cDkiJrma0ov9/f8qpVoCEJxUh4fHuL4IjpNTGhMRxj6/0HdfYus6l9PbsOmJ4ZxW9N1EbB3n1huDin356NFL7hyLk/DJFYAl8TJp5PzUWG5zFOZNV2ovGZfDaWUTHATx7wsxaZX5qZGczpg3VXXYl0mp+WQaZ9r32SVY37CI5Lxq2IMOtOq85IgwdOf9EsIbTBTnJOzoTMKm/5Oc18TtwBkr4bN+Pv5yfElIza/kNeGzMQIdwX3np5OCTY7hOB2Zmo8t/DcmGUuC2urSE++mctNe2MdJHNw4w1Gqk2MiBJJ5X5+HubDjz5iOmyRt5aG7lhjswvAaTWvKS/6H/Qtgx7EKm574KIebe9OBJxod9k/y68LXyYl5nPZO+U5s+dnPO4aMfS4vL1+/fv2NGzeEshs8ySAUXIgJ901wiA0DFEkZAvSW2kB3p3030ts6lt04l5Pr0VJmpjSaA+rBSWNUerOJS3AHDhygULrdQetNHrR/IQhQCJijK4dYe6ZzFuEyYy84zLU4x060BptEEAAzOInA2q/S1tbW7du3e3p6tra29isMBL4oBAjYa2cOduSgdKYBfVEOSpMzgOAGJxpUKtXX19fFxaW5uXlwLACjAgS+AgQAwQ1OkBkMRmBg4KJFi/B4/OBYAEYFCHwFCACCG7QgJyUl+fv7g0vUQQsAGFimEEhJSdm/f39TU5NQVgOCEwouIAwQAAgMAgJUKvXw4cP29vYEQleak0BmAIITCCYgBBAACAwiAg0NDYsWLfL396fRYEmWAhgECE4AkIAIQAAgMKgIREdHo1CoxMREYa0ABCcsYsjLt7e3C/v/EvJGAI0AAWlFgEwmT5kyZevWrSIkjQKCG+So0mg0f3//O3fuUKnUQTYFDA8QkD4EWltbfX199fT0UlNTRbAOEJwIoCHZhUaj7dmzZ/r06cnJySxWt7I5SA4DdAEEZBCB9vb2y5cvjxo1KiAgoL2dWwVHODcAwQmHlySk6+rqXFxcZs2a9e7dO0noBzoBArKIAIPBiI2NHT9+vLe3t8jXN4DgpCL0hYWFS5Ys0dXVTU5OFmGhQSp8AEYABBBF4NWrVygUysPDg0jsVtJdqEEAwQkFlwSFi4uL3dzcdHR0fH19c3NzGYzOIkkSHBOoBghILwJEIvHOnTv19fXimAgIThz0EO7b2NgYFBQ0b968b7755sCBA0+fPhVt3QFhs4A6gMCAIFBdXU2n05EdChAcsniKq41Op5eXl/v5+Y0bN87c3LysrMzX13fv3r3ne9kSEhLgQ9bX14eHh/ciy27mka+urkaj0TIkn5aWBve3X/t55MvKyq5cudKHv5KWz87Ohtvfrz1iyn/48CEkJKQPf3n0Iy7/4cMHuL989QcEBGzfvt3W1tbAwCApKQkuL/6xHJPJpNFora2tRCKRyWSyWKy2tjYCgcBkdlRtpdPpBAKhvLycKwCenRQfdAE1fPr0KT8/f9myZSgUakwv27Zt2+Da8vPzly5d2ossu5lHPisry8LCQobk/fz84P72az+PfHJy8qxZs/rwV9LyV65cgdvfrz1iysfHxxsbG/fhL49+xOXj4+Ph/vLVr6enh0KhZs6cuW/fvk+fPsHlxT+WQ6PRkZGRO3fu9Pf3J5FI5eXlv/76q729fV0duwgfmUwODw/39/fftm3b7du3IyIi0GhQfVR82IXWUNTLVl1dDddFoVBKS0t7kWU388iTyeSPHz/KkDz3Z9nlcr/288i3trZisdg+/JW0fGNjY5fx7Feg9mePmPItLS3FxcV9+MujH3H5lpYWuL989ZeUlMBlkD2Ww2AwDx8+nDZtWkBAQE1NTVpamouLi6mpKTfSr1+/njlzZlZWFovF+vTpk42NTVRUFLIWAG0AAYAAQEBCCLDX4AoLC6dPn/748WNujkJsbOzVq1e5y9u3b99WUlJ68eIFBEFMJtPNzY3nol1CZgG1AAGAAEBAfAT+D8v4lyddVN/zAAAAAElFTkSuQmCC;" parent="1" vertex="1">
          <mxGeometry x="252" y="161.5" width="416" height="247" as="geometry" />
        </mxCell>
        <mxCell id="_ww6I5lQIW8gpJn7JbcI-35" value="" style="shape=image;verticalLabelPosition=bottom;labelBackgroundColor=default;verticalAlign=top;aspect=fixed;imageAspect=0;image=data:image/png,iVBORw0KGgoAAAANSUhEUgAAAC8AAAAvCAIAAAD8RQT7AAAAXUlEQVRYCe3SsQ0AMAgEMfZfmkxwPZGc9hvk3OylN5eOWdf0d7Bh0wK96IZNC/SiGzYt0Itu2LRAL7ph0wK96IZNC/SiGzYt0Itu2LRAL7ph0wK96IZNC/Sim19sHlgFypXce6QLAAAAAElFTkSuQmCC;" parent="1" vertex="1">
          <mxGeometry x="243" y="390" width="47" height="47" as="geometry" />
        </mxCell>
        <mxCell id="_ww6I5lQIW8gpJn7JbcI-36" value="" style="shape=image;verticalLabelPosition=bottom;labelBackgroundColor=default;verticalAlign=top;aspect=fixed;imageAspect=0;image=data:image/png,iVBORw0KGgoAAAANSUhEUgAAAB8AAABpCAIAAABNt2+yAAAAfElEQVRoBe3SoREAQAgEMfpvmq9gJfMmyBWIzM1e3lw+X9+LlwyZEqhuM2RKoLrNkCmB6jZDpgSq2wyZEqhuM2RKoLrNkCmB6jZDpgSq2wyZEqhuM2RKoLrNkCmB6jZDpgSq2wyZEqhuM2RKoLrNkCmB6jZDpgSq28wfmQcDnAEWirBNlAAAAABJRU5ErkJggg==;" parent="1" vertex="1">
          <mxGeometry x="610" y="262" width="31" height="105" as="geometry" />
        </mxCell>
        <mxCell id="_ww6I5lQIW8gpJn7JbcI-37" value="&lt;font style=&quot;font-size: 17px;&quot; face=&quot;Times New Roman&quot;&gt;&lt;b&gt;Pre-training&lt;/b&gt;&lt;/font&gt;" style="text;html=1;align=center;verticalAlign=middle;resizable=0;points=[];autosize=1;strokeColor=none;fillColor=none;" parent="1" vertex="1">
          <mxGeometry x="550" y="260" width="110" height="30" as="geometry" />
        </mxCell>
        <mxCell id="_ww6I5lQIW8gpJn7JbcI-38" value="&lt;font face=&quot;Times New Roman&quot; style=&quot;font-size: 28px;&quot;&gt;Data Owners&lt;/font&gt;" style="text;html=1;align=center;verticalAlign=middle;resizable=0;points=[];autosize=1;strokeColor=none;fillColor=none;" parent="1" vertex="1">
          <mxGeometry x="90" y="420" width="170" height="50" as="geometry" />
        </mxCell>
        <mxCell id="_ww6I5lQIW8gpJn7JbcI-42" value="" style="shape=image;verticalLabelPosition=bottom;labelBackgroundColor=default;verticalAlign=top;aspect=fixed;imageAspect=0;image=data:image/png,iVBORw0KGgoAAAANSUhEUgAAAHMAAAAWCAIAAAB8GDRYAAAAXElEQVRYCe3SMQ0AAAzDsPEn3aHwlwLIYfXWjMCZbNUlq06QbLJKQHX7bLJKQHX7bLJKQHX7bLJKQHX7bLJKQHX7bLJKQHX7bLJKQHX7bLJKQHX7bLJKQHX7rJJ9A02KDj8OXwIAAAAASUVORK5CYII=;" parent="1" vertex="1">
          <mxGeometry x="-212" y="161.5" width="148.98" height="28.5" as="geometry" />
        </mxCell>
        <mxCell id="_ww6I5lQIW8gpJn7JbcI-41" value="&lt;font face=&quot;Times New Roman&quot; size=&quot;1&quot; style=&quot;&quot;&gt;&lt;b style=&quot;font-size: 20px;&quot;&gt;Calculate Gradient&lt;/b&gt;&lt;/font&gt;" style="text;html=1;align=center;verticalAlign=middle;resizable=0;points=[];autosize=1;strokeColor=none;fillColor=none;" parent="1" vertex="1">
          <mxGeometry x="-220" y="155.75" width="190" height="40" as="geometry" />
        </mxCell>
        <mxCell id="_ww6I5lQIW8gpJn7JbcI-43" value="" style="shape=image;verticalLabelPosition=bottom;labelBackgroundColor=default;verticalAlign=top;aspect=fixed;imageAspect=0;image=data:image/png,iVBORw0KGgoAAAANSUhEUgAAAIAAAAAZCAIAAAB2NbEXAAAAaUlEQVRoBe3TQQ0AAAyDwPk33cm4DzNAAuutowaO0oOvAPgJClAAbADjW0ABsAGMbwEFwAYwvgUUABvA+BZQAGwA41tAAbABjG8BBcAGML4FFAAbwPgWUABsAONbQAGwAYxvAQXABjD+ARhMXKxYgnG6AAAAAElFTkSuQmCC;" parent="1" vertex="1">
          <mxGeometry x="460" y="170.75" width="128" height="25" as="geometry" />
        </mxCell>
        <mxCell id="_ww6I5lQIW8gpJn7JbcI-44" value="&lt;font face=&quot;Times New Roman&quot; size=&quot;1&quot; style=&quot;&quot;&gt;&lt;b style=&quot;font-size: 20px;&quot;&gt;Calculate Gradient&lt;/b&gt;&lt;/font&gt;" style="text;html=1;align=center;verticalAlign=middle;resizable=0;points=[];autosize=1;strokeColor=none;fillColor=none;" parent="1" vertex="1">
          <mxGeometry x="451" y="161.5" width="190" height="40" as="geometry" />
        </mxCell>
        <mxCell id="_ww6I5lQIW8gpJn7JbcI-46" value="" style="shape=image;verticalLabelPosition=bottom;labelBackgroundColor=default;verticalAlign=top;aspect=fixed;imageAspect=0;image=data:image/png,iVBORw0KGgoAAAANSUhEUgAAAFAAAAAXCAIAAAATLl8uAAAATUlEQVRYCe3SMQEAAAjDMPybBgF1UMq5bwuzz26e9d0K28UTTli2QC8tA0WdhDGJLEhYBoo6CWMSWZCwDBR1EsYksiBhGSjqJIxJZMEBvdt7rMI7rjUAAAAASUVORK5CYII=;" parent="1" vertex="1">
          <mxGeometry x="-260" y="385.5" width="110" height="31.63" as="geometry" />
        </mxCell>
        <mxCell id="_ww6I5lQIW8gpJn7JbcI-47" value="" style="shape=image;verticalLabelPosition=bottom;labelBackgroundColor=default;verticalAlign=top;aspect=fixed;imageAspect=0;image=data:image/png,iVBORw0KGgoAAAANSUhEUgAAAFAAAAAXCAIAAAATLl8uAAAATUlEQVRYCe3SMQEAAAjDMPybBgF1UMq5bwuzz26e9d0K28UTTli2QC8tA0WdhDGJLEhYBoo6CWMSWZCwDBR1EsYksiBhGSjqJIxJZMEBvdt7rMI7rjUAAAAASUVORK5CYII=;" parent="1" vertex="1">
          <mxGeometry x="501" y="367" width="99" height="28.46" as="geometry" />
        </mxCell>
        <mxCell id="_ww6I5lQIW8gpJn7JbcI-48" value="&lt;font style=&quot;font-size: 22px;&quot; face=&quot;Times New Roman&quot;&gt;training data&lt;/font&gt;" style="text;html=1;align=center;verticalAlign=middle;resizable=0;points=[];autosize=1;strokeColor=none;fillColor=none;" parent="1" vertex="1">
          <mxGeometry x="480" y="350.00000000000006" width="130" height="40" as="geometry" />
        </mxCell>
        <mxCell id="_ww6I5lQIW8gpJn7JbcI-45" value="&lt;font style=&quot;font-size: 22px;&quot; face=&quot;Times New Roman&quot;&gt;training data&lt;/font&gt;" style="text;html=1;align=center;verticalAlign=middle;resizable=0;points=[];autosize=1;strokeColor=none;fillColor=none;" parent="1" vertex="1">
          <mxGeometry x="-265" y="376" width="130" height="40" as="geometry" />
        </mxCell>
        <mxCell id="_ww6I5lQIW8gpJn7JbcI-51" value="" style="shape=image;verticalLabelPosition=bottom;labelBackgroundColor=default;verticalAlign=top;aspect=fixed;imageAspect=0;image=data:image/png,iVBORw0KGgoAAAANSUhEUgAAAFgAAAAVCAIAAABNMb7RAAAAS0lEQVRYCe3UwQkAMAwDsey/dAtpP7eDPII4PMdWYDg8ARC/BBAgegqKUIQiKqCIevgIRSiiAoqoh49QhCIqoIh6+AhFKKICiqjHBfT1k5RJQDEXAAAAAElFTkSuQmCC;" parent="1" vertex="1">
          <mxGeometry x="382" y="370.73" width="108" height="25.77" as="geometry" />
        </mxCell>
        <mxCell id="_ww6I5lQIW8gpJn7JbcI-49" value="&lt;font face=&quot;Times New Roman&quot; style=&quot;font-size: 20px;&quot;&gt;selected owner&lt;/font&gt;" style="text;html=1;align=center;verticalAlign=middle;resizable=0;points=[];autosize=1;strokeColor=none;fillColor=none;" parent="1" vertex="1">
          <mxGeometry x="373" y="363.62" width="140" height="40" as="geometry" />
        </mxCell>
        <mxCell id="_ww6I5lQIW8gpJn7JbcI-54" value="" style="shape=image;verticalLabelPosition=bottom;labelBackgroundColor=default;verticalAlign=top;aspect=fixed;imageAspect=0;image=data:image/png,iVBORw0KGgoAAAANSUhEUgAAAHEAAAAZCAIAAACJu1awAAAAZUlEQVRoBe3SMQ0AAAzDsPEn3ZHwmQLIYfXWtMDpYL1l6k+QaaZewBf7aaZewBf7aaZewBf7aaZewBf7aaZewBf7aaZewBf7aaZewBf7aaZewBf7aaZewBf7aaZewBf7aaZewBcf2qL7xlSdDbYAAAAASUVORK5CYII=;" parent="1" vertex="1">
          <mxGeometry x="260" y="210" width="113" height="25" as="geometry" />
        </mxCell>
        <mxCell id="_ww6I5lQIW8gpJn7JbcI-52" value="&lt;font face=&quot;Times New Roman&quot; style=&quot;font-size: 20px;&quot;&gt;&lt;b&gt;Gradient+PPL&lt;sub&gt;n&lt;/sub&gt;&lt;/b&gt;&lt;/font&gt;" style="text;html=1;align=center;verticalAlign=middle;resizable=0;points=[];autosize=1;strokeColor=none;fillColor=none;" parent="1" vertex="1">
          <mxGeometry x="250" y="202.5" width="160" height="40" as="geometry" />
        </mxCell>
        <mxCell id="_ww6I5lQIW8gpJn7JbcI-55" value="" style="shape=image;verticalLabelPosition=bottom;labelBackgroundColor=default;verticalAlign=top;aspect=fixed;imageAspect=0;image=data:image/png,iVBORw0KGgoAAAANSUhEUgAAAHEAAAAZCAIAAACJu1awAAAAZUlEQVRoBe3SMQ0AAAzDsPEn3ZHwmQLIYfXWtMDpYL1l6k+QaaZewBf7aaZewBf7aaZewBf7aaZewBf7aaZewBf7aaZewBf7aaZewBf7aaZewBf7aaZewBf7aaZewBf7aaZewBcf2qL7xlSdDbYAAAAASUVORK5CYII=;" parent="1" vertex="1">
          <mxGeometry x="-23" y="210" width="113" height="25" as="geometry" />
        </mxCell>
        <mxCell id="_ww6I5lQIW8gpJn7JbcI-56" value="&lt;font face=&quot;Times New Roman&quot; style=&quot;&quot;&gt;&lt;b style=&quot;&quot;&gt;&lt;span style=&quot;font-size: 20px;&quot;&gt;Gradient+PPL&lt;/span&gt;&lt;span style=&quot;font-size: 16.6667px;&quot;&gt;&lt;sub&gt;1&lt;/sub&gt;&lt;/span&gt;&lt;/b&gt;&lt;/font&gt;" style="text;html=1;align=center;verticalAlign=middle;resizable=0;points=[];autosize=1;strokeColor=none;fillColor=none;" parent="1" vertex="1">
          <mxGeometry x="-50" y="200" width="160" height="40" as="geometry" />
        </mxCell>
        <mxCell id="foiMpeNcs1dB2kMaHggG-3" value="" style="endArrow=classic;html=1;rounded=0;entryX=0.429;entryY=0.004;entryDx=0;entryDy=0;entryPerimeter=0;exitX=0.889;exitY=0.993;exitDx=0;exitDy=0;exitPerimeter=0;strokeWidth=2;" edge="1" parent="1">
          <mxGeometry width="50" height="50" relative="1" as="geometry">
            <mxPoint x="450.99900000000014" y="-187.70499999999993" as="sourcePoint" />
            <mxPoint x="451.6139999999999" y="161.4979999999996" as="targetPoint" />
          </mxGeometry>
        </mxCell>
      </root>
    </mxGraphModel>
  </diagram>
</mxfile>
